<?xml version="1.0" standalone="no"?>
<!DOCTYPE svg PUBLIC "-//W3C//DTD SVG 1.1//EN" "http://www.w3.org/Graphics/SVG/1.1/DTD/svg11.dtd" >
<svg>
<metadata></metadata>
<defs>
<font id="ultralight" horiz-adv-x="350" >
  <font-face 
    font-family="Avenir Next"
    font-weight="275"
    font-stretch="normal"
    units-per-em="1000"
    panose-1="2 11 2 3 2 2 2 2 2 4"
    ascent="756"
    descent="-244"
    x-height="460"
    cap-height="708"
    bbox="-194 -250 1056 945"
    underline-thickness="50"
    underline-position="125"
    unicode-range="U+000D-FB04"
  />
<missing-glyph horiz-adv-x="512" 
d="M278 117h-56v67h56v-67zM271 234h-46l-2 17q0 56 13 81q15 28 46 59q31 29 40.5 46t9.5 37q0 36 -22.5 60.5t-53.5 24.5q-71 0 -82 -95l-50 8q7 69 43 103t92 34q54 0 89 -36t35 -95q0 -34 -13 -60t-50 -60q-37 -33 -43 -52q-6 -20 -6 -72zM50 50h412v617h-412v-617z
M0 718h512v-718h-512v718z" />
    <glyph glyph-name="napostrophe" unicode="&#x22;n" horiz-adv-x="572" 
d="M128 339q21 63 71 99t111 36q88 0 127 -56.5t39 -139.5v-278h-22v276q0 32 -6.5 60.5t-21.5 56.5t-45 45t-71 17q-78 0 -130.5 -61t-52.5 -164v-230h-22v344q0 73 -5 116h22q4 -52 4 -121h2zM133 708l-58 -185h-17l51 185h24z" />
    <glyph glyph-name="f_f" unicode="ff" horiz-adv-x="528" 
d="M532 762l-4 -17q-22 5 -41 5q-51 0 -74.5 -36t-23.5 -88v-166h125v-19h-125v-441h-22v441h-224v-441h-22v441h-97v19h96v165q0 77 35.5 110t84.5 33q26 0 46 -6l-4 -17q-22 5 -41 5q-51 0 -74.5 -36t-23.5 -88v-166h223v165q0 77 35.5 110t84.5 33q26 0 46 -6z" />
    <glyph glyph-name="fi" unicode="fi" horiz-adv-x="494" 
d="M381 633q-9 0 -16 7t-7 19q0 10 7 17.5t16 7.5t16 -7.5t7 -17.5q0 -11 -7 -18.5t-16 -7.5zM392 0h-22v460h22v-460zM286 762l-4 -17q-22 5 -41 5q-51 0 -74.5 -36t-23.5 -88v-166h125v-19h-125v-441h-22v441h-97v19h96v165q0 77 35.5 110t84.5 33q26 0 46 -6z" />
    <glyph glyph-name="fl" unicode="fl" horiz-adv-x="494" 
d="M392 0h-22v756h22v-756zM286 762l-4 -17q-22 5 -41 5q-51 0 -74.5 -36t-23.5 -88v-166h125v-19h-125v-441h-22v441h-97v19h96v165q0 77 35.5 110t84.5 33q26 0 46 -6z" />
    <glyph glyph-name="f_f_i" unicode="ffi" horiz-adv-x="740" 
d="M627 633q-9 0 -16 7t-7 19q0 10 7 17.5t16 7.5t16 -7.5t7 -17.5q0 -11 -7 -18.5t-16 -7.5zM638 0h-22v460h22v-460zM532 762l-4 -17q-22 5 -41 5q-51 0 -74.5 -36t-23.5 -88v-166h125v-19h-125v-441h-22v441h-224v-441h-22v441h-97v19h96v165q0 77 35.5 110t84.5 33
q26 0 46 -6l-4 -17q-22 5 -41 5q-51 0 -74.5 -36t-23.5 -88v-166h223v165q0 77 35.5 110t84.5 33q26 0 46 -6z" />
    <glyph glyph-name="f_f_l" unicode="ffl" horiz-adv-x="740" 
d="M638 0h-22v756h22v-756zM532 762l-4 -17q-22 5 -41 5q-51 0 -74.5 -36t-23.5 -88v-166h125v-19h-125v-441h-22v441h-224v-441h-22v441h-97v19h96v165q0 77 35.5 110t84.5 33q26 0 46 -6l-4 -17q-22 5 -41 5q-51 0 -74.5 -36t-23.5 -88v-166h223v165q0 77 35.5 110
t84.5 33q26 0 46 -6z" />
    <glyph glyph-name=".notdef" horiz-adv-x="512" 
d="M278 117h-56v67h56v-67zM271 234h-46l-2 17q0 56 13 81q15 28 46 59q31 29 40.5 46t9.5 37q0 36 -22.5 60.5t-53.5 24.5q-71 0 -82 -95l-50 8q7 69 43 103t92 34q54 0 89 -36t35 -95q0 -34 -13 -60t-50 -60q-37 -33 -43 -52q-6 -20 -6 -72zM50 50h412v617h-412v-617z
M0 718h512v-718h-512v718z" />
    <glyph glyph-name=".null" horiz-adv-x="500" 
 />
    <glyph glyph-name=".null" horiz-adv-x="500" 
 />
    <glyph glyph-name="nonmarkingreturn" horiz-adv-x="333" 
 />
    <glyph glyph-name="CR" unicode="&#xd;" horiz-adv-x="0" 
 />
    <glyph glyph-name="space" unicode=" " horiz-adv-x="250" 
 />
    <glyph glyph-name="exclam" unicode="!" horiz-adv-x="276" 
d="M138 45q9 0 16 -7.5t7 -18.5q0 -10 -7 -17.5t-16 -7.5t-16 7.5t-7 17.5q0 12 7 19t16 7zM149 708v-513h-22v513h22z" />
    <glyph glyph-name="quotedbl" unicode="&#x22;" horiz-adv-x="404" 
d="M141 480h-22v228h22v-228zM285 480h-22v228h22v-228z" />
    <glyph glyph-name="numbersign" unicode="#" horiz-adv-x="550" 
d="M492 453h-114l-26 -196h112v-17h-114l-30 -240h-19l30 240h-172l-30 -240h-19l30 240h-111v17h113l27 196h-111v17h113l30 238h19l-31 -238h172l31 238h19l-31 -238h112v-17zM359 453h-171l-26 -196h171z" />
    <glyph glyph-name="dollar" unicode="$" horiz-adv-x="560" 
d="M277 -13v-71h-22v71q-125 5 -200 89l17 15q35 -39 84 -61t99 -24v343q-94 30 -140.5 71t-46.5 120q0 77 51.5 124t135.5 56v72h22v-71q127 0 191 -78l-17 -15q-60 74 -174 74v-338q50 -16 81 -29.5t62.5 -35.5t46 -53t14.5 -73q0 -84 -57.5 -133t-146.5 -53zM277 6
q78 3 130 47.5t52 120.5q0 37 -14.5 65t-43.5 47.5t-56 31.5t-68 25v-337zM255 371v329q-69 -7 -117 -49.5t-48 -111.5q0 -70 44 -106.5t121 -61.5z" />
    <glyph glyph-name="percent" unicode="%" horiz-adv-x="820" 
d="M366 556q0 -67 -46 -112.5t-111 -45.5t-110.5 45.5t-45.5 112.5t45.5 113t110.5 46t111 -46.5t46 -112.5zM344 556q0 58 -39.5 99t-95.5 41t-95 -41t-39 -99q0 -59 39 -99t95 -40t95.5 40t39.5 99zM767 150q0 -67 -46 -112.5t-111 -45.5t-110.5 45.5t-45.5 112.5
t45.5 113t110.5 46t111 -46.5t46 -112.5zM745 150q0 58 -39.5 99t-95.5 41t-95 -41t-39 -99q0 -59 39 -99t95 -40t95.5 40t39.5 99zM635 725l-440 -752l-16 11l440 752z" />
    <glyph glyph-name="ampersand" unicode="&#x26;" horiz-adv-x="704" 
d="M646 0h-29l-116 124q-90 -142 -226 -142q-86 0 -143 54t-57 143q0 72 43 119.5t130 94.5q-54 60 -74 99t-20 82q0 67 44 109.5t111 42.5q63 0 105.5 -40.5t42.5 -99.5q0 -65 -42.5 -106.5t-133.5 -91.5l215 -231l115 212h25l-124 -225zM435 582q0 56 -37 91t-91 35
q-55 0 -93 -37.5t-38 -95.5q0 -44 21.5 -81.5t70.5 -92.5q85 45 126 84t41 97zM486 140l-224 238q-76 -37 -120.5 -84.5t-44.5 -114.5q0 -80 53 -129t130 -49q62 0 116 37t90 102z" />
    <glyph glyph-name="quotesingle" unicode="'" horiz-adv-x="260" 
d="M141 480h-22v228h22v-228z" />
    <glyph glyph-name="parenleft" unicode="(" horiz-adv-x="300" 
d="M74 288q0 119 34 237t95 207l20 -10q-58 -81 -92.5 -202t-34.5 -232t34.5 -232t92.5 -202l-20 -10q-61 89 -95 207t-34 237z" />
    <glyph glyph-name="parenright" unicode=")" horiz-adv-x="300" 
d="M224 288q0 -119 -34 -237t-95 -207l-20 10q58 81 92.5 202t34.5 232t-34.5 232t-92.5 202l20 10q61 -89 95 -207t34 -237z" />
    <glyph glyph-name="asterisk" unicode="*" horiz-adv-x="444" 
d="M231 537l163 52l6 -17l-165 -50l102 -142l-14 -10l-101 143l-101 -143l-14 10l102 142l-165 50l6 17l163 -52v171h18v-171z" />
    <glyph glyph-name="plus" unicode="+" horiz-adv-x="666" 
d="M345 295v-230h-21v230h-224v19h224v230h21v-230h221v-19h-221z" />
    <glyph glyph-name="comma" unicode="," horiz-adv-x="240" 
d="M152 90l-64 -228h-17l57 228h24z" />
    <glyph glyph-name="hyphen" unicode="-" horiz-adv-x="300" 
d="M240 244h-180v20h180v-20z" />
    <glyph glyph-name="period" unicode="." horiz-adv-x="240" 
d="M120 -6q-9 0 -16 7t-7 19q0 10 7 17.5t16 7.5t16 -7.5t7 -17.5q0 -11 -7 -18.5t-16 -7.5z" />
    <glyph glyph-name="slash" unicode="/" horiz-adv-x="370" 
d="M349 722l-307 -737l-19 7l307 737z" />
    <glyph glyph-name="zero" unicode="0" horiz-adv-x="560" 
d="M280 -12q-65 0 -110.5 33t-68 90t-32 116t-9.5 127t9.5 127t32 116t68 90t110.5 33t110.5 -33t68 -90t32 -116t9.5 -127t-9.5 -127t-32 -116t-68 -90t-110.5 -33zM280 700q-43 0 -77 -17.5t-55 -49t-35 -66t-20 -77t-8.5 -73.5t-2.5 -63t2.5 -63t8.5 -73.5t20 -77t35 -66
t55 -49t77 -17.5t77 17.5t55 49t35 66t20 77t8.5 73.5t2.5 63t-2.5 63t-8.5 73.5t-20 77t-35 66t-55 49t-77 17.5z" />
    <glyph glyph-name="one" unicode="1" horiz-adv-x="560" 
d="M312 0h-22v682l-134 -114l-13 17l147 123h22v-708z" />
    <glyph glyph-name="two" unicode="2" horiz-adv-x="560" 
d="M460 0h-397v26l247 290q62 73 92 124t30 101q0 73 -45 116.5t-115 43.5q-59 0 -102.5 -31.5t-61.5 -89.5l-21 7q18 63 68 98t117 35q80 0 131 -49t51 -123q0 -61 -30 -112.5t-106 -141.5l-232 -273h374v-21z" />
    <glyph glyph-name="three" unicode="3" horiz-adv-x="560" 
d="M465 186q0 -84 -51.5 -141t-151.5 -57q-67 0 -120 30.5t-79 82.5l21 9q22 -45 70 -72.5t108 -29.5q85 -2 133 49.5t48 129.5q0 44 -19.5 79t-50 55t-65 30.5t-68.5 10.5h-22v20h22q71 0 124.5 42t53.5 123q0 69 -44 111.5t-112 42.5q-44 0 -84 -19.5t-63 -53.5l-18 12
q57 80 165 80q77 0 127 -47.5t50 -125.5q0 -65 -37.5 -113t-111.5 -60v-2q86 -14 130.5 -65.5t44.5 -120.5z" />
    <glyph glyph-name="four" unicode="4" horiz-adv-x="560" 
d="M514 184h-118v-184h-22v184h-331v27l319 497h34v-504h118v-20zM374 204v480h-3l-308 -480h311z" />
    <glyph glyph-name="five" unicode="5" horiz-adv-x="560" 
d="M476 215q0 -106 -64 -166.5t-151 -60.5q-124 0 -192 94l18 14q60 -88 174 -88q76 0 134.5 55t58.5 152q0 89 -55 146.5t-150 57.5q-64 0 -131 -36l5 325h323v-20h-301l-6 -275q49 25 119 25q100 0 159 -62.5t59 -160.5z" />
    <glyph glyph-name="six" unicode="6" horiz-adv-x="560" 
d="M70 201q0 81 60 185l187 322h26l-213 -360l2 -1q26 32 68 51t88 19q86 0 144 -61.5t58 -154.5q0 -92 -59.5 -152.5t-151.5 -60.5t-150.5 59.5t-58.5 153.5zM92 201q0 -84 53 -139t135 -55t135 55t53 139t-52 140.5t-131 56.5t-136 -57t-57 -140z" />
    <glyph glyph-name="seven" unicode="7" horiz-adv-x="560" 
d="M459 708v-27l-295 -681h-24l300 688h-364v20h383z" />
    <glyph glyph-name="eight" unicode="8" horiz-adv-x="560" 
d="M489 188q0 -90 -59 -145t-150 -55t-150 55t-59 145q0 65 38 118t111 73v2q-60 23 -91 68.5t-31 97.5q0 77 51.5 125t130.5 48t130.5 -48t51.5 -125q0 -52 -31.5 -98.5t-90.5 -67.5v-2q75 -23 112 -74.5t37 -116.5zM441 547q0 68 -46 111t-115 43t-115 -43t-46 -111
q0 -65 46 -112t115 -47t115 47t46 112zM467 188q0 79 -54.5 131t-132.5 52t-132.5 -52t-54.5 -131q0 -78 52 -129.5t135 -51.5t135 51.5t52 129.5z" />
    <glyph glyph-name="nine" unicode="9" horiz-adv-x="560" 
d="M490 509q0 -75 -60 -181l-188 -328h-26l214 366l-2 1q-26 -32 -68 -51t-88 -19q-86 0 -144 60t-58 152t59.5 151.5t151.5 59.5t150.5 -58.5t58.5 -152.5zM468 509q0 84 -53 138t-135 54t-135 -54t-53 -138t51.5 -138.5t131.5 -54.5q79 0 136 55t57 138z" />
    <glyph glyph-name="colon" unicode=":" horiz-adv-x="280" 
d="M140 409q-9 0 -16 7t-7 19q0 10 7 17.5t16 7.5t16 -7.5t7 -17.5q0 -11 -7 -18.5t-16 -7.5zM140 -6q-9 0 -16 7t-7 19q0 10 7 17.5t16 7.5t16 -7.5t7 -17.5q0 -11 -7 -18.5t-16 -7.5z" />
    <glyph glyph-name="semicolon" unicode=";" horiz-adv-x="280" 
d="M140 409q-9 0 -16 7t-7 19q0 10 7 17.5t16 7.5t16 -7.5t7 -17.5q0 -11 -7 -18.5t-16 -7.5zM162 90l-64 -228h-17l57 228h24z" />
    <glyph glyph-name="less" unicode="&#x3c;" horiz-adv-x="666" 
d="M566 67l-466 224v24l466 224v-20l-454 -216l454 -216v-20z" />
    <glyph glyph-name="equal" unicode="=" horiz-adv-x="666" 
d="M566 380h-466v19h466v-19zM566 209h-466v19h466v-19z" />
    <glyph glyph-name="greater" unicode="&#x3e;" horiz-adv-x="666" 
d="M100 67v20l454 216l-454 216v20l466 -224v-24z" />
    <glyph glyph-name="question" unicode="?" horiz-adv-x="472" 
d="M241 45q9 0 16 -7.5t7 -18.5q0 -10 -7 -17.5t-16 -7.5t-16 7.5t-7 17.5q0 12 7 19t16 7zM250 244v-44h-22v53q0 82 69 137l34 30q24 23 36.5 37.5t23 40.5t10.5 58q0 70 -45.5 109.5t-115.5 39.5q-67 0 -111 -39.5t-55 -104.5l-21 4q13 77 64 119t125 42
q78 0 129.5 -44.5t51.5 -124.5q0 -39 -14.5 -71.5t-30 -48.5t-45.5 -42q-51 -42 -67 -71.5t-16 -79.5z" />
    <glyph glyph-name="at" unicode="@" horiz-adv-x="800" 
d="M760 415q0 -112 -52 -183.5t-143 -71.5q-40 0 -63.5 22.5t-17.5 66.5h-2q-20 -36 -54.5 -62.5t-80.5 -26.5q-56 0 -85 37t-29 90q0 96 57 181t142 85q45 0 72 -24.5t32 -66.5h4l20 73h21l-68 -237q-10 -38 -10 -60q0 -58 62 -58q86 0 130 68.5t44 166.5
q0 126 -92.5 209.5t-230.5 83.5q-148 0 -247.5 -105.5t-99.5 -247.5q0 -149 99 -252t253 -103q83 0 157 36.5t125 96.5l15 -13q-119 -140 -297 -140q-166 0 -270 108t-104 267q0 156 107 264.5t262 108.5q149 0 246.5 -89t97.5 -224zM523 432q0 44 -23 72.5t-68 28.5
q-53 0 -95 -40.5t-62 -96.5t-20 -110q0 -47 25 -76.5t72 -29.5q52 0 93.5 49.5t59.5 105.5t18 97z" />
    <glyph glyph-name="A" unicode="A" horiz-adv-x="666" 
d="M648 0h-24l-84 203h-411l-87 -203h-24l307 708h28zM533 222l-195 472l-201 -472h396z" />
    <glyph glyph-name="B" unicode="B" horiz-adv-x="612" 
d="M551 189q0 -54 -21 -93t-56 -58.5t-72.5 -28.5t-78.5 -9h-217v708h193q43 0 80 -8t69.5 -26.5t51 -52t18.5 -80.5q0 -70 -41 -110.5t-103 -54.5v-2q66 -6 121.5 -53t55.5 -132zM496 538q0 80 -56.5 115t-146.5 35h-165v-305h170q81 0 139.5 39.5t58.5 115.5zM529 186
q0 61 -33.5 102.5t-78 58t-93.5 16.5h-196v-343h185q98 0 157 41t59 125z" />
    <glyph glyph-name="C" unicode="C" horiz-adv-x="724" 
d="M686 87q-43 -52 -111 -79.5t-142 -27.5q-159 0 -260 105.5t-101 268.5t101.5 268.5t259.5 105.5q148 0 235 -91l-14 -16q-40 43 -100.5 65t-120.5 22q-149 0 -244 -102t-95 -252t94 -252t245 -102q68 0 132.5 26.5t104.5 75.5z" />
    <glyph glyph-name="D" unicode="D" horiz-adv-x="770" 
d="M698 354q0 -89 -30 -158t-83.5 -111t-123.5 -63.5t-154 -21.5h-201v708h201q175 0 283 -89t108 -265zM302 688h-173v-668h173q167 0 270 83.5t103 250.5q0 168 -103 251t-270 83z" />
    <glyph glyph-name="E" unicode="E" horiz-adv-x="590" 
d="M534 0h-428v708h412v-20h-391v-311h368v-20h-368v-337h407v-20z" />
    <glyph glyph-name="F" unicode="F" horiz-adv-x="560" 
d="M510 688h-382v-311h355v-20h-355v-357h-22v708h404v-20z" />
    <glyph glyph-name="G" unicode="G" horiz-adv-x="795" 
d="M699 41q-108 -61 -254 -61q-166 0 -269.5 107t-103.5 269t103.5 267t265.5 105q140 0 238 -82l-16 -16q-39 37 -100.5 57.5t-122.5 20.5q-154 0 -250 -101.5t-96 -250.5q0 -152 95.5 -254t257.5 -102q125 0 231 53v278h-184v19h205v-309z" />
    <glyph glyph-name="H" unicode="H" horiz-adv-x="732" 
d="M626 0h-22v356h-476v-356h-22v708h22v-332h476v332h22v-708z" />
    <glyph glyph-name="I" unicode="I" horiz-adv-x="234" 
d="M128 0h-22v708h22v-708z" />
    <glyph glyph-name="J" unicode="J" horiz-adv-x="480" 
d="M378 193q0 -99 -46.5 -155t-134.5 -56q-60 0 -105 31.5t-63 79.5l19 9q20 -46 59.5 -73t89.5 -27q82 0 120.5 52.5t38.5 141.5v512h22v-515z" />
    <glyph glyph-name="K" unicode="K" horiz-adv-x="565" 
d="M128 383h1l356 325h32l-360 -325l378 -383h-31l-375 381h-1v-381h-22v708h22v-325z" />
    <glyph glyph-name="L" unicode="L" horiz-adv-x="498" 
d="M480 0h-374v708h22v-688h352v-20z" />
    <glyph glyph-name="M" unicode="M" horiz-adv-x="906" 
d="M800 0h-22v683h-4l-313 -683h-18l-312 683h-3v-683h-22v708h39l308 -676l308 676h39v-708z" />
    <glyph glyph-name="N" unicode="N" horiz-adv-x="777" 
d="M671 0h-32l-508 680h-3v-680h-22v708h31l509 -679h3v679h22v-708z" />
    <glyph glyph-name="O" unicode="O" horiz-adv-x="872" 
d="M800 354q0 -163 -103.5 -268.5t-260.5 -105.5t-260.5 105.5t-103.5 268.5t103 268.5t261 105.5t261 -105.5t103 -268.5zM778 354q0 150 -96.5 252t-245.5 102t-245.5 -102t-96.5 -252t96 -252t246 -102q151 0 246.5 102t95.5 252z" />
    <glyph glyph-name="P" unicode="P" horiz-adv-x="572" 
d="M517 532q0 -87 -59 -135.5t-147 -48.5h-183v-348h-22v708h192q41 0 77.5 -9t69.5 -28t52.5 -54.5t19.5 -84.5zM495 532q0 56 -30 93t-70 50.5t-88 13.5h-179v-322h184q75 0 129 41.5t54 123.5z" />
    <glyph glyph-name="Q" unicode="Q" horiz-adv-x="883" 
d="M800 361q0 -119 -72.5 -218t-177.5 -121v-2h288v-20h-404q-152 0 -257 100.5t-105 260.5t103 263.5t261 103.5q157 0 260.5 -104.5t103.5 -262.5zM778 361q0 145 -97 246t-245 101q-149 0 -245.5 -100t-96.5 -247q0 -144 97 -242.5t246 -98.5q150 0 245.5 102t95.5 239z
" />
    <glyph glyph-name="R" unicode="R" horiz-adv-x="594" 
d="M533 0h-25l-214 357h-166v-357h-22v708h196q43 0 79.5 -7.5t70.5 -26t53 -54.5t19 -87q0 -47 -18.5 -82.5t-50 -54.5t-66 -28.5t-71.5 -9.5zM502 533q0 156 -212 156h-162v-313h173q97 0 149 41t52 116z" />
    <glyph glyph-name="S" unicode="S" horiz-adv-x="570" 
d="M498 170q0 -88 -62 -139t-153 -51q-132 0 -211 87l17 15q77 -82 193 -82q82 0 138 46t56 124q0 39 -15.5 68.5t-47 49.5t-58.5 31.5t-71 25.5q-101 32 -150 73.5t-49 124.5q0 85 63 135t155 50q118 0 182 -79l-17 -15q-58 74 -166 74q-78 0 -136.5 -43.5t-58.5 -121.5
q0 -39 14 -69t42.5 -50t54 -31.5t65.5 -24.5q43 -14 69.5 -24t57.5 -27.5t48 -36t28.5 -47t11.5 -63.5z" />
    <glyph glyph-name="T" unicode="T" horiz-adv-x="540" 
d="M522 688h-241v-688h-22v688h-241v20h504v-20z" />
    <glyph glyph-name="U" unicode="U" horiz-adv-x="732" 
d="M636 268q0 -131 -64.5 -209.5t-205.5 -78.5t-205.5 78.5t-64.5 209.5v440h22v-436q0 -38 5 -71.5t21 -72t42 -65.5t72 -45t108 -18q60 0 106 17.5t72.5 44.5t42.5 64.5t21.5 72t5.5 73.5v436h22v-440z" />
    <glyph glyph-name="V" unicode="V" horiz-adv-x="606" 
d="M588 708l-270 -708h-34l-266 708h24l258 -688h2l262 688h24z" />
    <glyph glyph-name="W" unicode="W" horiz-adv-x="956" 
d="M928 708l-212 -708h-34l-205 687h-2l-201 -687h-34l-212 708h23l204 -688h3l201 688h34l205 -688h3l204 688h23z" />
    <glyph glyph-name="X" unicode="X" horiz-adv-x="590" 
d="M558 0h-27l-236 354l-237 -354h-26l250 371l-226 337h26l213 -320l213 320h25l-225 -337z" />
    <glyph glyph-name="Y" unicode="Y" horiz-adv-x="538" 
d="M523 708l-243 -398v-310h-22v310l-243 398h26l229 -376l228 376h25z" />
    <glyph glyph-name="Z" unicode="Z" horiz-adv-x="594" 
d="M552 0h-498v27l466 661h-453v20h473v-29l-465 -659h477v-20z" />
    <glyph glyph-name="bracketleft" unicode="[" horiz-adv-x="300" 
d="M220 -156h-140v888h140v-19h-118v-850h118v-19z" />
    <glyph glyph-name="backslash" unicode="\" horiz-adv-x="370" 
d="M23 722l19 7l307 -737l-19 -7z" />
    <glyph glyph-name="bracketright" unicode="]" horiz-adv-x="300" 
d="M80 -156v19h118v850h-118v19h140v-888h-140z" />
    <glyph glyph-name="asciicircum" unicode="^" horiz-adv-x="666" 
d="M97 242l224 466h24l224 -466h-20l-216 454l-216 -454h-20z" />
    <glyph glyph-name="underscore" unicode="_" horiz-adv-x="500" 
d="M500 -114h-500v20h500v-20z" />
    <glyph glyph-name="grave" unicode="`" horiz-adv-x="240" 
d="M20 708h27l103 -144h-19z" />
    <glyph glyph-name="a" unicode="a" horiz-adv-x="512" 
d="M418 104q0 -54 8 -104h-21q-8 52 -8 110h-3q-19 -60 -67 -92t-107 -32q-62 0 -108 34t-46 98q0 47 24.5 79t65.5 47t79 20.5t81 5.5h80v37q0 74 -39.5 111t-108.5 37q-78 0 -140 -55l-12 17q65 57 152 57q81 0 125.5 -42t44.5 -126v-202zM396 207v44h-71
q-237 0 -237 -133q0 -57 40.5 -85t91.5 -28q49 0 85 18.5t55 49.5t27.5 64t8.5 70z" />
    <glyph glyph-name="b" unicode="b" horiz-adv-x="626" 
d="M127 335q29 67 84.5 103t122.5 36q102 0 166 -69t64 -176q0 -105 -65 -174t-165 -69q-68 0 -125 36.5t-82 101.5h-3v-124h-22v756h22v-421h3zM542 229q0 94 -57.5 160t-150.5 66q-90 0 -150.5 -66t-60.5 -159t60.5 -159t150.5 -66q93 0 150.5 65t57.5 159z" />
    <glyph glyph-name="c" unicode="c" horiz-adv-x="480" 
d="M447 413l-17 -15q-55 57 -134 57q-95 0 -153.5 -66t-58.5 -160t58.5 -159t153.5 -65q83 0 138 52l15 -14q-57 -57 -153 -57q-102 0 -168 68.5t-66 174.5t66.5 175.5t167.5 69.5q92 0 151 -61z" />
    <glyph glyph-name="d" unicode="d" horiz-adv-x="626" 
d="M502 335v421h22v-756h-22v124h-3q-29 -66 -84.5 -102t-122.5 -36q-100 0 -165 69t-65 174t65 175t165 70q67 0 122.5 -36t84.5 -103h3zM84 229q0 -94 57.5 -159t150.5 -65q90 0 150.5 66t60.5 159t-60.5 159t-150.5 66q-93 0 -150.5 -66t-57.5 -160z" />
    <glyph glyph-name="e" unicode="e" horiz-adv-x="556" 
d="M494 235h-410q0 -92 54 -160.5t153 -68.5q105 0 169 84l16 -14q-70 -90 -185 -90q-102 0 -165.5 70t-63.5 179q0 104 63 171.5t156 67.5q102 0 157.5 -65.5t55.5 -154.5v-19zM473 254q-2 90 -55 145.5t-138 55.5q-49 0 -88.5 -21.5t-61.5 -53.5t-33.5 -65t-11.5 -61h388z
" />
    <glyph glyph-name="f" unicode="f" horiz-adv-x="282" 
d="M286 762l-4 -17q-22 5 -41 5q-51 0 -74.5 -36t-23.5 -88v-166h125v-19h-125v-441h-22v441h-97v19h96v165q0 77 35.5 110t84.5 33q26 0 46 -6z" />
    <glyph glyph-name="g" unicode="g" horiz-adv-x="626" 
d="M502 28v96h-3q-25 -65 -82 -101.5t-125 -36.5q-100 0 -165 69t-65 174t65 175t165 70q67 0 122.5 -36t84.5 -103h3v125h22v-434q0 -57 -12 -105t-37.5 -87.5t-70.5 -61.5t-107 -22q-127 0 -203 86l15 15q72 -82 188 -82q58 0 99.5 21t63.5 59t32 82t10 97zM84 229
q0 -94 57.5 -159.5t150.5 -65.5q90 0 150.5 66.5t60.5 159.5t-60.5 159t-150.5 66q-93 0 -150.5 -66t-57.5 -160z" />
    <glyph glyph-name="h" unicode="h" horiz-adv-x="569" 
d="M124 339h2q20 63 70 99t111 36q88 0 127 -56.5t39 -139.5v-278h-22v276q0 32 -6.5 60.5t-21.5 56.5t-45 45t-71 17q-78 0 -130.5 -61t-52.5 -164v-230h-22v756h22v-417z" />
    <glyph glyph-name="i" unicode="i" horiz-adv-x="226" 
d="M113 633q-9 0 -16 7t-7 19q0 10 7 17.5t16 7.5t16 -7.5t7 -17.5q0 -11 -7 -18.5t-16 -7.5zM124 0h-22v460h22v-460z" />
    <glyph glyph-name="j" unicode="j" horiz-adv-x="226" 
d="M124 -97q0 -75 -23.5 -109.5t-88.5 -34.5q-17 0 -29 3l4 19q14 -3 25 -3q30 0 49.5 10t27.5 30t10.5 38t2.5 45v559h22v-557zM113 633q-9 0 -16 7t-7 19q0 10 7 17.5t16 7.5t16 -7.5t7 -17.5q0 -11 -7 -18.5t-16 -7.5z" />
    <glyph glyph-name="k" unicode="k" horiz-adv-x="445" 
d="M124 248h1l238 212h31l-243 -213l271 -247h-33l-264 243h-1v-243h-22v756h22v-508z" />
    <glyph glyph-name="l" unicode="l" horiz-adv-x="226" 
d="M124 0h-22v756h22v-756z" />
    <glyph glyph-name="m" unicode="m" horiz-adv-x="889" 
d="M452 333h2q19 66 67 103.5t110 37.5q59 0 96.5 -30t51.5 -72t14 -94v-278h-22v276q0 70 -33 124.5t-107 54.5t-124 -61t-50 -164v-230h-22v276q0 32 -6 60.5t-20 57t-42 45t-67 16.5q-74 0 -123.5 -61t-49.5 -164v-230h-22v344q0 73 -5 116h22q4 -52 4 -121h2
q20 63 67.5 99t104.5 36q127 0 152 -141z" />
    <glyph glyph-name="n" unicode="n" horiz-adv-x="572" 
d="M128 339q21 63 71 99t111 36q88 0 127 -56.5t39 -139.5v-278h-22v276q0 32 -6.5 60.5t-21.5 56.5t-45 45t-71 17q-78 0 -130.5 -61t-52.5 -164v-230h-22v344q0 73 -5 116h22q4 -52 4 -121h2z" />
    <glyph glyph-name="o" unicode="o" horiz-adv-x="605" 
d="M543 231q0 -107 -67.5 -176t-173.5 -69t-173 69t-67 176t67 175t173 68t173.5 -68t67.5 -175zM521 231q0 96 -60 160t-159 64t-158.5 -64t-59.5 -160t59.5 -161t158.5 -65t159 65t60 161z" />
    <glyph glyph-name="p" unicode="p" horiz-adv-x="626" 
d="M124 335h3q29 67 84.5 103t122.5 36q102 0 166 -69t64 -176q0 -105 -65 -174t-165 -69q-68 0 -125 36.5t-82 101.5h-3v-364h-22v700h22v-125zM542 229q0 94 -57.5 160t-150.5 66q-90 0 -150.5 -66t-60.5 -159t60.5 -159t150.5 -66q93 0 150.5 65t57.5 159z" />
    <glyph glyph-name="q" unicode="q" horiz-adv-x="626" 
d="M502 335v125h22v-700h-22v364h-3q-25 -65 -82 -101.5t-125 -36.5q-100 0 -165 69t-65 174q0 107 64 176t166 69q67 0 122.5 -36t84.5 -103h3zM84 229q0 -94 57.5 -159t150.5 -65q90 0 150.5 66t60.5 159t-60.5 159t-150.5 66q-93 0 -150.5 -66t-57.5 -160z" />
    <glyph glyph-name="r" unicode="r" horiz-adv-x="317" 
d="M128 339q19 68 62 101.5t97 33.5q12 0 18 -1v-19q-5 1 -13 1q-55 0 -93.5 -34t-55 -81.5t-16.5 -101.5v-238h-22v344q0 73 -5 116h22q4 -52 4 -121h2z" />
    <glyph glyph-name="s" unicode="s" horiz-adv-x="415" 
d="M361 120q0 -60 -43 -96t-107 -36q-106 0 -161 77l18 12q50 -70 144 -70q49 0 88 30t39 81q0 14 -2.5 26t-9.5 21.5t-12.5 17t-17.5 14t-19 10.5t-22.5 9t-21.5 7t-23 6.5t-21 5.5q-60 16 -90.5 41t-30.5 80q0 56 42 87t99 31q94 0 141 -67l-19 -11q-44 59 -122 59
q-45 0 -82 -24t-37 -74q0 -28 8 -46t27.5 -30t36 -17.5t50.5 -14.5q5 -1 8 -2q32 -8 53.5 -16.5t43 -23t32.5 -36.5t11 -51z" />
    <glyph glyph-name="t" unicode="t" horiz-adv-x="304" 
d="M280 -1q-29 -11 -59 -11q-51 0 -76 29t-25 78v346h-100v19h99v135h23v-135h135v-19h-135v-346q0 -88 84 -88q28 0 51 9z" />
    <glyph glyph-name="u" unicode="u" horiz-adv-x="572" 
d="M442 121q-21 -63 -71 -99t-111 -36q-88 0 -127 56.5t-39 139.5v278h22v-276q0 -32 6.5 -60.5t21.5 -56.5t45 -45t71 -17q78 0 130.5 61t52.5 164v230h22v-344q0 -73 5 -116h-22q-4 52 -4 121h-2z" />
    <glyph glyph-name="v" unicode="v" horiz-adv-x="434" 
d="M410 460l-176 -460h-29l-181 460h24l171 -438h2l165 438h24z" />
    <glyph glyph-name="w" unicode="w" horiz-adv-x="698" 
d="M664 460l-135 -460h-30l-150 436h-2l-149 -436h-30l-134 460h23l126 -438h2l148 438h31l149 -438h2l126 438h23z" />
    <glyph glyph-name="x" unicode="x" horiz-adv-x="452" 
d="M395 0l-171 228l-168 -228h-28l182 243l-159 217h28l146 -202l145 202h29l-160 -217l185 -243h-29z" />
    <glyph glyph-name="y" unicode="y" horiz-adv-x="428" 
d="M404 460l-228 -612q-33 -90 -111 -90q-23 0 -41 7l6 19q16 -6 37 -6q63 0 95 89l44 120l-182 473h24l169 -448l163 448h24z" />
    <glyph glyph-name="z" unicode="z" horiz-adv-x="438" 
d="M387 0h-338v21l304 420h-288v19h310v-22l-301 -419h313v-19z" />
    <glyph glyph-name="braceleft" unicode="{" horiz-adv-x="300" 
d="M0 279v18q37 0 57 25t20 90v195q0 125 106 125h47v-19h-47q-84 0 -84 -106v-196q0 -110 -67 -122v-2q67 -12 67 -122v-196q0 -106 84 -106h47v-19h-47q-106 0 -106 125v195q0 65 -20 90t-57 25z" />
    <glyph glyph-name="bar" unicode="|" horiz-adv-x="222" 
d="M100 750h22v-1000h-22v1000z" />
    <glyph glyph-name="braceright" unicode="}" horiz-adv-x="300" 
d="M300 279q-37 0 -57 -25t-20 -90v-195q0 -125 -106 -125h-47v19h47q84 0 84 106v196q0 110 67 122v2q-67 12 -67 122v196q0 106 -84 106h-47v19h47q106 0 106 -125v-195q0 -65 20 -90t57 -25v-18z" />
    <glyph glyph-name="asciitilde" unicode="~" horiz-adv-x="666" 
d="M93 264q55 93 132 93q50 0 100 -35q72 -50 119 -50q63 0 116 85l15 -16q-58 -90 -131 -90q-31 0 -52 8t-49 27q-47 31 -68 40.5t-48 9.5q-70 0 -117 -86z" />
    <glyph glyph-name="uni00A0" unicode="&#xa0;" horiz-adv-x="250" 
 />
    <glyph glyph-name="exclamdown" unicode="&#xa1;" horiz-adv-x="276" 
d="M138 441q-9 0 -16 7t-7 19q0 10 7 17.5t16 7.5t16 -7.5t7 -17.5q0 -11 -7 -18.5t-16 -7.5zM149 -222h-22v513h22v-513z" />
    <glyph glyph-name="cent" unicode="&#xa2;" horiz-adv-x="560" 
d="M323 454v-448q80 2 133 52l15 -14q-55 -55 -148 -57v-59h-22v59q-95 5 -156 72.5t-61 169.5q0 101 61 169.5t156 74.5v67h22v-67q88 -2 146 -61l-17 -15q-54 55 -129 57zM301 454q-88 -6 -141.5 -70.5t-53.5 -154.5q0 -89 53.5 -153t141.5 -70v448z" />
    <glyph glyph-name="sterling" unicode="&#xa3;" horiz-adv-x="560" 
d="M207 379h170v-19h-170v-340h256v-20h-387v20h109v340h-98v19h98v136q0 99 46.5 155t134.5 56q69 0 119 -43l-14 -16q-45 39 -105 39q-82 0 -120.5 -52.5t-38.5 -141.5v-133z" />
    <glyph glyph-name="currency" unicode="&#xa4;" horiz-adv-x="800" 
d="M565 124q-67 -59 -164 -59q-98 0 -164 61l-97 -96l-15 16l96 96q-60 66 -60 168q0 96 56 163l-92 91l16 16l91 -91q67 64 169 64t168 -63l90 90l16 -16l-90 -90q57 -66 57 -164q0 -101 -61 -170l94 -94l-15 -16zM620 310q0 96 -60 160t-159 64t-158.5 -64t-59.5 -160
t59.5 -161t158.5 -65t159 65t60 161z" />
    <glyph glyph-name="yen" unicode="&#xa5;" horiz-adv-x="560" 
d="M269 354h-190v19h182l-235 335h26l229 -331l228 331h25l-233 -335h180v-19h-190v-131h190v-19h-190v-204h-22v204h-190v19h190v131z" />
    <glyph glyph-name="brokenbar" unicode="&#xa6;" horiz-adv-x="222" 
d="M120 344h-17v331h17v-331zM120 -175h-17v331h17v-331z" />
    <glyph glyph-name="section" unicode="&#xa7;" horiz-adv-x="560" 
d="M317 147q109 -45 109 -132q0 -69 -50 -109t-124 -40q-101 0 -166 68l17 17q56 -65 151 -65q64 0 107 33.5t43 93.5q0 26 -10 47t-31 36.5t-41.5 26t-52.5 23.5l-37 15q-73 30 -103.5 60t-30.5 88q0 57 40 92.5t91 45.5q-55 25 -79.5 52.5t-24.5 81.5q0 68 49 107.5
t123 39.5q102 0 148 -63l-17 -15q-38 59 -134 59q-60 0 -104 -34.5t-44 -96.5q0 -23 8 -42t17 -30t31 -24t33.5 -17.5t40.5 -16.5l32 -13q76 -31 110.5 -63.5t34.5 -84.5q0 -60 -39.5 -96t-96.5 -44zM292 159q58 4 98.5 36t40.5 90q0 50 -35 79.5t-101 54.5l-41 16
q-54 -8 -94 -40t-40 -89q0 -28 10 -49.5t31 -36.5t39 -24t48 -20z" />
    <glyph glyph-name="dieresis" unicode="&#xa8;" horiz-adv-x="240" 
d="M43 633q-9 0 -16 7t-7 19q0 10 7 17.5t16 7.5t16 -7.5t7 -17.5q0 -11 -7 -18.5t-16 -7.5zM197 633q-9 0 -16 7t-7 19q0 10 7 17.5t16 7.5t16 -7.5t7 -17.5q0 -11 -7 -18.5t-16 -7.5z" />
    <glyph glyph-name="copyright" unicode="&#xa9;" horiz-adv-x="800" 
d="M20 353q0 157 111.5 267t269.5 110q157 0 268 -110t111 -267q0 -156 -111 -265.5t-268 -109.5q-158 0 -269.5 109.5t-111.5 265.5zM42 353q0 -147 105.5 -250t253.5 -103q147 0 252 103t105 250t-105 251t-252 104q-148 0 -253.5 -104t-105.5 -251zM555 520l-17 -15
q-50 53 -121 53q-86 0 -140 -60.5t-54 -146.5t54 -145.5t140 -59.5q75 0 125 48l15 -14q-54 -54 -140 -54q-94 0 -155 63.5t-61 161.5t61 162t155 64q83 0 138 -57z" />
    <glyph glyph-name="ordfeminine" unicode="&#xaa;" 
d="M266 604v11q0 87 -89 87q-61 0 -100 -39l-11 17q40 40 111 40q50 0 79.5 -26t29.5 -76v-124q0 -36 5 -63h-20q-5 23 -5 64h-1q-17 -35 -49.5 -53t-68.5 -18q-38 0 -68 21t-30 64q0 31 17.5 51t51.5 29t67 12t81 3zM266 586h-15q-88 0 -135 -15.5t-47 -61.5
q0 -34 24.5 -50t59.5 -16q52 0 82.5 33.5t30.5 82.5v27z" />
    <glyph glyph-name="guillemotleft" unicode="&#xab;" horiz-adv-x="481" 
d="M387 52l-16 -12l-123 197l122 196l16 -11l-113 -185zM221 52l-16 -12l-123 197l122 196l16 -11l-113 -185z" />
    <glyph glyph-name="logicalnot" unicode="&#xac;" horiz-adv-x="666" 
d="M573 134h-22v246h-457v19h479v-265z" />
    <glyph glyph-name="uni00AD" unicode="&#xad;" horiz-adv-x="300" 
d="M240 244h-180v20h180v-20z" />
    <glyph glyph-name="registered" unicode="&#xae;" horiz-adv-x="600" 
d="M400 371h-26l-74 110h-55v-110h-21v251h84q39 0 60.5 -18t21.5 -52q0 -31 -20 -48.5t-47 -19.5zM369 553q0 50 -61 50h-63v-105h48q76 0 76 55zM72 494q0 94 67 160t162 66q94 0 160.5 -66t66.5 -160t-66.5 -159.5t-160.5 -65.5q-95 0 -162 65.5t-67 159.5zM93 494
q0 -84 61.5 -145t146.5 -61t145.5 61t60.5 145q0 85 -60.5 145.5t-145.5 60.5q-86 0 -147 -60.5t-61 -145.5z" />
    <glyph glyph-name="macron" unicode="&#xaf;" horiz-adv-x="240" 
d="M236 621h-232v20h232v-20z" />
    <glyph glyph-name="degree" unicode="&#xb0;" horiz-adv-x="400" 
d="M345 571q0 -60 -42.5 -102.5t-102.5 -42.5t-102.5 42.5t-42.5 102.5t42.5 102.5t102.5 42.5t102.5 -42.5t42.5 -102.5zM325 571q0 52 -36.5 88.5t-88.5 36.5t-88.5 -36.5t-36.5 -88.5t36.5 -88.5t88.5 -36.5t88.5 36.5t36.5 88.5z" />
    <glyph glyph-name="plusminus" unicode="&#xb1;" horiz-adv-x="666" 
d="M573 342h-231v-192h-22v192h-226v20h225v196h22v-196h232v-20zM569 48h-471v20h471v-20z" />
    <glyph glyph-name="twosuperior" unicode="&#xb2;" 
d="M71 471h227v-18h-249v20l154 169q44 48 59 76t15 56q0 44 -26.5 68t-69.5 24q-78 0 -99 -75l-19 6q11 44 43 65.5t75 21.5q55 0 85.5 -30t30.5 -75q0 -38 -16 -67t-69 -86z" />
    <glyph glyph-name="threesuperior" unicode="&#xb3;" 
d="M285 562q0 -56 -34.5 -88t-90.5 -32q-87 0 -121 70l18 7q30 -59 103 -59q48 0 76.5 27t28.5 76q0 48 -36 75t-85 27h-17v18h16q51 0 79 27.5t28 67.5q0 42 -26 65.5t-64 23.5q-57 0 -85 -43l-15 11q36 49 100 49q52 0 81 -29t29 -77q0 -43 -25.5 -70.5t-67.5 -32.5v-2
q50 -5 79 -35t29 -76z" />
    <glyph glyph-name="acute" unicode="&#xb4;" horiz-adv-x="240" 
d="M220 708l-111 -144h-19l103 144h27z" />
    <glyph glyph-name="mu" unicode="&#xb5;" horiz-adv-x="591" 
d="M102 460h22v-276q0 -32 6.5 -60.5t21.5 -56.5t45 -45t71 -17q78 0 130.5 61.5t52.5 163.5v230h22v-382q0 -43 11.5 -57t38.5 -14q13 0 25 3l3 -17q-12 -5 -29 -5q-25 0 -40 7.5t-21.5 23t-8 28t-1.5 34.5v40h-1q-22 -63 -71.5 -99t-110.5 -36q-105 0 -142 82h-2v-308h-22
v700z" />
    <glyph glyph-name="paragraph" unicode="&#xb6;" horiz-adv-x="600" 
d="M489 -126h-22v817h-155v-817h-22v467q-96 0 -155 51.5t-59 126.5q0 92 58 140.5t164 48.5h191v-834z" />
    <glyph glyph-name="periodcentered" unicode="&#xb7;" horiz-adv-x="240" 
d="M120 229q-9 0 -16 7t-7 19q0 10 7 17.5t16 7.5t16 -7.5t7 -17.5q0 -11 -7 -18.5t-16 -7.5z" />
    <glyph glyph-name="cedilla" unicode="&#xb8;" horiz-adv-x="240" 
d="M219 -146q0 -43 -35 -61.5t-77 -18.5q-45 0 -90 20l5 17q35 -18 86 -18q90 0 90 61q0 51 -72 51q-42 0 -69 -15l-10 9l69 101h21l-59 -86q25 8 54 8q35 0 61 -16t26 -52z" />
    <glyph glyph-name="onesuperior" unicode="&#xb9;" 
d="M196 453h-21v398l-96 -64l-12 16l109 70h20v-420z" />
    <glyph glyph-name="ordmasculine" unicode="&#xba;" 
d="M317 573q0 -65 -39.5 -107t-102.5 -42t-102.5 42t-39.5 107t39.5 106.5t102.5 41.5t102.5 -41.5t39.5 -106.5zM53 573q0 -56 33 -94t89 -38t89 37.5t33 94.5q0 56 -33 93t-89 37t-89 -37t-33 -93z" />
    <glyph glyph-name="guillemotright" unicode="&#xbb;" horiz-adv-x="481" 
d="M399 237l-122 -196l-16 11l113 185l-114 185l16 12zM233 237l-122 -196l-16 11l113 185l-114 185l16 12z" />
    <glyph glyph-name="onequarter" unicode="&#xbc;" horiz-adv-x="800" 
d="M612 725l-440 -752l-16 11l440 752zM190 288h-21v398l-96 -64l-12 16l109 70h20v-420zM651 107h-194v22l183 291h31v-295h67v-18h-67v-107h-20v107zM476 125h175v272h-3z" />
    <glyph glyph-name="onehalf" unicode="&#xbd;" horiz-adv-x="800" 
d="M612 725l-440 -752l-16 11l440 752zM190 288h-21v398l-96 -64l-12 16l109 70h20v-420zM500 18h227v-18h-249v20l154 169q44 48 59 76t15 56q0 44 -26.5 68t-69.5 24q-78 0 -99 -75l-19 6q11 44 43 65.5t75 21.5q55 0 85.5 -30t30.5 -75q0 -38 -16 -67t-69 -86z" />
    <glyph glyph-name="threequarters" unicode="&#xbe;" horiz-adv-x="800" 
d="M612 725l-440 -752l-16 11l440 752zM285 398q0 -56 -34.5 -88t-90.5 -32q-87 0 -121 70l18 7q30 -59 103 -59q48 0 76.5 27t28.5 76q0 48 -36 75t-85 27h-17v18h16q51 0 79 27.5t28 67.5q0 42 -26 65.5t-64 23.5q-57 0 -85 -43l-15 11q36 49 100 49q52 0 81 -29t29 -77
q0 -43 -25.5 -70.5t-67.5 -32.5v-2q50 -5 79 -35t29 -76zM651 107h-194v22l183 291h31v-295h67v-18h-67v-107h-20v107zM476 125h175v272h-3z" />
    <glyph glyph-name="questiondown" unicode="&#xbf;" horiz-adv-x="472" 
d="M230 441q-9 0 -16 7.5t-7 18.5q0 10 7 17.5t16 7.5t16 -7.5t7 -17.5q0 -12 -7 -19t-16 -7zM221 242v44h22v-53q0 -82 -69 -137l-34 -30q-24 -23 -36.5 -37.5t-23 -40.5t-10.5 -58q0 -70 45.5 -109.5t115.5 -39.5q67 0 111 39.5t55 104.5l21 -4q-13 -77 -64 -119t-125 -42
q-78 0 -129.5 44.5t-51.5 124.5q0 39 14.5 71.5t30 48.5t45.5 42q51 42 67 71.5t16 79.5z" />
    <glyph glyph-name="Agrave" unicode="&#xc0;" horiz-adv-x="666" 
d="M648 0h-24l-84 203h-411l-87 -203h-24l307 708h28zM533 222l-195 472l-201 -472h396zM221 908h27l103 -144h-19z" />
    <glyph glyph-name="Aacute" unicode="&#xc1;" horiz-adv-x="666" 
d="M648 0h-24l-84 203h-411l-87 -203h-24l307 708h28zM533 222l-195 472l-201 -472h396zM455 908l-111 -144h-19l103 144h27z" />
    <glyph glyph-name="Acircumflex" unicode="&#xc2;" horiz-adv-x="666" 
d="M648 0h-24l-84 203h-411l-87 -203h-24l307 708h28zM533 222l-195 472l-201 -472h396zM324 908h28l103 -144h-23l-94 132l-94 -132h-23z" />
    <glyph glyph-name="Atilde" unicode="&#xc3;" horiz-adv-x="666" 
d="M648 0h-24l-84 203h-411l-87 -203h-24l307 708h28zM533 222l-195 472l-201 -472h396zM342 838q39 -24 59 -24q33 0 40 48h16q-7 -67 -56 -67q-26 0 -64 24q-37 24 -59 24q-32 0 -40 -51h-16q4 34 19.5 52t36.5 18q25 0 64 -24z" />
    <glyph glyph-name="Adieresis" unicode="&#xc4;" horiz-adv-x="666" 
d="M648 0h-24l-84 203h-411l-87 -203h-24l307 708h28zM533 222l-195 472l-201 -472h396zM261 833q-9 0 -16 7t-7 19q0 10 7 17.5t16 7.5t16 -7.5t7 -17.5q0 -11 -7 -18.5t-16 -7.5zM415 833q-9 0 -16 7t-7 19q0 10 7 17.5t16 7.5t16 -7.5t7 -17.5q0 -11 -7 -18.5t-16 -7.5z
" />
    <glyph glyph-name="Aring" unicode="&#xc5;" horiz-adv-x="666" 
d="M648 0h-24l-84 203h-411l-87 -203h-24l307 708h28zM533 222l-195 472l-201 -472h396zM434 850q0 -40 -28.5 -67.5t-67.5 -27.5t-67.5 27.5t-28.5 67.5t28.5 67.5t67.5 27.5t67.5 -27.5t28.5 -67.5zM415 850q0 32 -22.5 55t-54.5 23t-54.5 -23t-22.5 -55t22.5 -55
t54.5 -23t54.5 23t22.5 55z" />
    <glyph glyph-name="AE" unicode="&#xc6;" horiz-adv-x="968" 
d="M912 0h-421v206h-324l-135 -206h-26l460 708h429v-20h-382v-311h358v-20h-358v-337h399v-20zM491 226v462h-13l-298 -462h311z" />
    <glyph glyph-name="Ccedilla" unicode="&#xc7;" horiz-adv-x="724" 
d="M535 -146q0 -43 -35 -61.5t-77 -18.5q-45 0 -90 20l5 17q35 -18 86 -18q90 0 90 61q0 51 -72 51q-42 0 -69 -15l-10 9l55 82q-153 5 -249.5 109.5t-96.5 263.5q0 163 101.5 268.5t259.5 105.5q148 0 235 -91l-14 -16q-40 43 -100.5 65t-120.5 22q-149 0 -244 -102
t-95 -252t94 -252t245 -102q68 0 132.5 26.5t104.5 75.5l16 -15q-42 -51 -108 -78t-139 -29l-45 -66q25 8 54 8q35 0 61 -16t26 -52z" />
    <glyph glyph-name="Egrave" unicode="&#xc8;" horiz-adv-x="590" 
d="M534 0h-428v708h412v-20h-391v-311h368v-20h-368v-337h407v-20zM206 908h27l103 -144h-19z" />
    <glyph glyph-name="Eacute" unicode="&#xc9;" horiz-adv-x="590" 
d="M534 0h-428v708h412v-20h-391v-311h368v-20h-368v-337h407v-20zM417 908l-111 -144h-19l103 144h27z" />
    <glyph glyph-name="Ecircumflex" unicode="&#xca;" horiz-adv-x="590" 
d="M534 0h-428v708h412v-20h-391v-311h368v-20h-368v-337h407v-20zM301 908h28l103 -144h-23l-94 132l-94 -132h-23z" />
    <glyph glyph-name="Edieresis" unicode="&#xcb;" horiz-adv-x="590" 
d="M534 0h-428v708h412v-20h-391v-311h368v-20h-368v-337h407v-20zM238 833q-9 0 -16 7t-7 19q0 10 7 17.5t16 7.5t16 -7.5t7 -17.5q0 -11 -7 -18.5t-16 -7.5zM392 833q-9 0 -16 7t-7 19q0 10 7 17.5t16 7.5t16 -7.5t7 -17.5q0 -11 -7 -18.5t-16 -7.5z" />
    <glyph glyph-name="Igrave" unicode="&#xcc;" horiz-adv-x="234" 
d="M128 0h-22v708h22v-708zM-1 908h27l103 -144h-19z" />
    <glyph glyph-name="Iacute" unicode="&#xcd;" horiz-adv-x="234" 
d="M128 0h-22v708h22v-708zM234 908l-111 -144h-19l103 144h27z" />
    <glyph glyph-name="Icircumflex" unicode="&#xce;" horiz-adv-x="234" 
d="M128 0h-22v708h22v-708zM102 908h28l103 -144h-23l-94 132l-94 -132h-23z" />
    <glyph glyph-name="Idieresis" unicode="&#xcf;" horiz-adv-x="234" 
d="M128 0h-22v708h22v-708zM40 833q-9 0 -16 7t-7 19q0 10 7 17.5t16 7.5t16 -7.5t7 -17.5q0 -11 -7 -18.5t-16 -7.5zM194 833q-9 0 -16 7t-7 19q0 10 7 17.5t16 7.5t16 -7.5t7 -17.5q0 -11 -7 -18.5t-16 -7.5z" />
    <glyph glyph-name="Eth" unicode="&#xd0;" horiz-adv-x="770" 
d="M106 358h-80v20h80v330h201q175 0 283 -89t108 -265q0 -89 -30 -158t-83.5 -111t-123.5 -63.5t-154 -21.5h-201v358zM129 378h268v-20h-268v-338h173q167 0 270 83.5t103 250.5q0 168 -103 251t-270 83h-173v-310z" />
    <glyph glyph-name="Ntilde" unicode="&#xd1;" horiz-adv-x="777" 
d="M671 0h-32l-508 680h-3v-680h-22v708h31l509 -679h3v679h22v-708zM395 838q39 -24 59 -24q33 0 40 48h16q-7 -67 -56 -67q-26 0 -64 24q-37 24 -59 24q-32 0 -40 -51h-16q4 34 19.5 52t36.5 18q25 0 64 -24z" />
    <glyph glyph-name="Ograve" unicode="&#xd2;" horiz-adv-x="872" 
d="M800 354q0 -163 -103.5 -268.5t-260.5 -105.5t-260.5 105.5t-103.5 268.5t103 268.5t261 105.5t261 -105.5t103 -268.5zM778 354q0 150 -96.5 252t-245.5 102t-245.5 -102t-96.5 -252t96 -252t246 -102q151 0 246.5 102t95.5 252zM342 908h27l103 -144h-19z" />
    <glyph glyph-name="Oacute" unicode="&#xd3;" horiz-adv-x="872" 
d="M800 354q0 -163 -103.5 -268.5t-260.5 -105.5t-260.5 105.5t-103.5 268.5t103 268.5t261 105.5t261 -105.5t103 -268.5zM778 354q0 150 -96.5 252t-245.5 102t-245.5 -102t-96.5 -252t96 -252t246 -102q151 0 246.5 102t95.5 252zM540 908l-111 -144h-19l103 144h27z" />
    <glyph glyph-name="Ocircumflex" unicode="&#xd4;" horiz-adv-x="872" 
d="M800 354q0 -163 -103.5 -268.5t-260.5 -105.5t-260.5 105.5t-103.5 268.5t103 268.5t261 105.5t261 -105.5t103 -268.5zM778 354q0 150 -96.5 252t-245.5 102t-245.5 -102t-96.5 -252t96 -252t246 -102q151 0 246.5 102t95.5 252zM424 908h28l103 -144h-23l-94 132
l-94 -132h-23z" />
    <glyph glyph-name="Otilde" unicode="&#xd5;" horiz-adv-x="872" 
d="M800 354q0 -163 -103.5 -268.5t-260.5 -105.5t-260.5 105.5t-103.5 268.5t103 268.5t261 105.5t261 -105.5t103 -268.5zM778 354q0 150 -96.5 252t-245.5 102t-245.5 -102t-96.5 -252t96 -252t246 -102q151 0 246.5 102t95.5 252zM441 838q39 -24 59 -24q33 0 40 48h16
q-7 -67 -56 -67q-26 0 -64 24q-37 24 -59 24q-32 0 -40 -51h-16q4 34 19.5 52t36.5 18q25 0 64 -24z" />
    <glyph glyph-name="Odieresis" unicode="&#xd6;" horiz-adv-x="872" 
d="M800 354q0 -163 -103.5 -268.5t-260.5 -105.5t-260.5 105.5t-103.5 268.5t103 268.5t261 105.5t261 -105.5t103 -268.5zM778 354q0 150 -96.5 252t-245.5 102t-245.5 -102t-96.5 -252t96 -252t246 -102q151 0 246.5 102t95.5 252zM361 833q-9 0 -16 7t-7 19q0 10 7 17.5
t16 7.5t16 -7.5t7 -17.5q0 -11 -7 -18.5t-16 -7.5zM515 833q-9 0 -16 7t-7 19q0 10 7 17.5t16 7.5t16 -7.5t7 -17.5q0 -11 -7 -18.5t-16 -7.5z" />
    <glyph glyph-name="multiply" unicode="&#xd7;" horiz-adv-x="666" 
d="M347 308l180 -180l-14 -13l-179 179l-179 -179l-14 13l180 180l-180 180l13 13l180 -180l180 180l13 -13z" />
    <glyph glyph-name="Oslash" unicode="&#xd8;" horiz-adv-x="872" 
d="M640 632q-91 76 -217 76q-149 0 -245.5 -102t-96.5 -252q0 -154 100 -256zM670 636q117 -106 117 -282q0 -163 -103.5 -268.5t-260.5 -105.5q-143 0 -242 88l-68 -79l-14 14l68 78q-108 105 -108 273q0 163 103 268.5t261 105.5q132 0 232 -79l67 78l15 -13zM655 619
l-460 -535q94 -84 228 -84q151 0 246.5 102t95.5 252q0 161 -110 265z" />
    <glyph glyph-name="Ugrave" unicode="&#xd9;" horiz-adv-x="732" 
d="M636 268q0 -131 -64.5 -209.5t-205.5 -78.5t-205.5 78.5t-64.5 209.5v440h22v-436q0 -38 5 -71.5t21 -72t42 -65.5t72 -45t108 -18q60 0 106 17.5t72.5 44.5t42.5 64.5t21.5 72t5.5 73.5v436h22v-440zM271 908h27l103 -144h-19z" />
    <glyph glyph-name="Uacute" unicode="&#xda;" horiz-adv-x="732" 
d="M636 268q0 -131 -64.5 -209.5t-205.5 -78.5t-205.5 78.5t-64.5 209.5v440h22v-436q0 -38 5 -71.5t21 -72t42 -65.5t72 -45t108 -18q60 0 106 17.5t72.5 44.5t42.5 64.5t21.5 72t5.5 73.5v436h22v-440zM453 908l-111 -144h-19l103 144h27z" />
    <glyph glyph-name="Ucircumflex" unicode="&#xdb;" horiz-adv-x="732" 
d="M636 268q0 -131 -64.5 -209.5t-205.5 -78.5t-205.5 78.5t-64.5 209.5v440h22v-436q0 -38 5 -71.5t21 -72t42 -65.5t72 -45t108 -18q60 0 106 17.5t72.5 44.5t42.5 64.5t21.5 72t5.5 73.5v436h22v-440zM352 908h28l103 -144h-23l-94 132l-94 -132h-23z" />
    <glyph glyph-name="Udieresis" unicode="&#xdc;" horiz-adv-x="732" 
d="M636 268q0 -131 -64.5 -209.5t-205.5 -78.5t-205.5 78.5t-64.5 209.5v440h22v-436q0 -38 5 -71.5t21 -72t42 -65.5t72 -45t108 -18q60 0 106 17.5t72.5 44.5t42.5 64.5t21.5 72t5.5 73.5v436h22v-440zM289 833q-9 0 -16 7t-7 19q0 10 7 17.5t16 7.5t16 -7.5t7 -17.5
q0 -11 -7 -18.5t-16 -7.5zM443 833q-9 0 -16 7t-7 19q0 10 7 17.5t16 7.5t16 -7.5t7 -17.5q0 -11 -7 -18.5t-16 -7.5z" />
    <glyph glyph-name="Yacute" unicode="&#xdd;" horiz-adv-x="538" 
d="M523 708l-243 -398v-310h-22v310l-243 398h26l229 -376l228 376h25zM383 908l-111 -144h-19l103 144h27z" />
    <glyph glyph-name="Thorn" unicode="&#xde;" horiz-adv-x="572" 
d="M517 374q0 -87 -59 -135.5t-147 -48.5h-183v-190h-22v708h22v-158h170q41 0 77.5 -9t69.5 -28t52.5 -54.5t19.5 -84.5zM495 374q0 56 -30 93t-70 50.5t-88 13.5h-179v-322h184q75 0 129 41.5t54 123.5z" />
    <glyph glyph-name="germandbls" unicode="&#xdf;" horiz-adv-x="589" 
d="M527 208q0 -98 -60.5 -158t-161.5 -60q-24 0 -48 3v21q27 -4 47 -4q92 0 146.5 54.5t54.5 144.5q0 102 -59 154.5t-150 52.5h-16v21h16q72 0 118.5 42.5t46.5 116.5q0 70 -44.5 111t-115.5 41q-93 0 -135 -60.5t-42 -152.5v-535h-22v538q0 103 51.5 166.5t146.5 63.5
q81 0 132 -47t51 -126q0 -69 -38 -111.5t-98 -54.5v-2q80 -12 130 -65t50 -154z" />
    <glyph glyph-name="agrave" unicode="&#xe0;" horiz-adv-x="512" 
d="M418 104q0 -54 8 -104h-21q-8 52 -8 110h-3q-19 -60 -67 -92t-107 -32q-62 0 -108 34t-46 98q0 47 24.5 79t65.5 47t79 20.5t81 5.5h80v37q0 74 -39.5 111t-108.5 37q-78 0 -140 -55l-12 17q65 57 152 57q81 0 125.5 -42t44.5 -126v-202zM396 207v44h-71
q-237 0 -237 -133q0 -57 40.5 -85t91.5 -28q49 0 85 18.5t55 49.5t27.5 64t8.5 70zM164 708h27l103 -144h-19z" />
    <glyph glyph-name="aacute" unicode="&#xe1;" horiz-adv-x="512" 
d="M418 104q0 -54 8 -104h-21q-8 52 -8 110h-3q-19 -60 -67 -92t-107 -32q-62 0 -108 34t-46 98q0 47 24.5 79t65.5 47t79 20.5t81 5.5h80v37q0 74 -39.5 111t-108.5 37q-78 0 -140 -55l-12 17q65 57 152 57q81 0 125.5 -42t44.5 -126v-202zM396 207v44h-71
q-237 0 -237 -133q0 -57 40.5 -85t91.5 -28q49 0 85 18.5t55 49.5t27.5 64t8.5 70zM363 708l-111 -144h-19l103 144h27z" />
    <glyph glyph-name="acircumflex" unicode="&#xe2;" horiz-adv-x="512" 
d="M418 104q0 -54 8 -104h-21q-8 52 -8 110h-3q-19 -60 -67 -92t-107 -32q-62 0 -108 34t-46 98q0 47 24.5 79t65.5 47t79 20.5t81 5.5h80v37q0 74 -39.5 111t-108.5 37q-78 0 -140 -55l-12 17q65 57 152 57q81 0 125.5 -42t44.5 -126v-202zM396 207v44h-71
q-237 0 -237 -133q0 -57 40.5 -85t91.5 -28q49 0 85 18.5t55 49.5t27.5 64t8.5 70zM234 708h28l103 -144h-23l-94 132l-94 -132h-23z" />
    <glyph glyph-name="atilde" unicode="&#xe3;" horiz-adv-x="512" 
d="M418 104q0 -54 8 -104h-21q-8 52 -8 110h-3q-19 -60 -67 -92t-107 -32q-62 0 -108 34t-46 98q0 47 24.5 79t65.5 47t79 20.5t81 5.5h80v37q0 74 -39.5 111t-108.5 37q-78 0 -140 -55l-12 17q65 57 152 57q81 0 125.5 -42t44.5 -126v-202zM396 207v44h-71
q-237 0 -237 -133q0 -57 40.5 -85t91.5 -28q49 0 85 18.5t55 49.5t27.5 64t8.5 70zM253 638q39 -24 59 -24q33 0 40 48h16q-7 -67 -56 -67q-26 0 -64 24q-37 24 -59 24q-32 0 -40 -51h-16q4 34 19.5 52t36.5 18q25 0 64 -24z" />
    <glyph glyph-name="adieresis" unicode="&#xe4;" horiz-adv-x="512" 
d="M418 104q0 -54 8 -104h-21q-8 52 -8 110h-3q-19 -60 -67 -92t-107 -32q-62 0 -108 34t-46 98q0 47 24.5 79t65.5 47t79 20.5t81 5.5h80v37q0 74 -39.5 111t-108.5 37q-78 0 -140 -55l-12 17q65 57 152 57q81 0 125.5 -42t44.5 -126v-202zM396 207v44h-71
q-237 0 -237 -133q0 -57 40.5 -85t91.5 -28q49 0 85 18.5t55 49.5t27.5 64t8.5 70zM174 633q-9 0 -16 7t-7 19q0 10 7 17.5t16 7.5t16 -7.5t7 -17.5q0 -11 -7 -18.5t-16 -7.5zM328 633q-9 0 -16 7t-7 19q0 10 7 17.5t16 7.5t16 -7.5t7 -17.5q0 -11 -7 -18.5t-16 -7.5z" />
    <glyph glyph-name="aring" unicode="&#xe5;" horiz-adv-x="512" 
d="M418 104q0 -54 8 -104h-21q-8 52 -8 110h-3q-19 -60 -67 -92t-107 -32q-62 0 -108 34t-46 98q0 47 24.5 79t65.5 47t79 20.5t81 5.5h80v37q0 74 -39.5 111t-108.5 37q-78 0 -140 -55l-12 17q65 57 152 57q81 0 125.5 -42t44.5 -126v-202zM396 207v44h-71
q-237 0 -237 -133q0 -57 40.5 -85t91.5 -28q49 0 85 18.5t55 49.5t27.5 64t8.5 70zM347 650q0 -40 -28.5 -67.5t-67.5 -27.5t-67.5 27.5t-28.5 67.5t28.5 67.5t67.5 27.5t67.5 -27.5t28.5 -67.5zM328 650q0 32 -22.5 55t-54.5 23t-54.5 -23t-22.5 -55t22.5 -55t54.5 -23
t54.5 23t22.5 55z" />
    <glyph glyph-name="ae" unicode="&#xe6;" horiz-adv-x="879" 
d="M429 255h367q-3 90 -53 145t-130 55q-47 0 -84 -22t-58 -54.5t-31.5 -65t-10.5 -58.5zM426 338q24 62 74.5 99t113.5 37q96 0 149.5 -65.5t53.5 -154.5v-19h-389q0 -57 19.5 -107t65.5 -85.5t111 -35.5q101 0 161 83l15 -13q-67 -90 -177 -90q-72 0 -126.5 42t-76.5 114
q-8 -67 -58 -112t-138 -45q-65 0 -111.5 31.5t-46.5 94.5q0 35 17 61.5t42.5 41.5t61.5 24.5t68 12.5t68 3h84v47q0 74 -40 113.5t-114 39.5q-81 0 -144 -55l-12 17q66 57 156 57q80 0 123.5 -37.5t49.5 -98.5zM407 191v44h-75q-243 0 -243 -123q0 -57 41 -82t94 -25
q97 0 140 54t43 132z" />
    <glyph glyph-name="ccedilla" unicode="&#xe7;" horiz-adv-x="480" 
d="M399 -146q0 -43 -35 -61.5t-77 -18.5q-45 0 -90 20l5 17q35 -18 86 -18q90 0 90 61q0 51 -72 51q-42 0 -69 -15l-10 9l59 87q-98 4 -161 71.5t-63 171.5q0 106 66.5 175.5t167.5 69.5q92 0 151 -61l-17 -15q-55 57 -134 57q-95 0 -153.5 -66t-58.5 -160t58.5 -159
t153.5 -65q83 0 138 52l15 -14q-54 -54 -142 -57l-49 -72q25 8 54 8q35 0 61 -16t26 -52z" />
    <glyph glyph-name="egrave" unicode="&#xe8;" horiz-adv-x="556" 
d="M494 235h-410q0 -92 54 -160.5t153 -68.5q105 0 169 84l16 -14q-70 -90 -185 -90q-102 0 -165.5 70t-63.5 179q0 104 63 171.5t156 67.5q102 0 157.5 -65.5t55.5 -154.5v-19zM473 254q-2 90 -55 145.5t-138 55.5q-49 0 -88.5 -21.5t-61.5 -53.5t-33.5 -65t-11.5 -61h388z
M185 708h27l103 -144h-19z" />
    <glyph glyph-name="eacute" unicode="&#xe9;" horiz-adv-x="556" 
d="M494 235h-410q0 -92 54 -160.5t153 -68.5q105 0 169 84l16 -14q-70 -90 -185 -90q-102 0 -165.5 70t-63.5 179q0 104 63 171.5t156 67.5q102 0 157.5 -65.5t55.5 -154.5v-19zM473 254q-2 90 -55 145.5t-138 55.5q-49 0 -88.5 -21.5t-61.5 -53.5t-33.5 -65t-11.5 -61h388z
M387 708l-111 -144h-19l103 144h27z" />
    <glyph glyph-name="ecircumflex" unicode="&#xea;" horiz-adv-x="556" 
d="M494 235h-410q0 -92 54 -160.5t153 -68.5q105 0 169 84l16 -14q-70 -90 -185 -90q-102 0 -165.5 70t-63.5 179q0 104 63 171.5t156 67.5q102 0 157.5 -65.5t55.5 -154.5v-19zM473 254q-2 90 -55 145.5t-138 55.5q-49 0 -88.5 -21.5t-61.5 -53.5t-33.5 -65t-11.5 -61h388z
M272 708h28l103 -144h-23l-94 132l-94 -132h-23z" />
    <glyph glyph-name="edieresis" unicode="&#xeb;" horiz-adv-x="556" 
d="M494 235h-410q0 -92 54 -160.5t153 -68.5q105 0 169 84l16 -14q-70 -90 -185 -90q-102 0 -165.5 70t-63.5 179q0 104 63 171.5t156 67.5q102 0 157.5 -65.5t55.5 -154.5v-19zM473 254q-2 90 -55 145.5t-138 55.5q-49 0 -88.5 -21.5t-61.5 -53.5t-33.5 -65t-11.5 -61h388z
M206 633q-9 0 -16 7t-7 19q0 10 7 17.5t16 7.5t16 -7.5t7 -17.5q0 -11 -7 -18.5t-16 -7.5zM360 633q-9 0 -16 7t-7 19q0 10 7 17.5t16 7.5t16 -7.5t7 -17.5q0 -11 -7 -18.5t-16 -7.5z" />
    <glyph glyph-name="igrave" unicode="&#xec;" horiz-adv-x="226" 
d="M124 0h-22v460h22v-460zM-5 708h27l103 -144h-19z" />
    <glyph glyph-name="iacute" unicode="&#xed;" horiz-adv-x="226" 
d="M124 0h-22v460h22v-460zM231 708l-111 -144h-19l103 144h27z" />
    <glyph glyph-name="icircumflex" unicode="&#xee;" horiz-adv-x="226" 
d="M124 0h-22v460h22v-460zM100 708h28l103 -144h-23l-94 132l-94 -132h-23z" />
    <glyph glyph-name="idieresis" unicode="&#xef;" horiz-adv-x="226" 
d="M124 0h-22v460h22v-460zM37 633q-9 0 -16 7t-7 19q0 10 7 17.5t16 7.5t16 -7.5t7 -17.5q0 -11 -7 -18.5t-16 -7.5zM191 633q-9 0 -16 7t-7 19q0 10 7 17.5t16 7.5t16 -7.5t7 -17.5q0 -11 -7 -18.5t-16 -7.5z" />
    <glyph glyph-name="eth" unicode="&#xf0;" horiz-adv-x="605" 
d="M482 397l6 2q-29 70 -78 143t-93 114l-112 -61l-12 14l110 62q-60 56 -97 80l17 12q44 -28 98 -82l105 59l16 -13l-105 -59q28 -28 58.5 -68.5t66 -98.5t58.5 -128.5t23 -136.5q0 -110 -67.5 -180t-173.5 -70t-173 69t-67 176t67 175t173 68q110 0 180 -77zM521 231
q0 96 -60 160t-159 64t-158.5 -64t-59.5 -160t59.5 -161t158.5 -65t159 65t60 161z" />
    <glyph glyph-name="ntilde" unicode="&#xf1;" horiz-adv-x="572" 
d="M128 339q21 63 71 99t111 36q88 0 127 -56.5t39 -139.5v-278h-22v276q0 32 -6.5 60.5t-21.5 56.5t-45 45t-71 17q-78 0 -130.5 -61t-52.5 -164v-230h-22v344q0 73 -5 116h22q4 -52 4 -121h2zM293 638q39 -24 59 -24q33 0 40 48h16q-7 -67 -56 -67q-26 0 -64 24
q-37 24 -59 24q-32 0 -40 -51h-16q4 34 19.5 52t36.5 18q25 0 64 -24z" />
    <glyph glyph-name="ograve" unicode="&#xf2;" horiz-adv-x="605" 
d="M543 231q0 -107 -67.5 -176t-173.5 -69t-173 69t-67 176t67 175t173 68t173.5 -68t67.5 -175zM521 231q0 96 -60 160t-159 64t-158.5 -64t-59.5 -160t59.5 -161t158.5 -65t159 65t60 161zM212 708h27l103 -144h-19z" />
    <glyph glyph-name="oacute" unicode="&#xf3;" horiz-adv-x="605" 
d="M543 231q0 -107 -67.5 -176t-173.5 -69t-173 69t-67 176t67 175t173 68t173.5 -68t67.5 -175zM521 231q0 96 -60 160t-159 64t-158.5 -64t-59.5 -160t59.5 -161t158.5 -65t159 65t60 161zM397 708l-111 -144h-19l103 144h27z" />
    <glyph glyph-name="ocircumflex" unicode="&#xf4;" horiz-adv-x="605" 
d="M543 231q0 -107 -67.5 -176t-173.5 -69t-173 69t-67 176t67 175t173 68t173.5 -68t67.5 -175zM521 231q0 96 -60 160t-159 64t-158.5 -64t-59.5 -160t59.5 -161t158.5 -65t159 65t60 161zM290 708h28l103 -144h-23l-94 132l-94 -132h-23z" />
    <glyph glyph-name="otilde" unicode="&#xf5;" horiz-adv-x="605" 
d="M543 231q0 -107 -67.5 -176t-173.5 -69t-173 69t-67 176t67 175t173 68t173.5 -68t67.5 -175zM521 231q0 96 -60 160t-159 64t-158.5 -64t-59.5 -160t59.5 -161t158.5 -65t159 65t60 161zM307 638q39 -24 59 -24q33 0 40 48h16q-7 -67 -56 -67q-26 0 -64 24
q-37 24 -59 24q-32 0 -40 -51h-16q4 34 19.5 52t36.5 18q25 0 64 -24z" />
    <glyph glyph-name="odieresis" unicode="&#xf6;" horiz-adv-x="605" 
d="M543 231q0 -107 -67.5 -176t-173.5 -69t-173 69t-67 176t67 175t173 68t173.5 -68t67.5 -175zM521 231q0 96 -60 160t-159 64t-158.5 -64t-59.5 -160t59.5 -161t158.5 -65t159 65t60 161zM227 633q-9 0 -16 7t-7 19q0 10 7 17.5t16 7.5t16 -7.5t7 -17.5q0 -11 -7 -18.5
t-16 -7.5zM381 633q-9 0 -16 7t-7 19q0 10 7 17.5t16 7.5t16 -7.5t7 -17.5q0 -11 -7 -18.5t-16 -7.5z" />
    <glyph glyph-name="divide" unicode="&#xf7;" horiz-adv-x="666" 
d="M369 470q0 -16 -11 -27t-25 -11t-24.5 11t-10.5 27t10.5 27t24.5 11t25 -11t11 -27zM573 293h-479v20h479v-20zM369 136q0 -16 -11 -27t-25 -11t-24.5 11t-10.5 27t10 27t25 11q14 0 25 -11t11 -27z" />
    <glyph glyph-name="oslash" unicode="&#xf8;" horiz-adv-x="605" 
d="M479 402q64 -66 64 -171q0 -107 -67.5 -176t-173.5 -69q-105 0 -171 68l-66 -66l-14 13l67 67q-56 66 -56 163q0 107 67 175t173 68q97 0 164 -58l59 59l14 -14zM464 387l-318 -318q58 -64 156 -64q99 0 159 65t60 161q0 93 -57 156zM451 401q-61 54 -149 54
q-99 0 -158.5 -64t-59.5 -160q0 -87 49 -148z" />
    <glyph glyph-name="ugrave" unicode="&#xf9;" horiz-adv-x="572" 
d="M442 121q-21 -63 -71 -99t-111 -36q-88 0 -127 56.5t-39 139.5v278h22v-276q0 -32 6.5 -60.5t21.5 -56.5t45 -45t71 -17q78 0 130.5 61t52.5 164v230h22v-344q0 -73 5 -116h-22q-4 52 -4 121h-2zM175 708h27l103 -144h-19z" />
    <glyph glyph-name="uacute" unicode="&#xfa;" horiz-adv-x="572" 
d="M442 121q-21 -63 -71 -99t-111 -36q-88 0 -127 56.5t-39 139.5v278h22v-276q0 -32 6.5 -60.5t21.5 -56.5t45 -45t71 -17q78 0 130.5 61t52.5 164v230h22v-344q0 -73 5 -116h-22q-4 52 -4 121h-2zM373 708l-111 -144h-19l103 144h27z" />
    <glyph glyph-name="ucircumflex" unicode="&#xfb;" horiz-adv-x="572" 
d="M442 121q-21 -63 -71 -99t-111 -36q-88 0 -127 56.5t-39 139.5v278h22v-276q0 -32 6.5 -60.5t21.5 -56.5t45 -45t71 -17q78 0 130.5 61t52.5 164v230h22v-344q0 -73 5 -116h-22q-4 52 -4 121h-2zM264 708h28l103 -144h-23l-94 132l-94 -132h-23z" />
    <glyph glyph-name="udieresis" unicode="&#xfc;" horiz-adv-x="572" 
d="M442 121q-21 -63 -71 -99t-111 -36q-88 0 -127 56.5t-39 139.5v278h22v-276q0 -32 6.5 -60.5t21.5 -56.5t45 -45t71 -17q78 0 130.5 61t52.5 164v230h22v-344q0 -73 5 -116h-22q-4 52 -4 121h-2zM201 633q-9 0 -16 7t-7 19q0 10 7 17.5t16 7.5t16 -7.5t7 -17.5
q0 -11 -7 -18.5t-16 -7.5zM355 633q-9 0 -16 7t-7 19q0 10 7 17.5t16 7.5t16 -7.5t7 -17.5q0 -11 -7 -18.5t-16 -7.5z" />
    <glyph glyph-name="yacute" unicode="&#xfd;" horiz-adv-x="428" 
d="M404 460l-228 -612q-33 -90 -111 -90q-23 0 -41 7l6 19q16 -6 37 -6q63 0 95 89l44 120l-182 473h24l169 -448l163 448h24zM324 708l-111 -144h-19l103 144h27z" />
    <glyph glyph-name="thorn" unicode="&#xfe;" horiz-adv-x="626" 
d="M124 335h3q29 67 84.5 103t122.5 36q102 0 166 -69t64 -176q0 -105 -65 -174t-165 -69q-68 0 -125 36.5t-82 101.5h-3v-364h-22v996h22v-421zM542 229q0 94 -57.5 160t-150.5 66q-90 0 -150.5 -66t-60.5 -159t60.5 -159t150.5 -66q93 0 150.5 65t57.5 159z" />
    <glyph glyph-name="ydieresis" unicode="&#xff;" horiz-adv-x="428" 
d="M404 460l-228 -612q-33 -90 -111 -90q-23 0 -41 7l6 19q16 -6 37 -6q63 0 95 89l44 120l-182 473h24l169 -448l163 448h24zM140 633q-9 0 -16 7t-7 19q0 10 7 17.5t16 7.5t16 -7.5t7 -17.5q0 -11 -7 -18.5t-16 -7.5zM294 633q-9 0 -16 7t-7 19q0 10 7 17.5t16 7.5
t16 -7.5t7 -17.5q0 -11 -7 -18.5t-16 -7.5z" />
    <glyph glyph-name="Amacron" unicode="&#x100;" horiz-adv-x="666" 
d="M648 0h-24l-84 203h-411l-87 -203h-24l307 708h28zM533 222l-195 472l-201 -472h396zM454 821h-232v20h232v-20z" />
    <glyph glyph-name="amacron" unicode="&#x101;" horiz-adv-x="512" 
d="M418 104q0 -54 8 -104h-21q-8 52 -8 110h-3q-19 -60 -67 -92t-107 -32q-62 0 -108 34t-46 98q0 47 24.5 79t65.5 47t79 20.5t81 5.5h80v37q0 74 -39.5 111t-108.5 37q-78 0 -140 -55l-12 17q65 57 152 57q81 0 125.5 -42t44.5 -126v-202zM396 207v44h-71
q-237 0 -237 -133q0 -57 40.5 -85t91.5 -28q49 0 85 18.5t55 49.5t27.5 64t8.5 70zM378 621h-232v20h232v-20z" />
    <glyph glyph-name="Abreve" unicode="&#x102;" horiz-adv-x="666" 
d="M648 0h-24l-84 203h-411l-87 -203h-24l307 708h28zM533 222l-195 472l-201 -472h396zM464 898q-10 -60 -43.5 -93t-83.5 -33t-83.5 33t-40.5 93h19q10 -51 37.5 -78.5t67.5 -27.5q44 0 70.5 25.5t38.5 80.5h18z" />
    <glyph glyph-name="abreve" unicode="&#x103;" horiz-adv-x="512" 
d="M418 104q0 -54 8 -104h-21q-8 52 -8 110h-3q-19 -60 -67 -92t-107 -32q-62 0 -108 34t-46 98q0 47 24.5 79t65.5 47t79 20.5t81 5.5h80v37q0 74 -39.5 111t-108.5 37q-78 0 -140 -55l-12 17q65 57 152 57q81 0 125.5 -42t44.5 -126v-202zM396 207v44h-71
q-237 0 -237 -133q0 -57 40.5 -85t91.5 -28q49 0 85 18.5t55 49.5t27.5 64t8.5 70zM388 698q-10 -60 -43.5 -93t-83.5 -33t-83.5 33t-40.5 93h19q10 -51 37.5 -78.5t67.5 -27.5q44 0 70.5 25.5t38.5 80.5h18z" />
    <glyph glyph-name="Aogonek" unicode="&#x104;" horiz-adv-x="666" 
d="M689 -176l10 -16q-34 -31 -82 -31q-36 0 -60 21.5t-24 58.5q0 35 23.5 67.5t68.5 75.5h-1l-84 203h-411l-87 -203h-24l307 708h28l295 -708q-52 -52 -72.5 -81t-20.5 -60q0 -30 17.5 -47t47.5 -17q42 0 69 29zM533 222l-195 472l-201 -472h396z" />
    <glyph glyph-name="aogonek" unicode="&#x105;" horiz-adv-x="512" 
d="M468 -176l10 -16q-34 -31 -82 -31q-36 0 -60 21.5t-24 58.5q0 35 23.5 67.5t68.5 75.5h1q-8 52 -8 110h-3q-19 -60 -67 -92t-107 -32q-62 0 -108 34t-46 98q0 47 24.5 79t65.5 47t79 20.5t81 5.5h80v37q0 74 -39.5 111t-108.5 37q-78 0 -140 -55l-12 17q65 57 152 57
q81 0 125.5 -42t44.5 -126v-202q0 -54 8 -104h1q-52 -52 -72.5 -81t-20.5 -60q0 -30 17.5 -47t47.5 -17q42 0 69 29zM396 207v44h-71q-237 0 -237 -133q0 -57 40.5 -85t91.5 -28q49 0 85 18.5t55 49.5t27.5 64t8.5 70z" />
    <glyph glyph-name="Cacute" unicode="&#x106;" horiz-adv-x="724" 
d="M686 87q-43 -52 -111 -79.5t-142 -27.5q-159 0 -260 105.5t-101 268.5t101.5 268.5t259.5 105.5q148 0 235 -91l-14 -16q-40 43 -100.5 65t-120.5 22q-149 0 -244 -102t-95 -252t94 -252t245 -102q68 0 132.5 26.5t104.5 75.5zM522 908l-111 -144h-19l103 144h27z" />
    <glyph glyph-name="cacute" unicode="&#x107;" horiz-adv-x="480" 
d="M447 413l-17 -15q-55 57 -134 57q-95 0 -153.5 -66t-58.5 -160t58.5 -159t153.5 -65q83 0 138 52l15 -14q-57 -57 -153 -57q-102 0 -168 68.5t-66 174.5t66.5 175.5t167.5 69.5q92 0 151 -61zM396 708l-111 -144h-19l103 144h27z" />
    <glyph glyph-name="Ccircumflex" unicode="&#x108;" horiz-adv-x="724" 
d="M686 87q-43 -52 -111 -79.5t-142 -27.5q-159 0 -260 105.5t-101 268.5t101.5 268.5t259.5 105.5q148 0 235 -91l-14 -16q-40 43 -100.5 65t-120.5 22q-149 0 -244 -102t-95 -252t94 -252t245 -102q68 0 132.5 26.5t104.5 75.5zM419 908h28l103 -144h-23l-94 132l-94 -132
h-23z" />
    <glyph glyph-name="ccircumflex" unicode="&#x109;" horiz-adv-x="480" 
d="M447 413l-17 -15q-55 57 -134 57q-95 0 -153.5 -66t-58.5 -160t58.5 -159t153.5 -65q83 0 138 52l15 -14q-57 -57 -153 -57q-102 0 -168 68.5t-66 174.5t66.5 175.5t167.5 69.5q92 0 151 -61zM282 708h28l103 -144h-23l-94 132l-94 -132h-23z" />
    <glyph glyph-name="Cdotaccent" unicode="&#x10a;" horiz-adv-x="724" 
d="M686 87q-43 -52 -111 -79.5t-142 -27.5q-159 0 -260 105.5t-101 268.5t101.5 268.5t259.5 105.5q148 0 235 -91l-14 -16q-40 43 -100.5 65t-120.5 22q-149 0 -244 -102t-95 -252t94 -252t245 -102q68 0 132.5 26.5t104.5 75.5zM432 833q-9 0 -16 7t-7 19q0 10 7 17.5
t16 7.5t16 -7.5t7 -17.5q0 -11 -7 -18.5t-16 -7.5z" />
    <glyph glyph-name="cdotaccent" unicode="&#x10b;" horiz-adv-x="480" 
d="M447 413l-17 -15q-55 57 -134 57q-95 0 -153.5 -66t-58.5 -160t58.5 -159t153.5 -65q83 0 138 52l15 -14q-57 -57 -153 -57q-102 0 -168 68.5t-66 174.5t66.5 175.5t167.5 69.5q92 0 151 -61zM293 633q-9 0 -16 7t-7 19q0 10 7 17.5t16 7.5t16 -7.5t7 -17.5
q0 -11 -7 -18.5t-16 -7.5z" />
    <glyph glyph-name="Ccaron" unicode="&#x10c;" horiz-adv-x="724" 
d="M686 87q-43 -52 -111 -79.5t-142 -27.5q-159 0 -260 105.5t-101 268.5t101.5 268.5t259.5 105.5q148 0 235 -91l-14 -16q-40 43 -100.5 65t-120.5 22q-149 0 -244 -102t-95 -252t94 -252t245 -102q68 0 132.5 26.5t104.5 75.5zM447 764h-28l-103 144h23l94 -132l94 132
h23z" />
    <glyph glyph-name="ccaron" unicode="&#x10d;" horiz-adv-x="480" 
d="M447 413l-17 -15q-55 57 -134 57q-95 0 -153.5 -66t-58.5 -160t58.5 -159t153.5 -65q83 0 138 52l15 -14q-57 -57 -153 -57q-102 0 -168 68.5t-66 174.5t66.5 175.5t167.5 69.5q92 0 151 -61zM306 564h-28l-103 144h23l94 -132l94 132h23z" />
    <glyph glyph-name="Dcaron" unicode="&#x10e;" horiz-adv-x="770" 
d="M698 354q0 -89 -30 -158t-83.5 -111t-123.5 -63.5t-154 -21.5h-201v708h201q175 0 283 -89t108 -265zM302 688h-173v-668h173q167 0 270 83.5t103 250.5q0 168 -103 251t-270 83zM369 764h-28l-103 144h23l94 -132l94 132h23z" />
    <glyph glyph-name="dcaron" unicode="&#x10f;" horiz-adv-x="653" 
d="M502 335v421h22v-756h-22v124h-3q-29 -66 -84.5 -102t-122.5 -36q-100 0 -165 69t-65 174t65 175t165 70q67 0 122.5 -36t84.5 -103h3zM84 229q0 -94 57.5 -159t150.5 -65q90 0 150.5 66t60.5 159t-60.5 159t-150.5 66q-93 0 -150.5 -66t-57.5 -160zM661 708l-58 -185
h-17l51 185h24z" />
    <glyph glyph-name="Dcroat" unicode="&#x110;" horiz-adv-x="770" 
d="M106 358h-80v20h80v330h201q175 0 283 -89t108 -265q0 -89 -30 -158t-83.5 -111t-123.5 -63.5t-154 -21.5h-201v358zM129 378h268v-20h-268v-338h173q167 0 270 83.5t103 250.5q0 168 -103 251t-270 83h-173v-310z" />
    <glyph glyph-name="dcroat" unicode="&#x111;" horiz-adv-x="626" 
d="M594 570h-70v-570h-22v124h-3q-29 -66 -84.5 -102t-122.5 -36q-100 0 -165 69t-65 174t65 175t165 70q67 0 122.5 -36t84.5 -103h3v235h-213v18h213v168h22v-168h70v-18zM84 229q0 -94 57.5 -159t150.5 -65q90 0 150.5 66t60.5 159t-60.5 159t-150.5 66q-93 0 -150.5 -66
t-57.5 -160z" />
    <glyph glyph-name="Emacron" unicode="&#x112;" horiz-adv-x="590" 
d="M534 0h-428v708h412v-20h-391v-311h368v-20h-368v-337h407v-20zM431 821h-232v20h232v-20z" />
    <glyph glyph-name="emacron" unicode="&#x113;" horiz-adv-x="556" 
d="M494 235h-410q0 -92 54 -160.5t153 -68.5q105 0 169 84l16 -14q-70 -90 -185 -90q-102 0 -165.5 70t-63.5 179q0 104 63 171.5t156 67.5q102 0 157.5 -65.5t55.5 -154.5v-19zM473 254q-2 90 -55 145.5t-138 55.5q-49 0 -88.5 -21.5t-61.5 -53.5t-33.5 -65t-11.5 -61h388z
M402 621h-232v20h232v-20z" />
    <glyph glyph-name="Ebreve" unicode="&#x114;" horiz-adv-x="590" 
d="M534 0h-428v708h412v-20h-391v-311h368v-20h-368v-337h407v-20zM441 898q-10 -60 -43.5 -93t-83.5 -33t-83.5 33t-40.5 93h19q10 -51 37.5 -78.5t67.5 -27.5q44 0 70.5 25.5t38.5 80.5h18z" />
    <glyph glyph-name="ebreve" unicode="&#x115;" horiz-adv-x="556" 
d="M494 235h-410q0 -92 54 -160.5t153 -68.5q105 0 169 84l16 -14q-70 -90 -185 -90q-102 0 -165.5 70t-63.5 179q0 104 63 171.5t156 67.5q102 0 157.5 -65.5t55.5 -154.5v-19zM473 254q-2 90 -55 145.5t-138 55.5q-49 0 -88.5 -21.5t-61.5 -53.5t-33.5 -65t-11.5 -61h388z
M414 698q-10 -60 -43.5 -93t-83.5 -33t-83.5 33t-40.5 93h19q10 -51 37.5 -78.5t67.5 -27.5q44 0 70.5 25.5t38.5 80.5h18z" />
    <glyph glyph-name="Edotaccent" unicode="&#x116;" horiz-adv-x="590" 
d="M534 0h-428v708h412v-20h-391v-311h368v-20h-368v-337h407v-20zM315 833q-9 0 -16 7t-7 19q0 10 7 17.5t16 7.5t16 -7.5t7 -17.5q0 -11 -7 -18.5t-16 -7.5z" />
    <glyph glyph-name="edotaccent" unicode="&#x117;" horiz-adv-x="556" 
d="M494 235h-410q0 -92 54 -160.5t153 -68.5q105 0 169 84l16 -14q-70 -90 -185 -90q-102 0 -165.5 70t-63.5 179q0 104 63 171.5t156 67.5q102 0 157.5 -65.5t55.5 -154.5v-19zM473 254q-2 90 -55 145.5t-138 55.5q-49 0 -88.5 -21.5t-61.5 -53.5t-33.5 -65t-11.5 -61h388z
M286 633q-9 0 -16 7t-7 19q0 10 7 17.5t16 7.5t16 -7.5t7 -17.5q0 -11 -7 -18.5t-16 -7.5z" />
    <glyph glyph-name="Eogonek" unicode="&#x118;" horiz-adv-x="590" 
d="M561 -176l10 -16q-34 -31 -82 -31q-36 0 -60 21.5t-24 58.5q0 35 23.5 67.5t68.5 75.5h-391v708h412v-20h-391v-311h368v-20h-368v-337h407v-20h-14q-52 -52 -72.5 -81t-20.5 -60q0 -30 17.5 -47t47.5 -17q42 0 69 29z" />
    <glyph glyph-name="eogonek" unicode="&#x119;" horiz-adv-x="556" 
d="M392 -176l10 -16q-34 -31 -82 -31q-36 0 -60 21.5t-24 58.5q0 54 78 130q-3 0 -11 -0.5t-12 -0.5q-102 0 -165.5 70t-63.5 179q0 104 63 171.5t156 67.5q102 0 157.5 -65.5t55.5 -154.5v-19h-410q0 -92 54 -160.5t153 -68.5q105 0 169 84l16 -14q-54 -69 -134 -85
q-46 -46 -65 -74t-19 -58t17.5 -47t47.5 -17q42 0 69 29zM473 254q-2 90 -55 145.5t-138 55.5q-49 0 -88.5 -21.5t-61.5 -53.5t-33.5 -65t-11.5 -61h388z" />
    <glyph glyph-name="Ecaron" unicode="&#x11a;" horiz-adv-x="590" 
d="M534 0h-428v708h412v-20h-391v-311h368v-20h-368v-337h407v-20zM329 764h-28l-103 144h23l94 -132l94 132h23z" />
    <glyph glyph-name="ecaron" unicode="&#x11b;" horiz-adv-x="556" 
d="M494 235h-410q0 -92 54 -160.5t153 -68.5q105 0 169 84l16 -14q-70 -90 -185 -90q-102 0 -165.5 70t-63.5 179q0 104 63 171.5t156 67.5q102 0 157.5 -65.5t55.5 -154.5v-19zM473 254q-2 90 -55 145.5t-138 55.5q-49 0 -88.5 -21.5t-61.5 -53.5t-33.5 -65t-11.5 -61h388z
M299 564h-28l-103 144h23l94 -132l94 132h23z" />
    <glyph glyph-name="Gcircumflex" unicode="&#x11c;" horiz-adv-x="795" 
d="M699 41q-108 -61 -254 -61q-166 0 -269.5 107t-103.5 269t103.5 267t265.5 105q140 0 238 -82l-16 -16q-39 37 -100.5 57.5t-122.5 20.5q-154 0 -250 -101.5t-96 -250.5q0 -152 95.5 -254t257.5 -102q125 0 231 53v278h-184v19h205v-309zM421 908h28l103 -144h-23
l-94 132l-94 -132h-23z" />
    <glyph glyph-name="gcircumflex" unicode="&#x11d;" horiz-adv-x="626" 
d="M502 28v96h-3q-25 -65 -82 -101.5t-125 -36.5q-100 0 -165 69t-65 174t65 175t165 70q67 0 122.5 -36t84.5 -103h3v125h22v-434q0 -57 -12 -105t-37.5 -87.5t-70.5 -61.5t-107 -22q-127 0 -203 86l15 15q72 -82 188 -82q58 0 99.5 21t63.5 59t32 82t10 97zM84 229
q0 -94 57.5 -159.5t150.5 -65.5q90 0 150.5 66.5t60.5 159.5t-60.5 159t-150.5 66q-93 0 -150.5 -66t-57.5 -160zM293 708h28l103 -144h-23l-94 132l-94 -132h-23z" />
    <glyph glyph-name="Gbreve" unicode="&#x11e;" horiz-adv-x="795" 
d="M699 41q-108 -61 -254 -61q-166 0 -269.5 107t-103.5 269t103.5 267t265.5 105q140 0 238 -82l-16 -16q-39 37 -100.5 57.5t-122.5 20.5q-154 0 -250 -101.5t-96 -250.5q0 -152 95.5 -254t257.5 -102q125 0 231 53v278h-184v19h205v-309zM563 898q-10 -60 -43.5 -93
t-83.5 -33t-83.5 33t-40.5 93h19q10 -51 37.5 -78.5t67.5 -27.5q44 0 70.5 25.5t38.5 80.5h18z" />
    <glyph glyph-name="gbreve" unicode="&#x11f;" horiz-adv-x="626" 
d="M502 28v96h-3q-25 -65 -82 -101.5t-125 -36.5q-100 0 -165 69t-65 174t65 175t165 70q67 0 122.5 -36t84.5 -103h3v125h22v-434q0 -57 -12 -105t-37.5 -87.5t-70.5 -61.5t-107 -22q-127 0 -203 86l15 15q72 -82 188 -82q58 0 99.5 21t63.5 59t32 82t10 97zM84 229
q0 -94 57.5 -159.5t150.5 -65.5q90 0 150.5 66.5t60.5 159.5t-60.5 159t-150.5 66q-93 0 -150.5 -66t-57.5 -160zM431 698q-10 -60 -43.5 -93t-83.5 -33t-83.5 33t-40.5 93h19q10 -51 37.5 -78.5t67.5 -27.5q44 0 70.5 25.5t38.5 80.5h18z" />
    <glyph glyph-name="Gdotaccent" unicode="&#x120;" horiz-adv-x="795" 
d="M699 41q-108 -61 -254 -61q-166 0 -269.5 107t-103.5 269t103.5 267t265.5 105q140 0 238 -82l-16 -16q-39 37 -100.5 57.5t-122.5 20.5q-154 0 -250 -101.5t-96 -250.5q0 -152 95.5 -254t257.5 -102q125 0 231 53v278h-184v19h205v-309zM434 833q-9 0 -16 7t-7 19
q0 10 7 17.5t16 7.5t16 -7.5t7 -17.5q0 -11 -7 -18.5t-16 -7.5z" />
    <glyph glyph-name="gdotaccent" unicode="&#x121;" horiz-adv-x="626" 
d="M502 28v96h-3q-25 -65 -82 -101.5t-125 -36.5q-100 0 -165 69t-65 174t65 175t165 70q67 0 122.5 -36t84.5 -103h3v125h22v-434q0 -57 -12 -105t-37.5 -87.5t-70.5 -61.5t-107 -22q-127 0 -203 86l15 15q72 -82 188 -82q58 0 99.5 21t63.5 59t32 82t10 97zM84 229
q0 -94 57.5 -159.5t150.5 -65.5q90 0 150.5 66.5t60.5 159.5t-60.5 159t-150.5 66q-93 0 -150.5 -66t-57.5 -160zM304 633q-9 0 -16 7t-7 19q0 10 7 17.5t16 7.5t16 -7.5t7 -17.5q0 -11 -7 -18.5t-16 -7.5z" />
    <glyph glyph-name="Gcommaaccent" unicode="&#x122;" horiz-adv-x="795" 
d="M699 41q-108 -61 -254 -61q-166 0 -269.5 107t-103.5 269t103.5 267t265.5 105q140 0 238 -82l-16 -16q-39 37 -100.5 57.5t-122.5 20.5q-154 0 -250 -101.5t-96 -250.5q0 -152 95.5 -254t257.5 -102q125 0 231 53v278h-184v19h205v-309zM461 -45l-58 -185h-17l51 185h24
z" />
    <glyph glyph-name="gcommaaccent" unicode="&#x123;" horiz-adv-x="626" 
d="M502 28v96h-3q-25 -65 -82 -101.5t-125 -36.5q-100 0 -165 69t-65 174t65 175t165 70q67 0 122.5 -36t84.5 -103h3v125h22v-434q0 -57 -12 -105t-37.5 -87.5t-70.5 -61.5t-107 -22q-127 0 -203 86l15 15q72 -82 188 -82q58 0 99.5 21t63.5 59t32 82t10 97zM84 229
q0 -94 57.5 -159.5t150.5 -65.5q90 0 150.5 66.5t60.5 159.5t-60.5 159t-150.5 66q-93 0 -150.5 -66t-57.5 -160zM277 564l58 185h17l-51 -185h-24z" />
    <glyph glyph-name="Hcircumflex" unicode="&#x124;" horiz-adv-x="732" 
d="M626 0h-22v356h-476v-356h-22v708h22v-332h476v332h22v-708zM353 908h28l103 -144h-23l-94 132l-94 -132h-23z" />
    <glyph glyph-name="hcircumflex" unicode="&#x125;" horiz-adv-x="569" 
d="M124 339h2q20 63 70 99t111 36q88 0 127 -56.5t39 -139.5v-278h-22v276q0 32 -6.5 60.5t-21.5 56.5t-45 45t-71 17q-78 0 -130.5 -61t-52.5 -164v-230h-22v756h22v-417zM270 940h28l103 -144h-23l-94 132l-94 -132h-23z" />
    <glyph glyph-name="Hbar" unicode="&#x126;" horiz-adv-x="732" 
d="M626 0h-22v356h-476v-356h-22v708h22v-190h476v190h22v-708zM128 376h476v124h-476v-124z" />
    <glyph glyph-name="hbar" unicode="&#x127;" horiz-adv-x="569" 
d="M124 339h2q20 63 70 99t111 36q88 0 127 -56.5t39 -139.5v-278h-22v276q0 32 -6.5 60.5t-21.5 56.5t-45 45t-71 17q-78 0 -130.5 -61t-52.5 -164v-230h-22v570h-72v18h72v168h22v-168h211v-18h-211v-231z" />
    <glyph glyph-name="Itilde" unicode="&#x128;" horiz-adv-x="234" 
d="M128 0h-22v708h22v-708zM121 838q39 -24 59 -24q33 0 40 48h16q-7 -67 -56 -67q-26 0 -64 24q-37 24 -59 24q-32 0 -40 -51h-16q4 34 19.5 52t36.5 18q25 0 64 -24z" />
    <glyph glyph-name="itilde" unicode="&#x129;" horiz-adv-x="226" 
d="M124 0h-22v460h22v-460zM117 638q39 -24 59 -24q33 0 40 48h16q-7 -67 -56 -67q-26 0 -64 24q-37 24 -59 24q-32 0 -40 -51h-16q4 34 19.5 52t36.5 18q25 0 64 -24z" />
    <glyph glyph-name="Imacron" unicode="&#x12a;" horiz-adv-x="234" 
d="M128 0h-22v708h22v-708zM234 821h-232v20h232v-20z" />
    <glyph glyph-name="imacron" unicode="&#x12b;" horiz-adv-x="226" 
d="M124 0h-22v460h22v-460zM230 621h-232v20h232v-20z" />
    <glyph glyph-name="Ibreve" unicode="&#x12c;" horiz-adv-x="234" 
d="M128 0h-22v708h22v-708zM243 898q-10 -60 -43.5 -93t-83.5 -33t-83.5 33t-40.5 93h19q10 -51 37.5 -78.5t67.5 -27.5q44 0 70.5 25.5t38.5 80.5h18z" />
    <glyph glyph-name="ibreve" unicode="&#x12d;" horiz-adv-x="226" 
d="M124 0h-22v460h22v-460zM239 698q-10 -60 -43.5 -93t-83.5 -33t-83.5 33t-40.5 93h19q10 -51 37.5 -78.5t67.5 -27.5q44 0 70.5 25.5t38.5 80.5h18z" />
    <glyph glyph-name="Iogonek" unicode="&#x12e;" horiz-adv-x="234" 
d="M169 -176l10 -16q-34 -31 -82 -31q-36 0 -60 21.5t-24 58.5q0 35 23.5 67.5t68.5 75.5h1v708h22v-708q-52 -52 -72.5 -81t-20.5 -60q0 -30 17.5 -47t47.5 -17q42 0 69 29z" />
    <glyph glyph-name="iogonek" unicode="&#x12f;" horiz-adv-x="226" 
d="M166 -176l10 -16q-34 -31 -82 -31q-36 0 -60 21.5t-24 58.5q0 35 23.5 68t68.5 76v459h22v-460q-50 -49 -71 -79t-21 -62q0 -30 17.5 -47t47.5 -17q42 0 69 29zM113 633q-9 0 -16 7t-7 19q0 10 7 17.5t16 7.5t16 -7.5t7 -17.5q0 -11 -7 -18.5t-16 -7.5z" />
    <glyph glyph-name="Idotaccent" unicode="&#x130;" horiz-adv-x="234" 
d="M128 0h-22v708h22v-708zM117 833q-9 0 -16 7t-7 19q0 10 7 17.5t16 7.5t16 -7.5t7 -17.5q0 -11 -7 -18.5t-16 -7.5z" />
    <glyph glyph-name="dotlessi" unicode="&#x131;" horiz-adv-x="226" 
d="M124 0h-22v460h22v-460z" />
    <glyph glyph-name="IJ" unicode="&#x132;" horiz-adv-x="707" 
d="M128 0h-22v708h22v-708zM605 193q0 -99 -46.5 -155t-134.5 -56q-60 0 -105 31.5t-63 79.5l19 9q20 -46 59.5 -73t89.5 -27q82 0 120.5 52.5t38.5 141.5v512h22v-515z" />
    <glyph glyph-name="ij" unicode="&#x133;" horiz-adv-x="455" 
d="M113 633q-9 0 -16 7t-7 19q0 10 7 17.5t16 7.5t16 -7.5t7 -17.5q0 -11 -7 -18.5t-16 -7.5zM124 0h-22v460h22v-460zM353 -97q0 -75 -23.5 -109.5t-88.5 -34.5q-17 0 -29 3l4 19q14 -3 25 -3q30 0 49.5 10t27.5 30t10.5 38t2.5 45v559h22v-557zM342 633q-9 0 -16 7t-7 19
q0 10 7 17.5t16 7.5t16 -7.5t7 -17.5q0 -11 -7 -18.5t-16 -7.5z" />
    <glyph glyph-name="Jcircumflex" unicode="&#x134;" horiz-adv-x="480" 
d="M378 193q0 -99 -46.5 -155t-134.5 -56q-60 0 -105 31.5t-63 79.5l19 9q20 -46 59.5 -73t89.5 -27q82 0 120.5 52.5t38.5 141.5v512h22v-515zM351 908h28l103 -144h-23l-94 132l-94 -132h-23z" />
    <glyph glyph-name="jcircumflex" unicode="&#x135;" horiz-adv-x="226" 
d="M124 -97q0 -75 -23.5 -109.5t-88.5 -34.5q-17 0 -29 3l4 19q14 -3 25 -3q30 0 49.5 10t27.5 30t10.5 38t2.5 45v559h22v-557zM97 708h28l103 -144h-23l-94 132l-94 -132h-23z" />
    <glyph glyph-name="Kcommaaccent" unicode="&#x136;" horiz-adv-x="565" 
d="M128 383h1l356 325h32l-360 -325l378 -383h-31l-375 381h-1v-381h-22v708h22v-325zM323 -45l-58 -185h-17l51 185h24z" />
    <glyph glyph-name="kcommaaccent" unicode="&#x137;" horiz-adv-x="445" 
d="M124 248h1l238 212h31l-243 -213l271 -247h-33l-264 243h-1v-243h-22v756h22v-508zM266 -45l-58 -185h-17l51 185h24z" />
    <glyph glyph-name="kgreenlandic" unicode="&#x138;" horiz-adv-x="445" 
d="M124 248h1l238 212h31l-243 -213l271 -247h-33l-264 243h-1v-243h-22v460h22v-212z" />
    <glyph glyph-name="Lacute" unicode="&#x139;" horiz-adv-x="498" 
d="M480 0h-374v708h22v-688h352v-20zM236 908l-111 -144h-19l103 144h27z" />
    <glyph glyph-name="lacute" unicode="&#x13a;" horiz-adv-x="226" 
d="M124 0h-22v756h22v-756zM232 936l-111 -144h-19l103 144h27z" />
    <glyph glyph-name="Lcommaaccent" unicode="&#x13b;" horiz-adv-x="498" 
d="M480 0h-374v708h22v-688h352v-20zM308 -45l-58 -185h-17l51 185h24z" />
    <glyph glyph-name="lcommaaccent" unicode="&#x13c;" horiz-adv-x="226" 
d="M124 0h-22v756h22v-756zM140 -46l-58 -185h-17l51 185h24z" />
    <glyph glyph-name="Lcaron" unicode="&#x13d;" horiz-adv-x="498" 
d="M480 0h-374v708h22v-688h352v-20zM284 708l-58 -185h-17l51 185h24z" />
    <glyph glyph-name="lcaron" unicode="&#x13e;" horiz-adv-x="246" 
d="M124 0h-22v756h22v-756zM254 708l-58 -185h-17l51 185h24z" />
    <glyph glyph-name="Ldot" unicode="&#x13f;" horiz-adv-x="498" 
d="M480 0h-374v708h22v-688h352v-20zM281 413q-9 0 -16 7t-7 19q0 10 7 17.5t16 7.5t16 -7.5t7 -17.5q0 -11 -7 -18.5t-16 -7.5z" />
    <glyph glyph-name="ldot" unicode="&#x140;" horiz-adv-x="243" 
d="M124 0h-22v756h22v-756zM210 443q-9 0 -16 7t-7 19q0 10 7 17.5t16 7.5t16 -7.5t7 -17.5q0 -11 -7 -18.5t-16 -7.5z" />
    <glyph glyph-name="Lslash" unicode="&#x141;" horiz-adv-x="498" 
d="M106 258l-65 -60v27l65 60v423h22v-406l207 186v-24l-207 -189v-255h352v-20h-374v258z" />
    <glyph glyph-name="lslash" unicode="&#x142;" horiz-adv-x="226" 
d="M106 362l-65 -60v27l65 60v367h22v-350l73 63v-24l-73 -66v-379h-22v362z" />
    <glyph glyph-name="Nacute" unicode="&#x143;" horiz-adv-x="777" 
d="M671 0h-32l-508 680h-3v-680h-22v708h31l509 -679h3v679h22v-708zM497 908l-111 -144h-19l103 144h27z" />
    <glyph glyph-name="nacute" unicode="&#x144;" horiz-adv-x="572" 
d="M128 339q21 63 71 99t111 36q88 0 127 -56.5t39 -139.5v-278h-22v276q0 32 -6.5 60.5t-21.5 56.5t-45 45t-71 17q-78 0 -130.5 -61t-52.5 -164v-230h-22v344q0 73 -5 116h22q4 -52 4 -121h2zM395 708l-111 -144h-19l103 144h27z" />
    <glyph glyph-name="Ncommaaccent" unicode="&#x145;" horiz-adv-x="777" 
d="M671 0h-32l-508 680h-3v-680h-22v708h31l509 -679h3v679h22v-708zM402 -45l-58 -185h-17l51 185h24z" />
    <glyph glyph-name="ncommaaccent" unicode="&#x146;" horiz-adv-x="572" 
d="M128 339q21 63 71 99t111 36q88 0 127 -56.5t39 -139.5v-278h-22v276q0 32 -6.5 60.5t-21.5 56.5t-45 45t-71 17q-78 0 -130.5 -61t-52.5 -164v-230h-22v344q0 73 -5 116h22q4 -52 4 -121h2zM315 -45l-58 -185h-17l51 185h24z" />
    <glyph glyph-name="Ncaron" unicode="&#x147;" horiz-adv-x="777" 
d="M671 0h-32l-508 680h-3v-680h-22v708h31l509 -679h3v679h22v-708zM402 764h-28l-103 144h23l94 -132l94 132h23z" />
    <glyph glyph-name="ncaron" unicode="&#x148;" horiz-adv-x="572" 
d="M128 339q21 63 71 99t111 36q88 0 127 -56.5t39 -139.5v-278h-22v276q0 32 -6.5 60.5t-21.5 56.5t-45 45t-71 17q-78 0 -130.5 -61t-52.5 -164v-230h-22v344q0 73 -5 116h22q4 -52 4 -121h2zM307 564h-28l-103 144h23l94 -132l94 132h23z" />
    <glyph glyph-name="Eng" unicode="&#x14a;" horiz-adv-x="777" 
d="M671 -97q0 -75 -23.5 -109.5t-88.5 -34.5q-17 0 -29 3l4 19q14 -3 25 -3q30 0 49.5 10t27.5 30t10.5 38t2.5 45v89l-518 690h-3v-680h-22v708h31l510 -677h2v677h22v-805z" />
    <glyph glyph-name="eng" unicode="&#x14b;" horiz-adv-x="572" 
d="M476 -97q0 -75 -23.5 -109.5t-88.5 -34.5q-17 0 -29 3l4 19q14 -3 25 -3q30 0 49.5 10t27.5 30t10.5 38t2.5 45v375q0 32 -6.5 60.5t-21.5 56.5t-45 45t-71 17q-78 0 -130.5 -61t-52.5 -164v-230h-22v344q0 73 -5 116h22q4 -52 4 -121h2q21 63 71 99t111 36
q88 0 127 -56.5t39 -139.5v-375z" />
    <glyph glyph-name="Omacron" unicode="&#x14c;" horiz-adv-x="872" 
d="M800 354q0 -163 -103.5 -268.5t-260.5 -105.5t-260.5 105.5t-103.5 268.5t103 268.5t261 105.5t261 -105.5t103 -268.5zM778 354q0 150 -96.5 252t-245.5 102t-245.5 -102t-96.5 -252t96 -252t246 -102q151 0 246.5 102t95.5 252zM554 821h-232v20h232v-20z" />
    <glyph glyph-name="omacron" unicode="&#x14d;" horiz-adv-x="605" 
d="M543 231q0 -107 -67.5 -176t-173.5 -69t-173 69t-67 176t67 175t173 68t173.5 -68t67.5 -175zM521 231q0 96 -60 160t-159 64t-158.5 -64t-59.5 -160t59.5 -161t158.5 -65t159 65t60 161zM417 621h-232v20h232v-20z" />
    <glyph glyph-name="Obreve" unicode="&#x14e;" horiz-adv-x="872" 
d="M800 354q0 -163 -103.5 -268.5t-260.5 -105.5t-260.5 105.5t-103.5 268.5t103 268.5t261 105.5t261 -105.5t103 -268.5zM778 354q0 150 -96.5 252t-245.5 102t-245.5 -102t-96.5 -252t96 -252t246 -102q151 0 246.5 102t95.5 252zM561 898q-10 -60 -43.5 -93t-83.5 -33
t-83.5 33t-40.5 93h19q10 -51 37.5 -78.5t67.5 -27.5q44 0 70.5 25.5t38.5 80.5h18z" />
    <glyph glyph-name="obreve" unicode="&#x14f;" horiz-adv-x="605" 
d="M543 231q0 -107 -67.5 -176t-173.5 -69t-173 69t-67 176t67 175t173 68t173.5 -68t67.5 -175zM521 231q0 96 -60 160t-159 64t-158.5 -64t-59.5 -160t59.5 -161t158.5 -65t159 65t60 161zM428 698q-10 -60 -43.5 -93t-83.5 -33t-83.5 33t-40.5 93h19q10 -51 37.5 -78.5
t67.5 -27.5q44 0 70.5 25.5t38.5 80.5h18z" />
    <glyph glyph-name="Ohungarumlaut" unicode="&#x150;" horiz-adv-x="872" 
d="M800 354q0 -163 -103.5 -268.5t-260.5 -105.5t-260.5 105.5t-103.5 268.5t103 268.5t261 105.5t261 -105.5t103 -268.5zM778 354q0 150 -96.5 252t-245.5 102t-245.5 -102t-96.5 -252t96 -252t246 -102q151 0 246.5 102t95.5 252zM495 908l-111 -145h-19l103 145h27z
M612 908l-111 -145h-19l103 145h27z" />
    <glyph glyph-name="ohungarumlaut" unicode="&#x151;" horiz-adv-x="605" 
d="M543 231q0 -107 -67.5 -176t-173.5 -69t-173 69t-67 176t67 175t173 68t173.5 -68t67.5 -175zM521 231q0 96 -60 160t-159 64t-158.5 -64t-59.5 -160t59.5 -161t158.5 -65t159 65t60 161zM359 708l-111 -145h-19l103 145h27zM476 708l-111 -145h-19l103 145h27z" />
    <glyph glyph-name="OE" unicode="&#x152;" horiz-adv-x="978" 
d="M532 688h-64q-167 0 -270 -83.5t-103 -250.5q0 -168 103 -251t270 -83h64v668zM922 0h-459q-175 0 -283 89t-108 265q0 89 30 158t83.5 111t123.5 63.5t154 21.5h443v-20h-353v-311h331v-20h-331v-337h369v-20z" />
    <glyph glyph-name="oe" unicode="&#x153;" horiz-adv-x="1012" 
d="M530 316q22 72 78 115t129 43q102 0 157.5 -65.5t55.5 -154.5v-19h-409q0 -92 53.5 -160.5t152.5 -68.5q105 0 169 84l16 -14q-70 -90 -185 -90q-79 0 -136.5 44t-79.5 118q-23 -74 -84 -118t-145 -44q-106 0 -173 69t-67 176t67 175t173 68q83 0 144 -42.5t84 -115.5z
M929 254q-2 90 -55 145.5t-138 55.5q-49 0 -88.5 -21.5t-61 -53.5t-33 -65t-11.5 -61h387zM520 231q0 96 -59.5 160t-158.5 64t-158.5 -64t-59.5 -160t59.5 -161t158.5 -65t158.5 65t59.5 161z" />
    <glyph glyph-name="Racute" unicode="&#x154;" horiz-adv-x="594" 
d="M533 0h-25l-214 357h-166v-357h-22v708h196q43 0 79.5 -7.5t70.5 -26t53 -54.5t19 -87q0 -47 -18.5 -82.5t-50 -54.5t-66 -28.5t-71.5 -9.5zM502 533q0 156 -212 156h-162v-313h173q97 0 149 41t52 116zM369 908l-111 -144h-19l103 144h27z" />
    <glyph glyph-name="racute" unicode="&#x155;" horiz-adv-x="317" 
d="M128 339q19 68 62 101.5t97 33.5q12 0 18 -1v-19q-5 1 -13 1q-55 0 -93.5 -34t-55 -81.5t-16.5 -101.5v-238h-22v344q0 73 -5 116h22q4 -52 4 -121h2zM255 708l-111 -144h-19l103 144h27z" />
    <glyph glyph-name="Rcommaaccent" unicode="&#x156;" horiz-adv-x="594" 
d="M533 0h-25l-214 357h-166v-357h-22v708h196q43 0 79.5 -7.5t70.5 -26t53 -54.5t19 -87q0 -47 -18.5 -82.5t-50 -54.5t-66 -28.5t-71.5 -9.5zM502 533q0 156 -212 156h-162v-313h173q97 0 149 41t52 116zM322 -45l-58 -185h-17l51 185h24z" />
    <glyph glyph-name="rcommaaccent" unicode="&#x157;" horiz-adv-x="317" 
d="M128 339q19 68 62 101.5t97 33.5q12 0 18 -1v-19q-5 1 -13 1q-55 0 -93.5 -34t-55 -81.5t-16.5 -101.5v-238h-22v344q0 73 -5 116h22q4 -52 4 -121h2zM143 -46l-58 -185h-17l51 185h24z" />
    <glyph glyph-name="Rcaron" unicode="&#x158;" horiz-adv-x="594" 
d="M533 0h-25l-214 357h-166v-357h-22v708h196q43 0 79.5 -7.5t70.5 -26t53 -54.5t19 -87q0 -47 -18.5 -82.5t-50 -54.5t-66 -28.5t-71.5 -9.5zM502 533q0 156 -212 156h-162v-313h173q97 0 149 41t52 116zM283 764h-28l-103 144h23l94 -132l94 132h23z" />
    <glyph glyph-name="rcaron" unicode="&#x159;" horiz-adv-x="317" 
d="M128 339q19 68 62 101.5t97 33.5q12 0 18 -1v-19q-5 1 -13 1q-55 0 -93.5 -34t-55 -81.5t-16.5 -101.5v-238h-22v344q0 73 -5 116h22q4 -52 4 -121h2zM208 564h-28l-103 144h23l94 -132l94 132h23z" />
    <glyph glyph-name="Sacute" unicode="&#x15a;" horiz-adv-x="570" 
d="M498 170q0 -88 -62 -139t-153 -51q-132 0 -211 87l17 15q77 -82 193 -82q82 0 138 46t56 124q0 39 -15.5 68.5t-47 49.5t-58.5 31.5t-71 25.5q-101 32 -150 73.5t-49 124.5q0 85 63 135t155 50q118 0 182 -79l-17 -15q-58 74 -166 74q-78 0 -136.5 -43.5t-58.5 -121.5
q0 -39 14 -69t42.5 -50t54 -31.5t65.5 -24.5q43 -14 69.5 -24t57.5 -27.5t48 -36t28.5 -47t11.5 -63.5zM393 908l-111 -144h-19l103 144h27z" />
    <glyph glyph-name="sacute" unicode="&#x15b;" horiz-adv-x="415" 
d="M361 120q0 -60 -43 -96t-107 -36q-106 0 -161 77l18 12q50 -70 144 -70q49 0 88 30t39 81q0 14 -2.5 26t-9.5 21.5t-12.5 17t-17.5 14t-19 10.5t-22.5 9t-21.5 7t-23 6.5t-21 5.5q-60 16 -90.5 41t-30.5 80q0 56 42 87t99 31q94 0 141 -67l-19 -11q-44 59 -122 59
q-45 0 -82 -24t-37 -74q0 -28 8 -46t27.5 -30t36 -17.5t50.5 -14.5q5 -1 8 -2q32 -8 53.5 -16.5t43 -23t32.5 -36.5t11 -51zM308 708l-111 -144h-19l103 144h27z" />
    <glyph glyph-name="Scircumflex" unicode="&#x15c;" horiz-adv-x="570" 
d="M498 170q0 -88 -62 -139t-153 -51q-132 0 -211 87l17 15q77 -82 193 -82q82 0 138 46t56 124q0 39 -15.5 68.5t-47 49.5t-58.5 31.5t-71 25.5q-101 32 -150 73.5t-49 124.5q0 85 63 135t155 50q118 0 182 -79l-17 -15q-58 74 -166 74q-78 0 -136.5 -43.5t-58.5 -121.5
q0 -39 14 -69t42.5 -50t54 -31.5t65.5 -24.5q43 -14 69.5 -24t57.5 -27.5t48 -36t28.5 -47t11.5 -63.5zM288 908h28l103 -144h-23l-94 132l-94 -132h-23z" />
    <glyph glyph-name="scircumflex" unicode="&#x15d;" horiz-adv-x="415" 
d="M361 120q0 -60 -43 -96t-107 -36q-106 0 -161 77l18 12q50 -70 144 -70q49 0 88 30t39 81q0 14 -2.5 26t-9.5 21.5t-12.5 17t-17.5 14t-19 10.5t-22.5 9t-21.5 7t-23 6.5t-21 5.5q-60 16 -90.5 41t-30.5 80q0 56 42 87t99 31q94 0 141 -67l-19 -11q-44 59 -122 59
q-45 0 -82 -24t-37 -74q0 -28 8 -46t27.5 -30t36 -17.5t50.5 -14.5q5 -1 8 -2q32 -8 53.5 -16.5t43 -23t32.5 -36.5t11 -51zM200 708h28l103 -144h-23l-94 132l-94 -132h-23z" />
    <glyph glyph-name="Scedilla" unicode="&#x15e;" horiz-adv-x="570" 
d="M384 -146q0 -43 -35 -61.5t-77 -18.5q-45 0 -90 20l5 17q35 -18 86 -18q90 0 90 61q0 51 -72 51q-42 0 -69 -15l-10 9l55 82q-123 6 -195 86l17 15q77 -82 193 -82q82 0 138 46t56 124q0 39 -15.5 68.5t-47 49.5t-58.5 31.5t-71 25.5q-101 32 -150 73.5t-49 124.5
q0 85 63 135t155 50q118 0 182 -79l-17 -15q-58 74 -166 74q-78 0 -136.5 -43.5t-58.5 -121.5q0 -39 14 -69t42.5 -50t54 -31.5t65.5 -24.5q43 -14 69.5 -24t57.5 -27.5t48 -36t28.5 -47t11.5 -63.5q0 -86 -60.5 -137t-149.5 -53l-45 -66q25 8 54 8q35 0 61 -16t26 -52z" />
    <glyph glyph-name="scedilla" unicode="&#x15f;" horiz-adv-x="415" 
d="M310 -146q0 -43 -35 -61.5t-77 -18.5q-45 0 -90 20l5 17q35 -18 86 -18q90 0 90 61q0 51 -72 51q-42 0 -69 -15l-10 9l60 89q-96 5 -148 77l18 12q50 -70 144 -70q49 0 88 30t39 81q0 14 -2.5 26t-9.5 21.5t-12.5 17t-17.5 14t-19 10.5t-22.5 9t-21.5 7t-23 6.5t-21 5.5
q-60 16 -90.5 41t-30.5 80q0 56 42 87t99 31q94 0 141 -67l-19 -11q-44 59 -122 59q-45 0 -82 -24t-37 -74q0 -28 8 -46t27.5 -30t36 -17.5t50.5 -14.5q5 -1 8 -2q32 -8 53.5 -16.5t43 -23t32.5 -36.5t11 -51q0 -57 -40.5 -93t-101.5 -39l-50 -74q25 8 54 8q35 0 61 -16
t26 -52z" />
    <glyph glyph-name="Scaron" unicode="&#x160;" horiz-adv-x="570" 
d="M498 170q0 -88 -62 -139t-153 -51q-132 0 -211 87l17 15q77 -82 193 -82q82 0 138 46t56 124q0 39 -15.5 68.5t-47 49.5t-58.5 31.5t-71 25.5q-101 32 -150 73.5t-49 124.5q0 85 63 135t155 50q118 0 182 -79l-17 -15q-58 74 -166 74q-78 0 -136.5 -43.5t-58.5 -121.5
q0 -39 14 -69t42.5 -50t54 -31.5t65.5 -24.5q43 -14 69.5 -24t57.5 -27.5t48 -36t28.5 -47t11.5 -63.5zM313 764h-28l-103 144h23l94 -132l94 132h23z" />
    <glyph glyph-name="scaron" unicode="&#x161;" horiz-adv-x="415" 
d="M361 120q0 -60 -43 -96t-107 -36q-106 0 -161 77l18 12q50 -70 144 -70q49 0 88 30t39 81q0 14 -2.5 26t-9.5 21.5t-12.5 17t-17.5 14t-19 10.5t-22.5 9t-21.5 7t-23 6.5t-21 5.5q-60 16 -90.5 41t-30.5 80q0 56 42 87t99 31q94 0 141 -67l-19 -11q-44 59 -122 59
q-45 0 -82 -24t-37 -74q0 -28 8 -46t27.5 -30t36 -17.5t50.5 -14.5q5 -1 8 -2q32 -8 53.5 -16.5t43 -23t32.5 -36.5t11 -51zM228 564h-28l-103 144h23l94 -132l94 132h23z" />
    <glyph glyph-name="uni0162" unicode="&#x162;" horiz-adv-x="540" 
d="M522 688h-241v-688h-22v688h-241v20h504v-20zM296 -45l-58 -185h-17l51 185h24z" />
    <glyph glyph-name="uni0163" unicode="&#x163;" horiz-adv-x="304" 
d="M280 -1q-29 -11 -59 -11q-51 0 -76 29t-25 78v346h-100v19h99v135h23v-135h135v-19h-135v-346q0 -88 84 -88q28 0 51 9zM214 -45l-58 -185h-17l51 185h24z" />
    <glyph glyph-name="Tcaron" unicode="&#x164;" horiz-adv-x="540" 
d="M522 688h-241v-688h-22v688h-241v20h504v-20zM284 764h-28l-103 144h23l94 -132l94 132h23z" />
    <glyph glyph-name="tcaron" unicode="&#x165;" horiz-adv-x="314" 
d="M280 -1q-29 -11 -59 -11q-51 0 -76 29t-25 78v346h-100v19h99v135h23v-135h135v-19h-135v-346q0 -88 84 -88q28 0 51 9zM305 731l-58 -185h-17l51 185h24z" />
    <glyph glyph-name="Tbar" unicode="&#x166;" horiz-adv-x="540" 
d="M480 527h-199v-527h-22v527h-199v18h199v143h-241v20h504v-20h-241v-143h199v-18z" />
    <glyph glyph-name="tbar" unicode="&#x167;" horiz-adv-x="304" 
d="M262 259h-120v-164q0 -88 84 -88q28 0 51 9l3 -17q-29 -11 -59 -11q-51 0 -76 29t-25 78v164h-92v18h92v164h-100v19h99v135h23v-135h135v-19h-135v-164h120v-18z" />
    <glyph glyph-name="Utilde" unicode="&#x168;" horiz-adv-x="732" 
d="M636 268q0 -131 -64.5 -209.5t-205.5 -78.5t-205.5 78.5t-64.5 209.5v440h22v-436q0 -38 5 -71.5t21 -72t42 -65.5t72 -45t108 -18q60 0 106 17.5t72.5 44.5t42.5 64.5t21.5 72t5.5 73.5v436h22v-440zM370 838q39 -24 59 -24q33 0 40 48h16q-7 -67 -56 -67q-26 0 -64 24
q-37 24 -59 24q-32 0 -40 -51h-16q4 34 19.5 52t36.5 18q25 0 64 -24z" />
    <glyph glyph-name="utilde" unicode="&#x169;" horiz-adv-x="572" 
d="M442 121q-21 -63 -71 -99t-111 -36q-88 0 -127 56.5t-39 139.5v278h22v-276q0 -32 6.5 -60.5t21.5 -56.5t45 -45t71 -17q78 0 130.5 61t52.5 164v230h22v-344q0 -73 5 -116h-22q-4 52 -4 121h-2zM285 638q39 -24 59 -24q33 0 40 48h16q-7 -67 -56 -67q-26 0 -64 24
q-37 24 -59 24q-32 0 -40 -51h-16q4 34 19.5 52t36.5 18q25 0 64 -24z" />
    <glyph glyph-name="Umacron" unicode="&#x16a;" horiz-adv-x="732" 
d="M636 268q0 -131 -64.5 -209.5t-205.5 -78.5t-205.5 78.5t-64.5 209.5v440h22v-436q0 -38 5 -71.5t21 -72t42 -65.5t72 -45t108 -18q60 0 106 17.5t72.5 44.5t42.5 64.5t21.5 72t5.5 73.5v436h22v-440zM483 821h-232v20h232v-20z" />
    <glyph glyph-name="umacron" unicode="&#x16b;" horiz-adv-x="572" 
d="M442 121q-21 -63 -71 -99t-111 -36q-88 0 -127 56.5t-39 139.5v278h22v-276q0 -32 6.5 -60.5t21.5 -56.5t45 -45t71 -17q78 0 130.5 61t52.5 164v230h22v-344q0 -73 5 -116h-22q-4 52 -4 121h-2zM397 621h-232v20h232v-20z" />
    <glyph glyph-name="Ubreve" unicode="&#x16c;" horiz-adv-x="732" 
d="M636 268q0 -131 -64.5 -209.5t-205.5 -78.5t-205.5 78.5t-64.5 209.5v440h22v-436q0 -38 5 -71.5t21 -72t42 -65.5t72 -45t108 -18q60 0 106 17.5t72.5 44.5t42.5 64.5t21.5 72t5.5 73.5v436h22v-440zM493 898q-10 -60 -43.5 -93t-83.5 -33t-83.5 33t-40.5 93h19
q10 -51 37.5 -78.5t67.5 -27.5q44 0 70.5 25.5t38.5 80.5h18z" />
    <glyph glyph-name="ubreve" unicode="&#x16d;" horiz-adv-x="572" 
d="M442 121q-21 -63 -71 -99t-111 -36q-88 0 -127 56.5t-39 139.5v278h22v-276q0 -32 6.5 -60.5t21.5 -56.5t45 -45t71 -17q78 0 130.5 61t52.5 164v230h22v-344q0 -73 5 -116h-22q-4 52 -4 121h-2zM406 698q-10 -60 -43.5 -93t-83.5 -33t-83.5 33t-40.5 93h19
q10 -51 37.5 -78.5t67.5 -27.5q44 0 70.5 25.5t38.5 80.5h18z" />
    <glyph glyph-name="Uring" unicode="&#x16e;" horiz-adv-x="732" 
d="M636 268q0 -131 -64.5 -209.5t-205.5 -78.5t-205.5 78.5t-64.5 209.5v440h22v-436q0 -38 5 -71.5t21 -72t42 -65.5t72 -45t108 -18q60 0 106 17.5t72.5 44.5t42.5 64.5t21.5 72t5.5 73.5v436h22v-440zM464 850q0 -40 -28.5 -67.5t-67.5 -27.5t-67.5 27.5t-28.5 67.5
t28.5 67.5t67.5 27.5t67.5 -27.5t28.5 -67.5zM445 850q0 32 -22.5 55t-54.5 23t-54.5 -23t-22.5 -55t22.5 -55t54.5 -23t54.5 23t22.5 55z" />
    <glyph glyph-name="uring" unicode="&#x16f;" horiz-adv-x="572" 
d="M442 121q-21 -63 -71 -99t-111 -36q-88 0 -127 56.5t-39 139.5v278h22v-276q0 -32 6.5 -60.5t21.5 -56.5t45 -45t71 -17q78 0 130.5 61t52.5 164v230h22v-344q0 -73 5 -116h-22q-4 52 -4 121h-2zM377 650q0 -40 -28.5 -67.5t-67.5 -27.5t-67.5 27.5t-28.5 67.5t28.5 67.5
t67.5 27.5t67.5 -27.5t28.5 -67.5zM358 650q0 32 -22.5 55t-54.5 23t-54.5 -23t-22.5 -55t22.5 -55t54.5 -23t54.5 23t22.5 55z" />
    <glyph glyph-name="Uhungarumlaut" unicode="&#x170;" horiz-adv-x="732" 
d="M636 268q0 -131 -64.5 -209.5t-205.5 -78.5t-205.5 78.5t-64.5 209.5v440h22v-436q0 -38 5 -71.5t21 -72t42 -65.5t72 -45t108 -18q60 0 106 17.5t72.5 44.5t42.5 64.5t21.5 72t5.5 73.5v436h22v-440zM424 908l-111 -145h-19l103 145h27zM541 908l-111 -145h-19l103 145
h27z" />
    <glyph glyph-name="uhungarumlaut" unicode="&#x171;" horiz-adv-x="572" 
d="M442 121q-21 -63 -71 -99t-111 -36q-88 0 -127 56.5t-39 139.5v278h22v-276q0 -32 6.5 -60.5t21.5 -56.5t45 -45t71 -17q78 0 130.5 61t52.5 164v230h22v-344q0 -73 5 -116h-22q-4 52 -4 121h-2zM338 708l-111 -145h-19l103 145h27zM455 708l-111 -145h-19l103 145h27z
" />
    <glyph glyph-name="Uogonek" unicode="&#x172;" horiz-adv-x="732" 
d="M469 -176l10 -16q-34 -31 -82 -31q-36 0 -60 21.5t-24 58.5q0 52 72 124q-6 -1 -19 -1q-141 0 -205.5 78.5t-64.5 209.5v440h22v-436q0 -38 5 -71.5t21 -72t42 -65.5t72 -45t108 -18q60 0 106 17.5t72.5 44.5t42.5 64.5t21.5 72t5.5 73.5v436h22v-440q0 -119 -53.5 -196
t-171.5 -89q-41 -41 -58.5 -68t-17.5 -56q0 -30 17.5 -47t47.5 -17q42 0 69 29z" />
    <glyph glyph-name="uogonek" unicode="&#x173;" horiz-adv-x="572" 
d="M511 -176l10 -16q-34 -31 -82 -31q-36 0 -60 21.5t-24 58.5q0 35 23.5 67.5t68.5 75.5h1q-4 52 -4 121h-2q-21 -63 -71 -99t-111 -36q-88 0 -127 56.5t-39 139.5v278h22v-276q0 -32 6.5 -60.5t21.5 -56.5t45 -45t71 -17q78 0 130.5 61t52.5 164v230h22v-344q0 -73 5 -116
q-52 -52 -72.5 -81t-20.5 -60q0 -30 17.5 -47t47.5 -17q42 0 69 29z" />
    <glyph glyph-name="Wcircumflex" unicode="&#x174;" horiz-adv-x="956" 
d="M928 708l-212 -708h-34l-205 687h-2l-201 -687h-34l-212 708h23l204 -688h3l201 688h34l205 -688h3l204 688h23zM462 908h28l103 -144h-23l-94 132l-94 -132h-23z" />
    <glyph glyph-name="wcircumflex" unicode="&#x175;" horiz-adv-x="698" 
d="M664 460l-135 -460h-30l-150 436h-2l-149 -436h-30l-134 460h23l126 -438h2l148 438h31l149 -438h2l126 438h23zM334 708h28l103 -144h-23l-94 132l-94 -132h-23z" />
    <glyph glyph-name="Ycircumflex" unicode="&#x176;" horiz-adv-x="538" 
d="M523 708l-243 -398v-310h-22v310l-243 398h26l229 -376l228 376h25zM256 908h28l103 -144h-23l-94 132l-94 -132h-23z" />
    <glyph glyph-name="ycircumflex" unicode="&#x177;" horiz-adv-x="428" 
d="M404 460l-228 -612q-33 -90 -111 -90q-23 0 -41 7l6 19q16 -6 37 -6q63 0 95 89l44 120l-182 473h24l169 -448l163 448h24zM204 708h28l103 -144h-23l-94 132l-94 -132h-23z" />
    <glyph glyph-name="Ydieresis" unicode="&#x178;" horiz-adv-x="538" 
d="M523 708l-243 -398v-310h-22v310l-243 398h26l229 -376l228 376h25zM193 833q-9 0 -16 7t-7 19q0 10 7 17.5t16 7.5t16 -7.5t7 -17.5q0 -11 -7 -18.5t-16 -7.5zM347 833q-9 0 -16 7t-7 19q0 10 7 17.5t16 7.5t16 -7.5t7 -17.5q0 -11 -7 -18.5t-16 -7.5z" />
    <glyph glyph-name="Zacute" unicode="&#x179;" horiz-adv-x="594" 
d="M552 0h-498v27l466 661h-453v20h473v-29l-465 -659h477v-20zM409 908l-111 -144h-19l103 144h27z" />
    <glyph glyph-name="zacute" unicode="&#x17a;" horiz-adv-x="438" 
d="M387 0h-338v21l304 420h-288v19h310v-22l-301 -419h313v-19zM327 708l-111 -144h-19l103 144h27z" />
    <glyph glyph-name="Zdotaccent" unicode="&#x17b;" horiz-adv-x="594" 
d="M552 0h-498v27l466 661h-453v20h473v-29l-465 -659h477v-20zM305 833q-9 0 -16 7t-7 19q0 10 7 17.5t16 7.5t16 -7.5t7 -17.5q0 -11 -7 -18.5t-16 -7.5z" />
    <glyph glyph-name="zdotaccent" unicode="&#x17c;" horiz-adv-x="438" 
d="M387 0h-338v21l304 420h-288v19h310v-22l-301 -419h313v-19zM223 633q-9 0 -16 7t-7 19q0 10 7 17.5t16 7.5t16 -7.5t7 -17.5q0 -11 -7 -18.5t-16 -7.5z" />
    <glyph glyph-name="Zcaron" unicode="&#x17d;" horiz-adv-x="594" 
d="M552 0h-498v27l466 661h-453v20h473v-29l-465 -659h477v-20zM317 764h-28l-103 144h23l94 -132l94 132h23z" />
    <glyph glyph-name="zcaron" unicode="&#x17e;" horiz-adv-x="438" 
d="M387 0h-338v21l304 420h-288v19h310v-22l-301 -419h313v-19zM237 564h-28l-103 144h23l94 -132l94 132h23z" />
    <glyph glyph-name="florin" unicode="&#x192;" horiz-adv-x="560" 
d="M484 701l-12 -18q-23 18 -54 18q-84 0 -105 -112l-33 -181h118v-19h-121l-74 -409q-11 -61 -38 -92.5t-81 -31.5q-37 0 -58 13l10 19q24 -12 48 -12q48 0 70 32.5t33 96.5l68 384h-111v19h114l31 173q25 139 128 139q43 0 67 -19z" />
    <glyph glyph-name="Scommaaccent" unicode="&#x218;" horiz-adv-x="570" 
d="M498 170q0 -88 -62 -139t-153 -51q-132 0 -211 87l17 15q77 -82 193 -82q82 0 138 46t56 124q0 39 -15.5 68.5t-47 49.5t-58.5 31.5t-71 25.5q-101 32 -150 73.5t-49 124.5q0 85 63 135t155 50q118 0 182 -79l-17 -15q-58 74 -166 74q-78 0 -136.5 -43.5t-58.5 -121.5
q0 -39 14 -69t42.5 -50t54 -31.5t65.5 -24.5q43 -14 69.5 -24t57.5 -27.5t48 -36t28.5 -47t11.5 -63.5zM314 -45l-58 -185h-17l51 185h24z" />
    <glyph glyph-name="scommaaccent" unicode="&#x219;" horiz-adv-x="415" 
d="M361 120q0 -60 -43 -96t-107 -36q-106 0 -161 77l18 12q50 -70 144 -70q49 0 88 30t39 81q0 14 -2.5 26t-9.5 21.5t-12.5 17t-17.5 14t-19 10.5t-22.5 9t-21.5 7t-23 6.5t-21 5.5q-60 16 -90.5 41t-30.5 80q0 56 42 87t99 31q94 0 141 -67l-19 -11q-44 59 -122 59
q-45 0 -82 -24t-37 -74q0 -28 8 -46t27.5 -30t36 -17.5t50.5 -14.5q5 -1 8 -2q32 -8 53.5 -16.5t43 -23t32.5 -36.5t11 -51zM234 -45l-58 -185h-17l51 185h24z" />
    <glyph glyph-name="uni021A" unicode="&#x21a;" horiz-adv-x="540" 
d="M522 688h-241v-688h-22v688h-241v20h504v-20zM296 -45l-58 -185h-17l51 185h24z" />
    <glyph glyph-name="uni021B" unicode="&#x21b;" horiz-adv-x="304" 
d="M280 -1q-29 -11 -59 -11q-51 0 -76 29t-25 78v346h-100v19h99v135h23v-135h135v-19h-135v-346q0 -88 84 -88q28 0 51 9zM214 -45l-58 -185h-17l51 185h24z" />
    <glyph glyph-name="dotlessj" unicode="&#x237;" horiz-adv-x="226" 
d="M124 -97q0 -75 -23.5 -109.5t-88.5 -34.5q-17 0 -29 3l4 19q14 -3 25 -3q30 0 49.5 10t27.5 30t10.5 38t2.5 45v559h22v-557z" />
    <glyph glyph-name="circumflex" unicode="&#x2c6;" horiz-adv-x="240" 
d="M106 708h28l103 -144h-23l-94 132l-94 -132h-23z" />
    <glyph glyph-name="caron" unicode="&#x2c7;" horiz-adv-x="240" 
d="M134 564h-28l-103 144h23l94 -132l94 132h23z" />
    <glyph glyph-name="uni02C9" unicode="&#x2c9;" horiz-adv-x="240" 
d="M236 821h-232v20h232v-20z" />
    <glyph glyph-name="breve" unicode="&#x2d8;" horiz-adv-x="240" 
d="M245 698q-10 -60 -43.5 -93t-83.5 -33t-83.5 33t-40.5 93h19q10 -51 37.5 -78.5t67.5 -27.5q44 0 70.5 25.5t38.5 80.5h18z" />
    <glyph glyph-name="dotaccent" unicode="&#x2d9;" horiz-adv-x="240" 
d="M120 633q-9 0 -16 7t-7 19q0 10 7 17.5t16 7.5t16 -7.5t7 -17.5q0 -11 -7 -18.5t-16 -7.5z" />
    <glyph glyph-name="ring" unicode="&#x2da;" horiz-adv-x="240" 
d="M216 650q0 -40 -28.5 -67.5t-67.5 -27.5t-67.5 27.5t-28.5 67.5t28.5 67.5t67.5 27.5t67.5 -27.5t28.5 -67.5zM197 650q0 32 -22.5 55t-54.5 23t-54.5 -23t-22.5 -55t22.5 -55t54.5 -23t54.5 23t22.5 55z" />
    <glyph glyph-name="ogonek" unicode="&#x2db;" horiz-adv-x="240" 
d="M196 -176l10 -16q-34 -31 -82 -31q-36 0 -60 21.5t-24 58.5q0 35 23.5 67.5t68.5 75.5h23q-52 -52 -72.5 -81t-20.5 -60q0 -30 17.5 -47t47.5 -17q42 0 69 29z" />
    <glyph glyph-name="tilde" unicode="&#x2dc;" horiz-adv-x="240" 
d="M123 638q39 -24 59 -24q33 0 40 48h16q-7 -67 -56 -67q-26 0 -64 24q-37 24 -59 24q-32 0 -40 -51h-16q4 34 19.5 52t36.5 18q25 0 64 -24z" />
    <glyph glyph-name="hungarumlaut" unicode="&#x2dd;" horiz-adv-x="240" 
d="M171 708l-111 -145h-19l103 145h27zM288 708l-111 -145h-19l103 145h27z" />
    <glyph glyph-name="uni0394" unicode="&#x394;" horiz-adv-x="670" 
d="M648 0h-626v18l305 690h28l293 -690v-18zM623 20l-283 674l-293 -674h576z" />
    <glyph glyph-name="uni03A9" unicode="&#x3a9;" horiz-adv-x="777" 
d="M389 707q-127 0 -210.5 -80t-83.5 -221q0 -105 59.5 -183t156.5 -102v-121h-231v20h211v85q-91 27 -155 104t-64 198q0 151 90.5 236t226.5 85t226 -85.5t90 -236.5q0 -111 -60.5 -192t-158.5 -109v-85h211v-20h-231v121q97 24 156.5 102t59.5 183q0 141 -83 221t-210 80
z" />
    <glyph glyph-name="uni03BC" unicode="&#x3bc;" horiz-adv-x="591" 
d="M102 460h22v-276q0 -32 6.5 -60.5t21.5 -56.5t45 -45t71 -17q78 0 130.5 61.5t52.5 163.5v230h22v-382q0 -43 11.5 -57t38.5 -14q13 0 25 3l3 -17q-12 -5 -29 -5q-25 0 -40 7.5t-21.5 23t-8 28t-1.5 34.5v40h-1q-22 -63 -71.5 -99t-110.5 -36q-105 0 -142 82h-2v-308h-22
v700z" />
    <glyph glyph-name="pi" unicode="&#x3c0;" horiz-adv-x="619" 
d="M438 440v-347q0 -43 12.5 -64.5t49.5 -21.5q23 0 47 9l3 -17q-25 -11 -53 -11q-47 0 -63.5 27.5t-16.5 75.5v349h-232l-70 -440h-22l71 440h-134v20h539v-20h-131z" />
    <glyph glyph-name="uni0400" unicode="&#x400;" horiz-adv-x="590" 
d="M106 0v708h412v-20h-391v-311h368v-20h-368v-337h407v-20h-428zM206 908h27l103 -144h-19z" />
    <glyph glyph-name="uni0401" unicode="&#x401;" horiz-adv-x="590" 
d="M106 0v708h412v-20h-391v-311h368v-20h-368v-337h407v-20h-428zM238 833q-9 0 -16 7t-7 19q0 10 7 17.5t16 7.5t16 -7.5t7 -17.5q0 -11 -7 -18.5t-16 -7.5zM392 833q-9 0 -16 7t-7 19q0 10 7 17.5t16 7.5t16 -7.5t7 -17.5q0 -11 -7 -18.5t-16 -7.5z" />
    <glyph glyph-name="uni0402" unicode="&#x402;" horiz-adv-x="772" 
d="M463 -9q-39 0 -72 7l6 21q35 -8 66 -8q109 0 170.5 49t61.5 142q0 94 -62 142.5t-173 48.5q-40 0 -95.5 -8.5t-83.5 -17.5v-367h-22v688h-241v20h504v-20h-241v-300q87 25 179 25q121 0 189 -54t68 -157q0 -102 -67 -156.5t-187 -54.5z" />
    <glyph glyph-name="uni0403" unicode="&#x403;" horiz-adv-x="490" 
d="M379 908l-111 -144h-19l103 144h27zM106 0v708h366v-20h-344v-688h-22z" />
    <glyph glyph-name="uni0404" unicode="&#x404;" horiz-adv-x="724" 
d="M433 -20q-159 0 -260 105.5t-101 268.5t101.5 268.5t259.5 105.5q148 0 235 -91l-14 -16q-40 43 -100.5 65t-120.5 22q-143 0 -236.5 -94.5t-101.5 -236.5h402v-20h-403v-3q0 -150 94 -252t245 -102q68 0 132.5 26.5t104.5 75.5l16 -15q-43 -52 -111 -79.5t-142 -27.5z
" />
    <glyph glyph-name="uni0405" unicode="&#x405;" horiz-adv-x="570" 
d="M283 -20q-132 0 -211 87l17 15q77 -82 193 -82q82 0 138 46t56 124q0 39 -15.5 68.5t-47 49.5t-58.5 31.5t-71 25.5q-101 32 -150 73.5t-49 124.5q0 85 63 135t155 50q118 0 182 -79l-17 -15q-58 74 -166 74q-78 0 -136.5 -43.5t-58.5 -121.5q0 -39 14 -69t42.5 -50
t54 -31.5t65.5 -24.5q43 -14 69.5 -24t57.5 -27.5t48 -36t28.5 -47t11.5 -63.5q0 -88 -62 -139t-153 -51z" />
    <glyph glyph-name="uni0406" unicode="&#x406;" horiz-adv-x="234" 
d="M106 0v708h22v-708h-22z" />
    <glyph glyph-name="uni0407" unicode="&#x407;" horiz-adv-x="234" 
d="M106 0v708h22v-708h-22zM40 833q-9 0 -16 7t-7 19q0 10 7 17.5t16 7.5t16 -7.5t7 -17.5q0 -11 -7 -18.5t-16 -7.5zM194 833q-9 0 -16 7t-7 19q0 10 7 17.5t16 7.5t16 -7.5t7 -17.5q0 -11 -7 -18.5t-16 -7.5z" />
    <glyph glyph-name="uni0408" unicode="&#x408;" horiz-adv-x="480" 
d="M197 -18q-60 0 -105 31.5t-63 79.5l19 9q20 -46 59.5 -73t89.5 -27q82 0 120.5 52.5t38.5 141.5v512h22v-515q0 -99 -46.5 -155t-134.5 -56z" />
    <glyph glyph-name="uni0409" unicode="&#x409;" horiz-adv-x="1096" 
d="M53 -7q-22 0 -43 5l5 20q25 -5 38 -5q56 0 93.5 35t58 107.5t29 165.5t8.5 225v162h395v-325h187q88 0 152.5 -49t64.5 -147q0 -52 -20.5 -90t-55.5 -58t-73.5 -29.5t-82.5 -9.5h-194v688h-351v-142q0 -138 -9.5 -234t-32.5 -171t-65 -111.5t-104 -36.5zM637 20h172
q40 0 75 8.5t66.5 26.5t50 52t18.5 80q0 88 -58 132t-137 44h-187v-343z" />
    <glyph glyph-name="uni040A" unicode="&#x40a;" horiz-adv-x="1085" 
d="M106 0v708h22v-325h476v325h22v-325h187q88 0 152.5 -49t64.5 -147q0 -52 -20.5 -90t-55.5 -58t-73.5 -29.5t-82.5 -9.5h-194v363h-476v-363h-22zM626 20h172q40 0 75 8.5t66.5 26.5t50 52t18.5 80q0 88 -58 132t-137 44h-187v-343z" />
    <glyph glyph-name="uni040B" unicode="&#x40b;" horiz-adv-x="770" 
d="M259 0v688h-241v20h504v-20h-241v-299q85 24 183 24q108 0 159 -45.5t51 -120.5v-247h-22v247q0 66 -45.5 106t-142.5 40q-102 0 -183 -24v-369h-22z" />
    <glyph glyph-name="uni040C" unicode="&#x40c;" horiz-adv-x="565" 
d="M396 908l-111 -144h-19l103 144h27zM106 0v708h22v-325h1l356 325h32l-360 -325l378 -383h-31l-375 381h-1v-381h-22z" />
    <glyph glyph-name="uni040D" unicode="&#x40d;" horiz-adv-x="747" 
d="M106 0v708h22v-680h3l478 680h32v-708h-22v679h-3l-479 -679h-31zM265 908h27l103 -144h-19z" />
    <glyph glyph-name="uni040E" unicode="&#x40e;" horiz-adv-x="605" 
d="M116 -6q-26 0 -44 7l6 19q16 -6 38 -6q68 0 112 79l67 123l-279 492h25l266 -469l257 469h25l-342 -625q-25 -46 -56 -67.5t-75 -21.5zM307 772q-52 0 -85 34t-40 85l17 3q22 -102 108 -102t108 102l17 -3q-7 -51 -40 -85t-85 -34z" />
    <glyph glyph-name="uni040F" unicode="&#x40f;" horiz-adv-x="722" 
d="M350 -186v186h-244v708h22v-688h466v688h22v-708h-244v-186h-22z" />
    <glyph glyph-name="uni0410" unicode="&#x410;" horiz-adv-x="666" 
d="M18 0l307 708h28l295 -708h-24l-84 203h-411l-87 -203h-24zM137 222h396l-195 472z" />
    <glyph glyph-name="uni0411" unicode="&#x411;" horiz-adv-x="603" 
d="M106 0v708h386v-20h-364v-305h197q88 0 152.5 -49t64.5 -147q0 -52 -20.5 -90t-55.5 -58t-73.5 -29.5t-82.5 -9.5h-204zM128 20h182q40 0 75 8.5t66.5 26.5t50 52t18.5 80q0 88 -58 132t-137 44h-197v-343z" />
    <glyph glyph-name="uni0412" unicode="&#x412;" horiz-adv-x="612" 
d="M106 0v708h193q43 0 80 -8t69.5 -26.5t51 -52t18.5 -80.5q0 -70 -41 -110.5t-103 -54.5v-2q66 -6 121.5 -53t55.5 -132q0 -54 -21 -93t-56 -58.5t-72.5 -28.5t-78.5 -9h-217zM128 20h185q98 0 157 41t59 125q0 61 -33.5 102.5t-78 58t-93.5 16.5h-196v-343zM128 383h170
q81 0 139.5 39.5t58.5 115.5q0 80 -56.5 115t-146.5 35h-165v-305z" />
    <glyph glyph-name="uni0413" unicode="&#x413;" horiz-adv-x="490" 
d="M106 0v708h366v-20h-344v-688h-22z" />
    <glyph glyph-name="uni0414" unicode="&#x414;" horiz-adv-x="729" 
d="M18 -186v206h54q138 133 138 487v201h405v-688h82v-206h-22v186h-635v-186h-22zM101 20h492v668h-361v-181q0 -347 -131 -487z" />
    <glyph glyph-name="uni0415" unicode="&#x415;" horiz-adv-x="590" 
d="M106 0v708h412v-20h-391v-311h368v-20h-368v-337h407v-20h-428z" />
    <glyph glyph-name="uni0416" unicode="&#x416;" horiz-adv-x="876" 
d="M30 0l368 383l-350 325h32l346 -325h1v325h22v-325h1l346 325h32l-350 -325l368 -383h-31l-365 381h-1v-381h-22v381h-1l-365 -381h-31z" />
    <glyph glyph-name="uni0417" unicode="&#x417;" horiz-adv-x="557" 
d="M260 -20q-131 0 -210 87l17 15q77 -82 193 -82q88 0 146.5 54t58.5 140q0 77 -58.5 123t-148.5 46h-60v20h51q82 0 137 43t55 119q0 75 -49 119t-129 44q-108 0 -167 -75l-16 15q30 38 78.5 59t103.5 21q93 0 147 -49t54 -134q0 -67 -41 -112.5t-101 -57.5v-1
q72 -8 119 -57.5t47 -122.5q0 -96 -63.5 -155t-163.5 -59z" />
    <glyph glyph-name="uni0418" unicode="&#x418;" horiz-adv-x="747" 
d="M106 0v708h22v-680h3l478 680h32v-708h-22v679h-3l-479 -679h-31z" />
    <glyph glyph-name="uni0419" unicode="&#x419;" horiz-adv-x="747" 
d="M106 0v708h22v-680h3l478 680h32v-708h-22v679h-3l-479 -679h-31zM374 772q-52 0 -85 34t-40 85l17 3q22 -102 108 -102t108 102l17 -3q-7 -51 -40 -85t-85 -34z" />
    <glyph glyph-name="uni041A" unicode="&#x41a;" horiz-adv-x="565" 
d="M106 0v708h22v-325h1l356 325h32l-360 -325l378 -383h-31l-375 381h-1v-381h-22z" />
    <glyph glyph-name="uni041B" unicode="&#x41b;" horiz-adv-x="743" 
d="M53 -7q-22 0 -43 5l5 20q25 -5 38 -5q56 0 93.5 35t58 107.5t29 165.5t8.5 225v162h395v-708h-22v688h-351v-142q0 -138 -9.5 -234t-32.5 -171t-65 -111.5t-104 -36.5z" />
    <glyph glyph-name="uni041C" unicode="&#x41c;" horiz-adv-x="906" 
d="M106 0v708h39l308 -676l308 676h39v-708h-22v683h-4l-313 -683h-18l-312 683h-3v-683h-22z" />
    <glyph glyph-name="uni041D" unicode="&#x41d;" horiz-adv-x="732" 
d="M106 0v708h22v-332h476v332h22v-708h-22v356h-476v-356h-22z" />
    <glyph glyph-name="uni041E" unicode="&#x41e;" horiz-adv-x="872" 
d="M436 -20q-157 0 -260.5 105.5t-103.5 268.5t103 268.5t261 105.5t261 -105.5t103 -268.5t-103.5 -268.5t-260.5 -105.5zM436 0q151 0 246.5 102t95.5 252t-96.5 252t-245.5 102t-245.5 -102t-96.5 -252t96 -252t246 -102z" />
    <glyph glyph-name="uni041F" unicode="&#x41f;" horiz-adv-x="722" 
d="M106 0v708h510v-708h-22v688h-466v-688h-22z" />
    <glyph glyph-name="uni0420" unicode="&#x420;" horiz-adv-x="572" 
d="M106 0v708h192q41 0 77.5 -9t69.5 -28t52.5 -54.5t19.5 -84.5q0 -87 -59 -136t-147 -49h-183v-347h-22zM128 367h184q75 0 129 41.5t54 123.5q0 43 -17 74.5t-45 48.5t-59.5 25t-66.5 8h-179v-321z" />
    <glyph glyph-name="uni0421" unicode="&#x421;" horiz-adv-x="724" 
d="M433 -20q-159 0 -260 105.5t-101 268.5t101.5 268.5t259.5 105.5q148 0 235 -91l-14 -16q-40 43 -100.5 65t-120.5 22q-149 0 -244 -102t-95 -252t94 -252t245 -102q68 0 132.5 26.5t104.5 75.5l16 -15q-43 -52 -111 -79.5t-142 -27.5z" />
    <glyph glyph-name="uni0422" unicode="&#x422;" horiz-adv-x="540" 
d="M259 0v688h-241v20h504v-20h-241v-688h-22z" />
    <glyph glyph-name="uni0423" unicode="&#x423;" horiz-adv-x="605" 
d="M116 -6q-26 0 -44 7l6 19q16 -6 38 -6q68 0 112 79l67 123l-279 492h25l266 -469l257 469h25l-342 -625q-25 -46 -56 -67.5t-75 -21.5z" />
    <glyph glyph-name="uni0424" unicode="&#x424;" horiz-adv-x="784" 
d="M381 -20v87q-138 2 -228 79t-90 219q0 143 87 219t231 79v65h22v-65q144 -3 231 -79t87 -219q0 -142 -90 -219t-228 -79v-87h-22zM381 87v556q-133 -2 -214.5 -73t-81.5 -205q0 -133 83.5 -204.5t212.5 -73.5zM403 87q129 2 212.5 73.5t83.5 204.5q0 134 -81.5 205
t-214.5 73v-556z" />
    <glyph glyph-name="uni0425" unicode="&#x425;" horiz-adv-x="590" 
d="M32 0l250 371l-226 337h26l213 -320l213 320h25l-225 -337l250 -371h-27l-236 354l-237 -354h-26z" />
    <glyph glyph-name="uni0426" unicode="&#x426;" horiz-adv-x="730" 
d="M676 -186v186h-570v708h22v-688h466v688h22v-688h82v-206h-22z" />
    <glyph glyph-name="uni0427" unicode="&#x427;" horiz-adv-x="610" 
d="M482 0v318q-84 -23 -195 -23q-100 0 -149 46t-49 120v247h22v-247q0 -65 43.5 -105.5t132.5 -40.5q114 0 195 24v369h22v-708h-22z" />
    <glyph glyph-name="uni0428" unicode="&#x428;" horiz-adv-x="1080" 
d="M106 0v708h22v-688h401v688h22v-688h401v688h22v-708h-868z" />
    <glyph glyph-name="uni0429" unicode="&#x429;" horiz-adv-x="1088" 
d="M1034 -186v186h-928v708h22v-688h401v688h22v-688h401v688h22v-688h82v-206h-22z" />
    <glyph glyph-name="uni042A" unicode="&#x42a;" horiz-adv-x="700" 
d="M219 0v688h-201v20h223v-325h187q88 0 152.5 -49t64.5 -147q0 -52 -20.5 -90t-55.5 -58t-73.5 -29.5t-82.5 -9.5h-194zM241 20h172q40 0 75 8.5t66.5 26.5t50 52t18.5 80q0 88 -58 132t-137 44h-187v-343z" />
    <glyph glyph-name="uni042B" unicode="&#x42b;" horiz-adv-x="780" 
d="M106 0v708h22v-325h187q88 0 152.5 -49t64.5 -147q0 -52 -20.5 -90t-55.5 -58t-73.5 -29.5t-82.5 -9.5h-194zM128 20h172q40 0 75 8.5t66.5 26.5t50 52t18.5 80q0 88 -58 132t-137 44h-187v-343zM652 0v708h22v-708h-22z" />
    <glyph glyph-name="uni042C" unicode="&#x42c;" horiz-adv-x="587" 
d="M106 0v708h22v-325h187q88 0 152.5 -49t64.5 -147q0 -52 -20.5 -90t-55.5 -58t-73.5 -29.5t-82.5 -9.5h-194zM128 20h172q40 0 75 8.5t66.5 26.5t50 52t18.5 80q0 88 -58 132t-137 44h-187v-343z" />
    <glyph glyph-name="uni042D" unicode="&#x42d;" horiz-adv-x="724" 
d="M291 -20q-74 0 -142 27.5t-111 79.5l16 15q40 -49 104.5 -75.5t132.5 -26.5q151 0 245 102t94 252v3h-403v20h402q-8 142 -101.5 236.5t-236.5 94.5q-60 0 -120.5 -22t-100.5 -65l-14 16q87 91 235 91q158 0 259.5 -105.5t101.5 -268.5t-101 -268.5t-260 -105.5z" />
    <glyph glyph-name="uni042E" unicode="&#x42e;" horiz-adv-x="1046" 
d="M639 -18q-149 0 -241 105.5t-94 268.5h-176v-356h-22v708h22v-332h176q5 148 97 249t238 101q149 0 242 -106t93 -258q0 -165 -92.5 -272.5t-242.5 -107.5zM639 2q96 0 169 51.5t108.5 132t35.5 176.5q0 87 -36 164t-109.5 128.5t-167.5 51.5t-167.5 -51.5t-109.5 -128.5
t-36 -164q0 -96 35.5 -176.5t108.5 -132t169 -51.5z" />
    <glyph glyph-name="uni042F" unicode="&#x42f;" horiz-adv-x="596" 
d="M61 0l201 325q-83 6 -140.5 55t-57.5 141q0 52 20.5 90t55.5 58t73.5 29.5t82.5 9.5h194v-708h-22v325h-183l-199 -325h-25zM281 345h187v343h-172q-40 0 -75 -8.5t-66.5 -26.5t-50 -52t-18.5 -80q0 -88 58 -132t137 -44z" />
    <glyph glyph-name="uni0430" unicode="&#x430;" horiz-adv-x="512" 
d="M220 -14q-62 0 -108 34t-46 98q0 47 24.5 79t65.5 47t79 20.5t81 5.5h80v37q0 74 -39.5 111t-108.5 37q-78 0 -140 -55l-12 17q65 57 152 57q81 0 125.5 -42t44.5 -126v-202q0 -54 8 -104h-21q-8 52 -8 110h-3q-19 -60 -67 -92t-107 -32zM220 5q49 0 85 18.5t55 49.5
t27.5 64t8.5 70v44h-71q-237 0 -237 -133q0 -57 40.5 -85t91.5 -28z" />
    <glyph glyph-name="uni0431" unicode="&#x431;" horiz-adv-x="605" 
d="M305 -14q-77 0 -136 40q-94 64 -94 204q0 60 1 97t4.5 90t11 86.5t21.5 72t33.5 61t49.5 40t69 22.5l171 21q69 9 80 44l16 -5q-15 -48 -93 -57l-168 -21q-52 -7 -87 -35t-53 -77.5t-25 -103.5t-8 -129h3q68 133 215 133q104 0 165.5 -70t61.5 -173q0 -105 -67 -172.5
t-171 -67.5zM305 6q94 0 155 62t61 157q0 97 -56 160.5t-149 63.5t-156 -65t-63 -161t57.5 -156.5t150.5 -60.5z" />
    <glyph glyph-name="uni0432" unicode="&#x432;" horiz-adv-x="514" 
d="M105 0v460h183q62 0 102.5 -25t40.5 -84q0 -85 -94 -107v-1q43 -5 79 -34.5t36 -85.5q0 -66 -44 -94.5t-104 -28.5h-199zM127 20h170q61 0 97 25.5t36 77.5q0 55 -39 82t-88 27h-176v-212zM127 252h160q50 0 86 24.5t36 71.5q0 49 -35 70.5t-90 21.5h-157v-188z" />
    <glyph glyph-name="uni0433" unicode="&#x433;" horiz-adv-x="415" 
d="M105 0v460h286v-20h-264v-440h-22z" />
    <glyph glyph-name="uni0434" unicode="&#x434;" horiz-adv-x="590" 
d="M28 -156v176h58q36 44 59.5 126.5t23.5 183.5v130h305v-440h78v-176h-22v156h-480v-156h-22zM112 20h340v420h-261v-110q0 -98 -22.5 -179.5t-56.5 -130.5z" />
    <glyph glyph-name="uni0435" unicode="&#x435;" horiz-adv-x="556" 
d="M291 -14q-102 0 -165.5 70t-63.5 179q0 104 63 171.5t156 67.5q102 0 157.5 -65.5t55.5 -154.5v-19h-410q0 -92 54 -160.5t153 -68.5q105 0 169 84l16 -14q-70 -90 -185 -90zM85 254h388q-2 90 -55 145.5t-138 55.5q-49 0 -88.5 -21.5t-61.5 -53.5t-33.5 -65t-11.5 -61z
" />
    <glyph glyph-name="uni0436" unicode="&#x436;" horiz-adv-x="694" 
d="M23 0l286 243l-258 217h31l253 -216h1v216h22v-216h1l253 216h31l-258 -217l286 -243h-33l-279 239h-1v-239h-22v239h-1l-279 -239h-33z" />
    <glyph glyph-name="uni0437" unicode="&#x437;" horiz-adv-x="455" 
d="M213 -14q-111 0 -165 75l18 12q49 -68 146 -68q66 0 107.5 33.5t41.5 87.5q0 50 -36.5 78t-100.5 28h-56v20h49q58 0 96 32t38 75q0 46 -33.5 71t-93.5 25q-88 0 -132 -59l-17 11q47 67 149 67q71 0 110 -29.5t39 -85.5q0 -43 -28.5 -74t-72.5 -41v-1q49 -5 80 -37
t31 -80q0 -63 -47.5 -101.5t-122.5 -38.5z" />
    <glyph glyph-name="uni0438" unicode="&#x438;" horiz-adv-x="586" 
d="M105 0v460h22v-426h2l327 426h25v-460h-22v428h-2l-329 -428h-23z" />
    <glyph glyph-name="uni0439" unicode="&#x439;" horiz-adv-x="586" 
d="M299 572q-52 0 -85 34t-40 85l17 3q22 -102 108 -102t108 102l17 -3q-7 -51 -40 -85t-85 -34zM105 0v460h22v-426h2l327 426h25v-460h-22v428h-2l-329 -428h-23z" />
    <glyph glyph-name="uni043A" unicode="&#x43a;" horiz-adv-x="463" 
d="M105 0v460h22v-216h1l253 216h31l-258 -217l286 -243h-33l-279 239h-1v-239h-22z" />
    <glyph glyph-name="uni043B" unicode="&#x43b;" horiz-adv-x="580" 
d="M52 -5q-16 0 -33 5l6 19q12 -4 27 -4q128 0 128 276v169h295v-460h-22v440h-251v-149q0 -64 -6.5 -113.5t-22.5 -92.5t-46.5 -66.5t-74.5 -23.5z" />
    <glyph glyph-name="uni043C" unicode="&#x43c;" horiz-adv-x="715" 
d="M105 0v460h39l213 -428h1l215 428h37v-460h-22v440h-2l-220 -440h-17l-219 439h-3v-439h-22z" />
    <glyph glyph-name="uni043D" unicode="&#x43d;" horiz-adv-x="580" 
d="M105 0v460h22v-211h326v211h22v-460h-22v229h-326v-229h-22z" />
    <glyph glyph-name="uni043E" unicode="&#x43e;" horiz-adv-x="605" 
d="M302 -14q-106 0 -173 69t-67 176t67 175t173 68t173.5 -68t67.5 -175t-67.5 -176t-173.5 -69zM302 5q99 0 159 65t60 161t-60 160t-159 64t-158.5 -64t-59.5 -160t59.5 -161t158.5 -65z" />
    <glyph glyph-name="uni043F" unicode="&#x43f;" horiz-adv-x="574" 
d="M105 0v460h364v-460h-22v440h-320v-440h-22z" />
    <glyph glyph-name="uni0440" unicode="&#x440;" horiz-adv-x="626" 
d="M102 -240v700h22v-125h3q29 67 84.5 103t122.5 36q102 0 166 -69t64 -176q0 -105 -65 -174t-165 -69q-68 0 -125 36.5t-82 101.5h-3v-364h-22zM334 5q93 0 150.5 65t57.5 159t-57.5 160t-150.5 66q-90 0 -150.5 -66t-60.5 -159t60.5 -159t150.5 -66z" />
    <glyph glyph-name="uni0441" unicode="&#x441;" horiz-adv-x="480" 
d="M296 -14q-102 0 -168 68.5t-66 174.5t66.5 175.5t167.5 69.5q92 0 151 -61l-17 -15q-55 57 -134 57q-95 0 -153.5 -66t-58.5 -160t58.5 -159t153.5 -65q83 0 138 52l15 -14q-57 -57 -153 -57z" />
    <glyph glyph-name="uni0442" unicode="&#x442;" horiz-adv-x="428" 
d="M203 0v440h-179v20h380v-20h-179v-440h-22z" />
    <glyph glyph-name="uni0443" unicode="&#x443;" horiz-adv-x="428" 
d="M65 -242q-23 0 -41 7l6 19q16 -6 37 -6q63 0 95 89l44 120l-182 473h24l169 -444l163 444h24l-228 -612q-33 -90 -111 -90z" />
    <glyph glyph-name="uni0444" unicode="&#x444;" horiz-adv-x="676" 
d="M327 -240v230q-127 4 -197 66t-70 176q0 111 70 173.5t197 67.5v299h22v-299q127 -5 197 -67.5t70 -173.5q0 -114 -70 -176t-197 -66v-230h-22zM327 10v443q-115 -1 -180 -58.5t-65 -162.5q0 -108 64.5 -165t180.5 -57zM349 10q116 0 180.5 57t64.5 165q0 105 -65 162.5
t-180 58.5v-443z" />
    <glyph glyph-name="uni0445" unicode="&#x445;" horiz-adv-x="452" 
d="M28 0l182 243l-159 217h28l146 -202l145 202h29l-160 -217l185 -243h-29l-171 228l-168 -228h-28z" />
    <glyph glyph-name="uni0446" unicode="&#x446;" horiz-adv-x="585" 
d="M525 -156v156h-420v460h22v-440h320v440h22v-440h78v-176h-22z" />
    <glyph glyph-name="uni0447" unicode="&#x447;" horiz-adv-x="520" 
d="M393 0v210q-84 -21 -158 -21t-112 28.5t-38 103.5v139h22v-139q0 -64 32.5 -88t95.5 -24q74 0 158 22v229h22v-460h-22z" />
    <glyph glyph-name="uni0448" unicode="&#x448;" horiz-adv-x="856" 
d="M105 0v460h22v-440h290v440h22v-440h290v440h22v-460h-646z" />
    <glyph glyph-name="uni0449" unicode="&#x449;" horiz-adv-x="867" 
d="M807 -156v156h-702v460h22v-440h290v440h22v-440h290v440h22v-440h78v-176h-22z" />
    <glyph glyph-name="uni044A" unicode="&#x44a;" horiz-adv-x="556" 
d="M175 0v440h-151v20h173v-198h153q161 0 161 -136q0 -126 -161 -126h-175zM197 20h154q138 0 138 106q0 116 -138 116h-154v-222z" />
    <glyph glyph-name="uni044B" unicode="&#x44b;" horiz-adv-x="660" 
d="M105 0v460h22v-198h153q161 0 161 -136q0 -126 -161 -126h-175zM127 20h154q138 0 138 106q0 116 -138 116h-154v-222zM533 0v460h22v-460h-22z" />
    <glyph glyph-name="uni044C" unicode="&#x44c;" horiz-adv-x="486" 
d="M105 0v460h22v-198h153q161 0 161 -136q0 -126 -161 -126h-175zM127 20h154q138 0 138 106q0 116 -138 116h-154v-222z" />
    <glyph glyph-name="uni044D" unicode="&#x44d;" horiz-adv-x="480" 
d="M184 -14q-96 0 -153 57l15 14q55 -52 138 -52q95 0 153.5 65t58.5 159h-243v20h242q-6 87 -64 146.5t-147 59.5q-79 0 -134 -57l-17 15q59 61 151 61q101 0 167.5 -69.5t66.5 -175.5t-66 -174.5t-168 -68.5z" />
    <glyph glyph-name="uni044E" unicode="&#x44e;" horiz-adv-x="776" 
d="M483 -20q-104 0 -167 71t-63 175v3h-126v-229h-22v460h22v-211h127q7 97 69 161t160 64q104 0 167.5 -71.5t63.5 -176.5q0 -104 -64 -175t-167 -71zM483 0q94 0 151.5 65t57.5 161q0 97 -57.5 162.5t-151.5 65.5t-151 -65.5t-57 -162.5q0 -95 57 -160.5t151 -65.5z" />
    <glyph glyph-name="uni044F" unicode="&#x44f;" horiz-adv-x="522" 
d="M71 0l131 196q-58 10 -91 44t-33 88q0 62 43.5 97t124.5 35h172v-460h-22v196h-169l-130 -196h-26zM234 216h162v224h-150q-70 0 -108 -29.5t-38 -82.5q0 -48 36 -80t98 -32z" />
    <glyph glyph-name="uni0450" unicode="&#x450;" horiz-adv-x="556" 
d="M183 708h27l103 -144h-19zM291 -14q-102 0 -165.5 70t-63.5 179q0 104 63 171.5t156 67.5q102 0 157.5 -65.5t55.5 -154.5v-19h-410q0 -92 54 -160.5t153 -68.5q105 0 169 84l16 -14q-70 -90 -185 -90zM85 254h388q-2 90 -55 145.5t-138 55.5q-49 0 -88.5 -21.5
t-61.5 -53.5t-33.5 -65t-11.5 -61z" />
    <glyph glyph-name="uni0451" unicode="&#x451;" horiz-adv-x="556" 
d="M206 633q-9 0 -16 7t-7 19q0 10 7 17.5t16 7.5t16 -7.5t7 -17.5q0 -11 -7 -18.5t-16 -7.5zM360 633q-9 0 -16 7t-7 19q0 10 7 17.5t16 7.5t16 -7.5t7 -17.5q0 -11 -7 -18.5t-16 -7.5zM291 -14q-102 0 -165.5 70t-63.5 179q0 104 63 171.5t156 67.5q102 0 157.5 -65.5
t55.5 -154.5v-19h-410q0 -92 54 -160.5t153 -68.5q105 0 169 84l16 -14q-70 -90 -185 -90zM85 254h388q-2 90 -55 145.5t-138 55.5q-49 0 -88.5 -21.5t-61.5 -53.5t-33.5 -65t-11.5 -61z" />
    <glyph glyph-name="uni0452" unicode="&#x452;" horiz-adv-x="569" 
d="M354 -242q-26 0 -46 6l4 17q22 -5 41 -5q51 0 74.5 36t23.5 88v376q0 32 -6.5 60.5t-21.5 56.5t-45 45t-71 17q-78 0 -130.5 -61t-52.5 -164v-230h-22v580h-90v20h90v156h22v-156h171v-20h-171v-241h2q20 63 70 99t111 36q88 0 127 -56.5t39 -139.5v-377q0 -77 -35 -110
t-84 -33z" />
    <glyph glyph-name="uni0453" unicode="&#x453;" horiz-adv-x="415" 
d="M320 708l-111 -144h-19l103 144h27zM105 0v460h286v-20h-264v-440h-22z" />
    <glyph glyph-name="uni0454" unicode="&#x454;" horiz-adv-x="480" 
d="M296 -14q-102 0 -168 68.5t-66 174.5t66.5 175.5t167.5 69.5q92 0 151 -61l-17 -15q-55 57 -134 57q-89 0 -147 -59.5t-64 -146.5h242v-20h-243q0 -94 58.5 -159t153.5 -65q83 0 138 52l15 -14q-57 -57 -153 -57z" />
    <glyph glyph-name="uni0455" unicode="&#x455;" horiz-adv-x="415" 
d="M211 -12q-106 0 -161 77l18 12q50 -70 144 -70q49 0 88 30t39 81q0 14 -2.5 26t-9.5 21.5t-12.5 17t-17.5 14t-19 10.5t-22.5 9t-21.5 7t-23 6.5t-21 5.5q-60 16 -90.5 41t-30.5 80q0 56 42 87t99 31q94 0 141 -67l-19 -11q-44 59 -122 59q-45 0 -82 -24t-37 -74
q0 -28 8 -46t27.5 -30t36 -17.5t50.5 -14.5q5 -1 8 -2q32 -8 53.5 -16.5t43 -23t32.5 -36.5t11 -51q0 -60 -43 -96t-107 -36z" />
    <glyph glyph-name="uni0456" unicode="&#x456;" horiz-adv-x="226" 
d="M102 0v460h22v-460h-22zM113 633q-9 0 -16 7t-7 19q0 10 7 17.5t16 7.5t16 -7.5t7 -17.5q0 -11 -7 -18.5t-16 -7.5z" />
    <glyph glyph-name="uni0457" unicode="&#x457;" horiz-adv-x="226" 
d="M36 633q-9 0 -16 7t-7 19q0 10 7 17.5t16 7.5t16 -7.5t7 -17.5q0 -11 -7 -18.5t-16 -7.5zM190 633q-9 0 -16 7t-7 19q0 10 7 17.5t16 7.5t16 -7.5t7 -17.5q0 -11 -7 -18.5t-16 -7.5zM124 0h-22v460h22v-460z" />
    <glyph glyph-name="uni0458" unicode="&#x458;" horiz-adv-x="226" 
d="M12 -241q-17 0 -29 3l4 19q14 -3 25 -3q30 0 49.5 10t27.5 30t10.5 38t2.5 45v559h22v-557q0 -75 -23.5 -109.5t-88.5 -34.5zM113 633q-9 0 -16 7t-7 19q0 10 7 17.5t16 7.5t16 -7.5t7 -17.5q0 -11 -7 -18.5t-16 -7.5z" />
    <glyph glyph-name="uni0459" unicode="&#x459;" horiz-adv-x="834" 
d="M52 -5q-16 0 -33 5l6 19q12 -4 27 -4q128 0 128 276v169h295v-198h153q161 0 161 -136q0 -126 -161 -126h-175v440h-251v-149q0 -64 -6.5 -113.5t-22.5 -92.5t-46.5 -66.5t-74.5 -23.5zM475 20h154q138 0 138 106q0 116 -138 116h-154v-222z" />
    <glyph glyph-name="uni045A" unicode="&#x45a;" horiz-adv-x="834" 
d="M105 0v460h22v-204h326v204h22v-204h153q161 0 161 -133q0 -60 -38 -91.5t-123 -31.5h-175v236h-326v-236h-22zM475 20h154q73 0 105.5 26t32.5 77q0 113 -138 113h-154v-216z" />
    <glyph glyph-name="uni045B" unicode="&#x45b;" horiz-adv-x="569" 
d="M102 0v580h-90v20h90v156h22v-156h171v-20h-171v-241h2q20 63 70 99t111 36q88 0 127 -56.5t39 -139.5v-278h-22v276q0 32 -6.5 60.5t-21.5 56.5t-45 45t-71 17q-78 0 -130.5 -61t-52.5 -164v-230h-22z" />
    <glyph glyph-name="uni045C" unicode="&#x45c;" horiz-adv-x="463" 
d="M353 708l-111 -144h-19l103 144h27zM105 0v460h22v-216h1l253 216h31l-258 -217l286 -243h-33l-279 239h-1v-239h-22z" />
    <glyph glyph-name="uni045D" unicode="&#x45d;" horiz-adv-x="586" 
d="M193 708h27l103 -144h-19zM105 0v460h22v-426h2l327 426h25v-460h-22v428h-2l-329 -428h-23z" />
    <glyph glyph-name="uni045E" unicode="&#x45e;" horiz-adv-x="428" 
d="M217 572q-52 0 -85 34t-40 85l17 3q22 -102 108 -102t108 102l17 -3q-7 -51 -40 -85t-85 -34zM65 -242q-23 0 -41 7l6 19q16 -6 37 -6q63 0 95 89l44 120l-182 473h24l169 -444l163 444h24l-228 -612q-33 -90 -111 -90z" />
    <glyph glyph-name="uni045F" unicode="&#x45f;" horiz-adv-x="574" 
d="M275 -156v156h-170v460h22v-440h320v440h22v-460h-172v-156h-22z" />
    <glyph glyph-name="uni0490" unicode="&#x490;" horiz-adv-x="490" 
d="M106 0v708h344v150h22v-170h-344v-688h-22z" />
    <glyph glyph-name="uni0491" unicode="&#x491;" horiz-adv-x="415" 
d="M105 0v460h264v126h22v-146h-264v-440h-22z" />
    <glyph glyph-name="Wgrave" unicode="&#x1e80;" horiz-adv-x="956" 
d="M928 708l-212 -708h-34l-205 687h-2l-201 -687h-34l-212 708h23l204 -688h3l201 688h34l205 -688h3l204 688h23zM355 908h27l103 -144h-19z" />
    <glyph glyph-name="wgrave" unicode="&#x1e81;" horiz-adv-x="698" 
d="M664 460l-135 -460h-30l-150 436h-2l-149 -436h-30l-134 460h23l126 -438h2l148 438h31l149 -438h2l126 438h23zM226 708h27l103 -144h-19z" />
    <glyph glyph-name="Wacute" unicode="&#x1e82;" horiz-adv-x="956" 
d="M928 708l-212 -708h-34l-205 687h-2l-201 -687h-34l-212 708h23l204 -688h3l201 688h34l205 -688h3l204 688h23zM597 908l-111 -144h-19l103 144h27z" />
    <glyph glyph-name="wacute" unicode="&#x1e83;" horiz-adv-x="698" 
d="M664 460l-135 -460h-30l-150 436h-2l-149 -436h-30l-134 460h23l126 -438h2l148 438h31l149 -438h2l126 438h23zM471 708l-111 -144h-19l103 144h27z" />
    <glyph glyph-name="Wdieresis" unicode="&#x1e84;" horiz-adv-x="956" 
d="M928 708l-212 -708h-34l-205 687h-2l-201 -687h-34l-212 708h23l204 -688h3l201 688h34l205 -688h3l204 688h23zM399 833q-9 0 -16 7t-7 19q0 10 7 17.5t16 7.5t16 -7.5t7 -17.5q0 -11 -7 -18.5t-16 -7.5zM553 833q-9 0 -16 7t-7 19q0 10 7 17.5t16 7.5t16 -7.5t7 -17.5
q0 -11 -7 -18.5t-16 -7.5z" />
    <glyph glyph-name="wdieresis" unicode="&#x1e85;" horiz-adv-x="698" 
d="M664 460l-135 -460h-30l-150 436h-2l-149 -436h-30l-134 460h23l126 -438h2l148 438h31l149 -438h2l126 438h23zM271 633q-9 0 -16 7t-7 19q0 10 7 17.5t16 7.5t16 -7.5t7 -17.5q0 -11 -7 -18.5t-16 -7.5zM425 633q-9 0 -16 7t-7 19q0 10 7 17.5t16 7.5t16 -7.5t7 -17.5
q0 -11 -7 -18.5t-16 -7.5z" />
    <glyph glyph-name="Ygrave" unicode="&#x1ef2;" horiz-adv-x="538" 
d="M523 708l-243 -398v-310h-22v310l-243 398h26l229 -376l228 376h25zM161 908h27l103 -144h-19z" />
    <glyph glyph-name="ygrave" unicode="&#x1ef3;" horiz-adv-x="428" 
d="M404 460l-228 -612q-33 -90 -111 -90q-23 0 -41 7l6 19q16 -6 37 -6q63 0 95 89l44 120l-182 473h24l169 -448l163 448h24zM109 708h27l103 -144h-19z" />
    <glyph glyph-name="uni2010" unicode="&#x2010;" horiz-adv-x="300" 
d="M240 244h-180v20h180v-20z" />
    <glyph glyph-name="endash" unicode="&#x2013;" horiz-adv-x="400" 
d="M370 244h-340v20h340v-20z" />
    <glyph glyph-name="emdash" unicode="&#x2014;" horiz-adv-x="600" 
d="M570 244h-540v20h540v-20z" />
    <glyph glyph-name="quoteleft" unicode="&#x2018;" horiz-adv-x="220" 
d="M70 480l63 228h17l-56 -228h-24z" />
    <glyph glyph-name="quoteright" unicode="&#x2019;" horiz-adv-x="220" 
d="M150 708l-63 -228h-17l56 228h24z" />
    <glyph glyph-name="quotesinglbase" unicode="&#x201a;" horiz-adv-x="220" 
d="M150 90l-63 -228h-17l56 228h24z" />
    <glyph glyph-name="quotedblleft" unicode="&#x201c;" 
d="M200 480l63 228h17l-56 -228h-24zM70 480l65 228h17l-58 -228h-24z" />
    <glyph glyph-name="quotedblright" unicode="&#x201d;" 
d="M150 708l-63 -228h-17l56 228h24zM280 708l-65 -228h-17l58 228h24z" />
    <glyph glyph-name="quotedblbase" unicode="&#x201e;" 
d="M150 90l-63 -228h-17l56 228h24zM280 90l-65 -228h-17l58 228h24z" />
    <glyph glyph-name="dagger" unicode="&#x2020;" horiz-adv-x="520" 
d="M466 481h-194v-607h-22v607h-196v20h196v207h22v-207h194v-20z" />
    <glyph glyph-name="daggerdbl" unicode="&#x2021;" horiz-adv-x="520" 
d="M250 481h-196v20h196v207h22v-207h194v-20h-194v-380h194v-20h-194v-207h-22v207h-196v20h196v380z" />
    <glyph glyph-name="bullet" unicode="&#x2022;" horiz-adv-x="500" 
d="M73 354q0 74 51.5 125.5t125.5 51.5t125.5 -51.5t51.5 -125.5t-51.5 -125.5t-125.5 -51.5t-125.5 51.5t-51.5 125.5z" />
    <glyph glyph-name="ellipsis" unicode="&#x2026;" horiz-adv-x="1000" 
d="M165 -6q-9 0 -16 7t-7 19q0 10 7 17.5t16 7.5t16 -7.5t7 -17.5q0 -11 -7 -18.5t-16 -7.5zM835 -6q-9 0 -16 7t-7 19q0 10 7 17.5t16 7.5t16 -7.5t7 -17.5q0 -11 -7 -18.5t-16 -7.5zM500 -6q-9 0 -16 7t-7 19q0 10 7 17.5t16 7.5t16 -7.5t7 -17.5q0 -11 -7 -18.5t-16 -7.5
z" />
    <glyph glyph-name="perthousand" unicode="&#x2030;" horiz-adv-x="1000" 
d="M334 570q0 -62 -42.5 -104t-103.5 -42q-60 0 -102.5 42t-42.5 104t42.5 105t102.5 43t103 -43t43 -105zM312 570q0 54 -36 91t-88 37q-51 0 -86.5 -37t-35.5 -91t35.5 -90.5t86.5 -36.5q52 0 88 36.5t36 90.5zM623 141q0 -62 -42.5 -104t-103.5 -42q-60 0 -102.5 42
t-42.5 104t42.5 105t102.5 43t103 -43t43 -105zM601 141q0 54 -36 91t-88 37q-51 0 -86.5 -37t-35.5 -91t35.5 -90.5t86.5 -36.5q52 0 88 36.5t36 90.5zM965 141q0 -62 -42.5 -104t-103.5 -42q-60 0 -102.5 42t-42.5 104t42.5 105t102.5 43t103 -43t43 -105zM943 141
q0 54 -36 91t-88 37q-51 0 -86.5 -37t-35.5 -91t35.5 -90.5t86.5 -36.5q52 0 88 36.5t36 90.5zM560 721l-452 -745l-16 11l452 745z" />
    <glyph glyph-name="guilsinglleft" unicode="&#x2039;" horiz-adv-x="315" 
d="M221 52l-16 -12l-123 197l122 196l16 -11l-113 -185z" />
    <glyph glyph-name="guilsinglright" unicode="&#x203a;" horiz-adv-x="315" 
d="M233 237l-122 -196l-16 11l113 185l-114 185l16 12z" />
    <glyph glyph-name="interrobang" unicode="&#x203d;" horiz-adv-x="472" 
d="M241 45q9 0 16 -7.5t7 -18.5q0 -10 -7 -17.5t-16 -7.5t-16 7.5t-7 17.5q0 12 7 19t16 7zM250 558l-1 -224h1q12 24 47 56l34 30q35 32 52.5 61.5t17.5 74.5q0 70 -45.5 109.5t-115.5 39.5q-67 0 -111 -39.5t-55 -104.5l-21 4q13 77 64 119t125 42q78 0 129.5 -44.5
t51.5 -124.5q0 -39 -14.5 -71.5t-30 -48.5t-45.5 -42q-49 -40 -65.5 -68.5t-17.5 -73.5v-53h-22v358h22z" />
    <glyph glyph-name="fraction" unicode="&#x2044;" horiz-adv-x="100" 
d="M262 725l-440 -752l-16 11l440 752z" />
    <glyph glyph-name="zero.superior" unicode="&#x2070;" 
d="M175 442q-132 0 -132 221t132 221t132 -221t-132 -221zM175 866q-36 0 -60 -22t-34 -58t-13.5 -64t-3.5 -59t3.5 -59t13.5 -64t34 -58t60 -22q35 0 59.5 22t34.5 58t13.5 64.5t3.5 58.5q0 31 -3.5 59.5t-13.5 64.5t-34.5 57.5t-59.5 21.5z" />
    <glyph glyph-name="four.superior" unicode="&#x2074;" 
d="M227 560h-194v22l183 291h31v-295h67v-18h-67v-107h-20v107zM52 578h175v272h-3z" />
    <glyph glyph-name="five.superior" unicode="&#x2075;" 
d="M301 579q0 -64 -39 -100.5t-93 -36.5q-78 0 -117 61l17 10q36 -53 100 -53q46 0 79 31.5t33 87.5q0 52 -31.5 85t-86.5 33q-37 0 -82 -24l4 200h197v-18h-177l-3 -155q33 14 65 14q61 0 97.5 -38t36.5 -97z" />
    <glyph glyph-name="six.superior" unicode="&#x2076;" 
d="M47 571q0 48 37 112l110 190h24l-116 -196l1 -1q35 27 77 27q52 0 87.5 -37t35.5 -95q0 -56 -36.5 -92.5t-92.5 -36.5t-91.5 36t-35.5 93zM68 571q0 -49 30 -80t77 -31t77 31t30 80q0 50 -29.5 82t-74.5 32q-46 0 -78 -32.5t-32 -81.5z" />
    <glyph glyph-name="seven.superior" unicode="&#x2077;" 
d="M294 873v-19l-173 -401h-22l174 402h-210v18h231z" />
    <glyph glyph-name="eight.superior" unicode="&#x2078;" 
d="M304 564q0 -55 -36 -88.5t-92 -33.5t-92.5 33.5t-36.5 88.5q0 37 22.5 69t62.5 45v1q-34 14 -51.5 41t-17.5 58q0 47 32 76.5t81 29.5q48 0 80 -29.5t32 -76.5q0 -32 -18 -58.5t-51 -40.5v-1q40 -13 62.5 -44.5t22.5 -69.5zM284 564q0 45 -32 75.5t-76 30.5
q-45 0 -77 -30.5t-32 -75.5t30.5 -74.5t78.5 -29.5t78 29.5t30 74.5zM268 778q0 38 -26.5 63t-65.5 25t-66 -25t-27 -63t27 -65t66 -27t65.5 27.5t26.5 64.5z" />
    <glyph glyph-name="nine.superior" unicode="&#x2079;" 
d="M303 754q0 -45 -37 -109l-111 -192h-24l117 198l-1 1q-33 -27 -77 -27q-52 0 -87.5 36.5t-35.5 92.5t36.5 93t91.5 37q56 0 92 -36.5t36 -93.5zM282 754q0 49 -30 80.5t-77 31.5t-77 -31.5t-30 -80.5q0 -48 29.5 -79.5t74.5 -31.5t77.5 32t32.5 79z" />
    <glyph glyph-name="zero.inferior" unicode="&#x2080;" 
d="M175 -148q-132 0 -132 221t132 221t132 -221t-132 -221zM175 276q-36 0 -60 -22t-34 -58t-13.5 -64t-3.5 -59t3.5 -59t13.5 -64t34 -58t60 -22q35 0 59.5 22t34.5 58t13.5 64.5t3.5 58.5q0 31 -3.5 59.5t-13.5 64.5t-34.5 57.5t-59.5 21.5z" />
    <glyph glyph-name="one.inferior" unicode="&#x2081;" 
d="M196 -137h-21v398l-96 -64l-12 16l109 70h20v-420z" />
    <glyph glyph-name="two.inferior" unicode="&#x2082;" 
d="M71 -119h227v-18h-249v20l154 169q44 48 59 76t15 56q0 44 -26.5 68t-69.5 24q-78 0 -99 -75l-19 6q11 44 43 65.5t75 21.5q55 0 85.5 -30t30.5 -75q0 -38 -16 -67t-69 -86z" />
    <glyph glyph-name="three.inferior" unicode="&#x2083;" 
d="M285 -28q0 -56 -34.5 -88t-90.5 -32q-87 0 -121 70l18 7q30 -59 103 -59q48 0 76.5 27t28.5 76q0 48 -36 75t-85 27h-17v18h16q51 0 79 27.5t28 67.5q0 42 -26 65.5t-64 23.5q-57 0 -85 -43l-15 11q36 49 100 49q52 0 81 -29t29 -77q0 -43 -25.5 -70.5t-67.5 -32.5v-2
q50 -5 79 -35t29 -76z" />
    <glyph glyph-name="four.inferior" unicode="&#x2084;" 
d="M227 -30h-194v22l183 291h31v-295h67v-18h-67v-107h-20v107zM52 -12h175v272h-3z" />
    <glyph glyph-name="five.inferior" unicode="&#x2085;" 
d="M301 -11q0 -64 -39 -100.5t-93 -36.5q-78 0 -117 61l17 10q36 -53 100 -53q46 0 79 31.5t33 87.5q0 52 -31.5 85t-86.5 33q-37 0 -82 -24l4 200h197v-18h-177l-3 -155q33 14 65 14q61 0 97.5 -38t36.5 -97z" />
    <glyph glyph-name="six.inferior" unicode="&#x2086;" 
d="M47 -19q0 48 37 112l110 190h24l-116 -196l1 -1q35 27 77 27q52 0 87.5 -37t35.5 -95q0 -56 -36.5 -92.5t-92.5 -36.5t-91.5 36t-35.5 93zM68 -19q0 -49 30 -80t77 -31t77 31t30 80q0 50 -29.5 82t-74.5 32q-46 0 -78 -32.5t-32 -81.5z" />
    <glyph glyph-name="seven.inferior" unicode="&#x2087;" 
d="M294 283v-19l-173 -401h-22l174 402h-210v18h231z" />
    <glyph glyph-name="eight.inferior" unicode="&#x2088;" 
d="M304 -26q0 -55 -36 -88.5t-92 -33.5t-92.5 33.5t-36.5 88.5q0 37 22.5 69t62.5 45v1q-34 14 -51.5 41t-17.5 58q0 47 32 76.5t81 29.5q48 0 80 -29.5t32 -76.5q0 -32 -18 -58.5t-51 -40.5v-1q40 -13 62.5 -44.5t22.5 -69.5zM284 -26q0 45 -32 75.5t-76 30.5
q-45 0 -77 -30.5t-32 -75.5t30.5 -74.5t78.5 -29.5t78 29.5t30 74.5zM268 188q0 38 -26.5 63t-65.5 25t-66 -25t-27 -63t27 -65t66 -27t65.5 27.5t26.5 64.5z" />
    <glyph glyph-name="nine.inferior" unicode="&#x2089;" 
d="M303 164q0 -45 -37 -109l-111 -192h-24l117 198l-1 1q-33 -27 -77 -27q-52 0 -87.5 36.5t-35.5 92.5t36.5 93t91.5 37q56 0 92 -36.5t36 -93.5zM282 164q0 49 -30 80.5t-77 31.5t-77 -31.5t-30 -80.5q0 -48 29.5 -79.5t74.5 -31.5t77.5 32t32.5 79z" />
    <glyph glyph-name="Euro" unicode="&#x20ac;" horiz-adv-x="560" 
d="M508 675q-57 33 -136 33q-99 0 -168.5 -69t-93.5 -195h342l-7 -19h-338q-5 -33 -5 -77q0 -38 3 -64h297l-6 -19h-289q17 -121 89 -193t172 -72q91 0 150 46l11 -19q-64 -47 -167 -47q-112 0 -185 80.5t-91 204.5h-65l8 19h55q-3 26 -3 64q0 49 4 77h-62l6 19h59
q26 138 102.5 211t183.5 73q82 0 143 -33z" />
    <glyph glyph-name="afii61248" unicode="&#x2105;" horiz-adv-x="790" 
d="M620 725l-440 -752l-16 11l440 752zM744 147q0 -70 -42.5 -114.5t-109.5 -44.5t-109.5 44.5t-42.5 114.5t42.5 114t109.5 44t109.5 -44t42.5 -114zM460 147q0 -61 36 -101t96 -40q61 0 96.5 40t35.5 101q0 60 -35.5 100t-96.5 40q-60 0 -96 -40t-36 -100zM300 679
l-15 -13q-37 37 -87 37q-59 0 -95.5 -41t-36.5 -100t36.5 -99.5t95.5 -40.5q54 0 91 34l13 -13q-39 -39 -104 -39q-66 0 -109 44.5t-43 113.5t43 114t109 45q62 0 102 -42z" />
    <glyph glyph-name="afii61289" unicode="&#x2113;" horiz-adv-x="500" 
d="M286 -14q-44 0 -72.5 27t-28.5 88v164l-61 -71h-2l-10 10l73 83v274q0 79 27 119.5t67 40.5q36 0 58.5 -30t22.5 -83q0 -140 -157 -327v-177q0 -55 25.5 -78t59.5 -23q49 0 88 40h2l9 -11q-45 -46 -101 -46zM343 605q0 44 -19 71.5t-45 27.5q-32 0 -54 -35.5t-22 -107.5
v-258q65 79 102.5 158.5t37.5 143.5z" />
    <glyph glyph-name="uni2116" unicode="&#x2116;" horiz-adv-x="1026" 
d="M848 418q-63 0 -102.5 42t-39.5 107t39.5 106.5t102.5 41.5t102.5 -41.5t39.5 -106.5t-39.5 -107t-102.5 -42zM848 435q56 0 89 37.5t33 94.5q0 56 -33 93t-89 37t-89 -37t-33 -93t33 -94t89 -38zM106 0v708h35l425 -687v687h22v-708h-35l-425 687v-687h-22zM716 333v20
h264v-20h-264z" />
    <glyph glyph-name="published" unicode="&#x2117;" horiz-adv-x="800" 
d="M20 353q0 157 111.5 267t269.5 110q157 0 268 -110t111 -267q0 -156 -111 -265.5t-268 -109.5q-158 0 -269.5 109.5t-111.5 265.5zM42 353q0 -147 105.5 -250t253.5 -103q147 0 252 103t105 250t-105 251t-252 104q-148 0 -253.5 -104t-105.5 -251zM298 127v441h145
q62 0 105 -31t43 -96q0 -61 -39.5 -97.5t-101.5 -36.5h-130v-180h-22zM320 326h131q51 0 84.5 30t33.5 85q0 53 -35.5 80.5t-85.5 27.5h-128v-223z" />
    <glyph glyph-name="trademark" unicode="&#x2122;" horiz-adv-x="1000" 
d="M891 296h-22v391h-2l-169 -391h-13l-166 391h-2v-391h-22v412h37l160 -377l161 377h38v-412zM389 689h-134v-393h-22v393h-133v19h289v-19z" />
    <glyph glyph-name="Omega" unicode="&#x2126;" horiz-adv-x="777" 
d="M389 707q-127 0 -210.5 -80t-83.5 -221q0 -105 59.5 -183t156.5 -102v-121h-231v20h211v85q-91 27 -155 104t-64 198q0 151 90.5 236t226.5 85t226 -85.5t90 -236.5q0 -111 -60.5 -192t-158.5 -109v-85h211v-20h-231v121q97 24 156.5 102t59.5 183q0 141 -83 221t-210 80
z" />
    <glyph glyph-name="estimated" unicode="&#x212e;" horiz-adv-x="500" 
d="M561 259h-404v-181q59 -59 145 -59q122 0 193 120l35 -21q-46 -72 -98 -103.5t-130 -31.5q-115 0 -186.5 79t-71.5 197q0 119 71 197.5t187 78.5q115 0 186.5 -77t72.5 -199zM157 295h291v145q-63 60 -147 60t-144 -60v-145z" />
    <glyph glyph-name="partialdiff" unicode="&#x2202;" horiz-adv-x="475" 
d="M401 298q2 58 2 82q0 153 -55 239t-145 86q-60 0 -110 -40l-11 16q53 44 119 44q114 0 168 -96.5t54 -262.5q0 -185 -57 -288q-54 -95 -148 -95q-77 0 -127.5 63.5t-50.5 156.5q0 100 50.5 155t125.5 55q58 0 107.5 -31.5t77.5 -83.5zM397 276q-32 53 -78 84.5t-100 31.5
q-74 0 -114.5 -55.5t-40.5 -132.5q0 -74 41.5 -136.5t113.5 -62.5q47 0 83 27.5t55 72t28 86.5t12 85z" />
    <glyph glyph-name="Delta" unicode="&#x2206;" horiz-adv-x="670" 
d="M648 0h-626v18l305 690h28l293 -690v-18zM623 20l-283 674l-293 -674h576z" />
    <glyph glyph-name="product" unicode="&#x220f;" horiz-adv-x="704" 
d="M612 -214h-22v980h-476v-980h-22v1000h520v-1000z" />
    <glyph glyph-name="summation" unicode="&#x2211;" horiz-adv-x="593" 
d="M548 -214h-503v22l339 481l-325 475v22h478v-20h-452l330 -477l-342 -483h475v-20z" />
    <glyph glyph-name="minus" unicode="&#x2212;" horiz-adv-x="666" 
d="M566 297h-466v19h466v-19z" />
    <glyph glyph-name="uni2215" unicode="&#x2215;" horiz-adv-x="100" 
d="M262 725l-440 -752l-16 11l440 752z" />
    <glyph glyph-name="uni2219" unicode="&#x2219;" horiz-adv-x="240" 
d="M120 229q-9 0 -16 7t-7 19q0 10 7 17.5t16 7.5t16 -7.5t7 -17.5q0 -11 -7 -18.5t-16 -7.5z" />
    <glyph glyph-name="radical" unicode="&#x221a;" horiz-adv-x="475" 
d="M261 -215h-31l-168 368l-62 -30l-8 20l81 37l170 -373l205 979h22z" />
    <glyph glyph-name="infinity" unicode="&#x221e;" horiz-adv-x="722" 
d="M370 234q-104 -120 -178 -120q-52 0 -85.5 37t-33.5 97q0 59 33.5 96t85.5 37q75 0 178 -121q103 121 178 121q52 0 85.5 -37t33.5 -96q0 -60 -33.5 -97t-85.5 -37q-74 0 -178 120zM382 246q59 -63 95.5 -88.5t70.5 -25.5q46 0 72.5 33.5t26.5 80.5q0 49 -26.5 83
t-72.5 34q-34 0 -70.5 -26.5t-95.5 -90.5zM358 246q-59 64 -95.5 90.5t-70.5 26.5q-46 0 -72.5 -34t-26.5 -83q0 -47 26.5 -80.5t72.5 -33.5q34 0 70.5 25.5t95.5 88.5z" />
    <glyph glyph-name="integral" unicode="&#x222b;" horiz-adv-x="535" 
d="M258 71q0 -135 -6 -173q-8 -49 -30.5 -75.5t-58.5 -26.5q-45 0 -45 30q0 9 6.5 14.5t13.5 5.5q13 0 22 -20q5 -11 20 -11q26 0 41 45t15 130v509q0 135 6 173q8 49 30.5 75.5t58.5 26.5q45 0 45 -30q0 -9 -6.5 -14.5t-13.5 -5.5q-13 0 -22 20q-5 11 -20 11
q-26 0 -41 -44.5t-15 -127.5v-512z" />
    <glyph glyph-name="approxequal" unicode="&#x2248;" horiz-adv-x="666" 
d="M437 328q87 1 102 89h18q-5 -47 -34 -78t-87 -32q-45 0 -141.5 34.5t-130.5 34.5q-53 0 -76 -23.5t-30 -64.5h-18q5 47 33.5 78t84.5 31q45 0 143.5 -34.5t135.5 -34.5zM437 140q87 1 102 89h18q-5 -47 -34 -78t-87 -32q-45 0 -141.5 34.5t-130.5 34.5q-53 0 -76 -23.5
t-30 -64.5h-18q5 47 33.5 78t84.5 31q45 0 143.5 -34.5t135.5 -34.5z" />
    <glyph glyph-name="notequal" unicode="&#x2260;" horiz-adv-x="666" 
d="M352 380h-252v19h261l73 147l18 -8l-69 -139h183v-19h-192l-75 -152h267v-19h-277l-85 -172l-17 9l81 163h-168v19h177z" />
    <glyph glyph-name="lessequal" unicode="&#x2264;" horiz-adv-x="666" 
d="M566 0h-466v20h466v-20zM566 67l-466 224v24l466 224v-20l-454 -216l454 -216v-20z" />
    <glyph glyph-name="greaterequal" unicode="&#x2265;" horiz-adv-x="666" 
d="M100 0v20h466v-20h-466zM100 67v20l454 216l-454 216v20l466 -224v-24z" />
    <glyph glyph-name="lozenge" unicode="&#x25ca;" horiz-adv-x="593" 
d="M470 356l-163 -391h-24l-161 391l161 391h24zM446 356l-151 377l-151 -377l151 -377z" />
    <glyph glyph-name="f_i" unicode="&#xf001;" horiz-adv-x="494" 
d="M286 762l-4 -17q-22 5 -41 5q-51 0 -74.5 -36t-23.5 -88v-166h125v-19h-125v-441h-22v441h-97v19h96v165q0 77 35.5 110t84.5 33q26 0 46 -6zM381 633q-9 0 -16 7t-7 19q0 10 7 17.5t16 7.5t16 -7.5t7 -17.5q0 -11 -7 -18.5t-16 -7.5zM392 0h-22v460h22v-460z" />
    <glyph glyph-name="f_l" unicode="&#xf002;" horiz-adv-x="494" 
d="M286 762l-4 -17q-22 5 -41 5q-51 0 -74.5 -36t-23.5 -88v-166h125v-19h-125v-441h-22v441h-97v19h96v165q0 77 35.5 110t84.5 33q26 0 46 -6zM392 0h-22v756h22v-756z" />
    <glyph glyph-name="uniF8FF" unicode="&#xf8ff;" horiz-adv-x="512" 
d="M278 117h-56v67h56v-67zM271 234h-46l-2 17q0 56 13 81q15 28 46 59q31 29 40.5 46t9.5 37q0 36 -22.5 60.5t-53.5 24.5q-71 0 -82 -95l-50 8q7 69 43 103t92 34q54 0 89 -36t35 -95q0 -34 -13 -60t-50 -60q-37 -33 -43 -52q-6 -20 -6 -72zM50 50h412v617h-412v-617z
M0 718h512v-718h-512v718z" />
    <glyph glyph-name="grave.cap" horiz-adv-x="240" 
d="M20 908h27l103 -144h-19z" />
    <glyph glyph-name="acute.cap" horiz-adv-x="240" 
d="M220 908l-111 -144h-19l103 144h27z" />
    <glyph glyph-name="circumflex.cap" horiz-adv-x="240" 
d="M106 908h28l103 -144h-23l-94 132l-94 -132h-23z" />
    <glyph glyph-name="caron.cap" horiz-adv-x="240" 
d="M134 764h-28l-103 144h23l94 -132l94 132h23z" />
    <glyph glyph-name="caron.alt" horiz-adv-x="240" 
d="M180 708l-58 -185h-17l51 185h24z" />
    <glyph glyph-name="tilde.cap" horiz-adv-x="240" 
d="M123 838q39 -24 59 -24q33 0 40 48h16q-7 -67 -56 -67q-26 0 -64 24q-37 24 -59 24q-32 0 -40 -51h-16q4 34 19.5 52t36.5 18q25 0 64 -24z" />
    <glyph glyph-name="dieresis.cap" horiz-adv-x="240" 
d="M43 833q-9 0 -16 7t-7 19q0 10 7 17.5t16 7.5t16 -7.5t7 -17.5q0 -11 -7 -18.5t-16 -7.5zM197 833q-9 0 -16 7t-7 19q0 10 7 17.5t16 7.5t16 -7.5t7 -17.5q0 -11 -7 -18.5t-16 -7.5z" />
    <glyph glyph-name="macron.cap" horiz-adv-x="240" 
d="M236 821h-232v20h232v-20z" />
    <glyph glyph-name="breve.cap" horiz-adv-x="240" 
d="M245 898q-10 -60 -43.5 -93t-83.5 -33t-83.5 33t-40.5 93h19q10 -51 37.5 -78.5t67.5 -27.5q44 0 70.5 25.5t38.5 80.5h18z" />
    <glyph glyph-name="ring.cap" horiz-adv-x="240" 
d="M216 850q0 -40 -28.5 -67.5t-67.5 -27.5t-67.5 27.5t-28.5 67.5t28.5 67.5t67.5 27.5t67.5 -27.5t28.5 -67.5zM197 850q0 32 -22.5 55t-54.5 23t-54.5 -23t-22.5 -55t22.5 -55t54.5 -23t54.5 23t22.5 55z" />
    <glyph glyph-name="hungarumlaut.cap" horiz-adv-x="240" 
d="M171 908l-111 -145h-19l103 145h27zM288 908l-111 -145h-19l103 145h27z" />
    <glyph glyph-name="dotaccent.cap" horiz-adv-x="240" 
d="M120 833q-9 0 -16 7t-7 19q0 10 7 17.5t16 7.5t16 -7.5t7 -17.5q0 -11 -7 -18.5t-16 -7.5z" />
    <glyph glyph-name="commaaccent" horiz-adv-x="240" 
d="M150 -45l-58 -185h-17l51 185h24z" />
    <glyph glyph-name="commaaccent.alt" horiz-adv-x="240" 
d="M84 564l58 185h17l-51 -185h-24z" />
    <glyph glyph-name="zero.denominator" 
d="M175 -11q-132 0 -132 221t132 221t132 -221t-132 -221zM175 413q-36 0 -60 -22t-34 -58t-13.5 -64t-3.5 -59t3.5 -59t13.5 -64t34 -58t60 -22q35 0 59.5 22t34.5 58t13.5 64.5t3.5 58.5q0 31 -3.5 59.5t-13.5 64.5t-34.5 57.5t-59.5 21.5z" />
    <glyph glyph-name="one.denominator" 
d="M196 0h-21v398l-96 -64l-12 16l109 70h20v-420z" />
    <glyph glyph-name="two.denominator" 
d="M71 18h227v-18h-249v20l154 169q44 48 59 76t15 56q0 44 -26.5 68t-69.5 24q-78 0 -99 -75l-19 6q11 44 43 65.5t75 21.5q55 0 85.5 -30t30.5 -75q0 -38 -16 -67t-69 -86z" />
    <glyph glyph-name="three.denominator" 
d="M285 109q0 -56 -34.5 -88t-90.5 -32q-87 0 -121 70l18 7q30 -59 103 -59q48 0 76.5 27t28.5 76q0 48 -36 75t-85 27h-17v18h16q51 0 79 27.5t28 67.5q0 42 -26 65.5t-64 23.5q-57 0 -85 -43l-15 11q36 49 100 49q52 0 81 -29t29 -77q0 -43 -25.5 -70.5t-67.5 -32.5v-2
q50 -5 79 -35t29 -76z" />
    <glyph glyph-name="four.denominator" 
d="M227 107h-194v22l183 291h31v-295h67v-18h-67v-107h-20v107zM52 125h175v272h-3z" />
    <glyph glyph-name="five.denominator" 
d="M301 126q0 -64 -39 -100.5t-93 -36.5q-78 0 -117 61l17 10q36 -53 100 -53q46 0 79 31.5t33 87.5q0 52 -31.5 85t-86.5 33q-37 0 -82 -24l4 200h197v-18h-177l-3 -155q33 14 65 14q61 0 97.5 -38t36.5 -97z" />
    <glyph glyph-name="six.denominator" 
d="M47 118q0 48 37 112l110 190h24l-116 -196l1 -1q35 27 77 27q52 0 87.5 -37t35.5 -95q0 -56 -36.5 -92.5t-92.5 -36.5t-91.5 36t-35.5 93zM68 118q0 -49 30 -80t77 -31t77 31t30 80q0 50 -29.5 82t-74.5 32q-46 0 -78 -32.5t-32 -81.5z" />
    <glyph glyph-name="seven.denominator" 
d="M294 420v-19l-173 -401h-22l174 402h-210v18h231z" />
    <glyph glyph-name="eight.denominator" 
d="M304 111q0 -55 -36 -88.5t-92 -33.5t-92.5 33.5t-36.5 88.5q0 37 22.5 69t62.5 45v1q-34 14 -51.5 41t-17.5 58q0 47 32 76.5t81 29.5q48 0 80 -29.5t32 -76.5q0 -32 -18 -58.5t-51 -40.5v-1q40 -13 62.5 -44.5t22.5 -69.5zM284 111q0 45 -32 75.5t-76 30.5
q-45 0 -77 -30.5t-32 -75.5t30.5 -74.5t78.5 -29.5t78 29.5t30 74.5zM268 325q0 38 -26.5 63t-65.5 25t-66 -25t-27 -63t27 -65t66 -27t65.5 27.5t26.5 64.5z" />
    <glyph glyph-name="nine.denominator" 
d="M303 301q0 -45 -37 -109l-111 -192h-24l117 198l-1 1q-33 -27 -77 -27q-52 0 -87.5 36.5t-35.5 92.5t36.5 93t91.5 37q56 0 92 -36.5t36 -93.5zM282 301q0 49 -30 80.5t-77 31.5t-77 -31.5t-30 -80.5q0 -48 29.5 -79.5t74.5 -31.5t77.5 32t32.5 79z" />
    <glyph glyph-name="zero.numerator" 
d="M175 277q-132 0 -132 221t132 221t132 -221t-132 -221zM175 701q-36 0 -60 -22t-34 -58t-13.5 -64t-3.5 -59t3.5 -59t13.5 -64t34 -58t60 -22q35 0 59.5 22t34.5 58t13.5 64.5t3.5 58.5q0 31 -3.5 59.5t-13.5 64.5t-34.5 57.5t-59.5 21.5z" />
    <glyph glyph-name="one.numerator" 
d="M196 288h-21v398l-96 -64l-12 16l109 70h20v-420z" />
    <glyph glyph-name="two.numerator" 
d="M71 306h227v-18h-249v20l154 169q44 48 59 76t15 56q0 44 -26.5 68t-69.5 24q-78 0 -99 -75l-19 6q11 44 43 65.5t75 21.5q55 0 85.5 -30t30.5 -75q0 -38 -16 -67t-69 -86z" />
    <glyph glyph-name="three.numerator" 
d="M285 397q0 -56 -34.5 -88t-90.5 -32q-87 0 -121 70l18 7q30 -59 103 -59q48 0 76.5 27t28.5 76q0 48 -36 75t-85 27h-17v18h16q51 0 79 27.5t28 67.5q0 42 -26 65.5t-64 23.5q-57 0 -85 -43l-15 11q36 49 100 49q52 0 81 -29t29 -77q0 -43 -25.5 -70.5t-67.5 -32.5v-2
q50 -5 79 -35t29 -76z" />
    <glyph glyph-name="four.numerator" 
d="M227 395h-194v22l183 291h31v-295h67v-18h-67v-107h-20v107zM52 413h175v272h-3z" />
    <glyph glyph-name="five.numerator" 
d="M301 414q0 -64 -39 -100.5t-93 -36.5q-78 0 -117 61l17 10q36 -53 100 -53q46 0 79 31.5t33 87.5q0 52 -31.5 85t-86.5 33q-37 0 -82 -24l4 200h197v-18h-177l-3 -155q33 14 65 14q61 0 97.5 -38t36.5 -97z" />
    <glyph glyph-name="six.numerator" 
d="M47 406q0 48 37 112l110 190h24l-116 -196l1 -1q35 27 77 27q52 0 87.5 -37t35.5 -95q0 -56 -36.5 -92.5t-92.5 -36.5t-91.5 36t-35.5 93zM68 406q0 -49 30 -80t77 -31t77 31t30 80q0 50 -29.5 82t-74.5 32q-46 0 -78 -32.5t-32 -81.5z" />
    <glyph glyph-name="seven.numerator" 
d="M294 708v-19l-173 -401h-22l174 402h-210v18h231z" />
    <glyph glyph-name="eight.numerator" 
d="M304 399q0 -55 -36 -88.5t-92 -33.5t-92.5 33.5t-36.5 88.5q0 37 22.5 69t62.5 45v1q-34 14 -51.5 41t-17.5 58q0 47 32 76.5t81 29.5q48 0 80 -29.5t32 -76.5q0 -32 -18 -58.5t-51 -40.5v-1q40 -13 62.5 -44.5t22.5 -69.5zM284 399q0 45 -32 75.5t-76 30.5
q-45 0 -77 -30.5t-32 -75.5t30.5 -74.5t78.5 -29.5t78 29.5t30 74.5zM268 613q0 38 -26.5 63t-65.5 25t-66 -25t-27 -63t27 -65t66 -27t65.5 27.5t26.5 64.5z" />
    <glyph glyph-name="nine.numerator" 
d="M303 589q0 -45 -37 -109l-111 -192h-24l117 198l-1 1q-33 -27 -77 -27q-52 0 -87.5 36.5t-35.5 92.5t36.5 93t91.5 37q56 0 92 -36.5t36 -93.5zM282 589q0 49 -30 80.5t-77 31.5t-77 -31.5t-30 -80.5q0 -48 29.5 -79.5t74.5 -31.5t77.5 32t32.5 79z" />
    <glyph glyph-name="cyrbreve" horiz-adv-x="240" 
d="M120 572q-52 0 -85 34t-40 85l17 3q22 -102 108 -102t108 102l17 -3q-7 -51 -40 -85t-85 -34z" />
    <glyph glyph-name="cyrbreve.cap" horiz-adv-x="240" 
d="M120 772q-52 0 -85 34t-40 85l17 3q22 -102 108 -102t108 102l17 -3q-7 -51 -40 -85t-85 -34z" />
    <glyph glyph-name="exclam.sc" horiz-adv-x="250" 
d="M114 520h22v-384h-22v384zM125 45q9 0 16 -7t7 -19q0 -11 -6.5 -18t-16.5 -7t-16.5 7t-6.5 18q0 12 6.5 19t16.5 7z" />
    <glyph glyph-name="dollar.sc" horiz-adv-x="464" 
d="M241 0v-51h-21v51q-87 3 -139 63l15 14q48 -56 124 -58v235q-63 20 -96 51t-33 88q0 53 37.5 87t91.5 40v52h21v-52q88 0 131 -55l-15 -14q-37 50 -116 50v-230q69 -23 105 -53t36 -87q0 -59 -39.5 -93.5t-101.5 -37.5zM241 19q52 2 86 31.5t34 81.5q0 49 -30.5 73
t-89.5 44v-230zM220 277v224q-42 -4 -75 -33t-33 -76t29 -73t79 -42z" />
    <glyph glyph-name="percent.sc" horiz-adv-x="691" 
d="M311 415q0 -51 -34.5 -85t-83.5 -34t-83 34t-34 85q0 49 34.5 84t82.5 35q49 0 83.5 -35t34.5 -84zM289 415q0 42 -27.5 70.5t-68.5 28.5q-40 0 -67.5 -28.5t-27.5 -70.5q0 -43 27.5 -71t67.5 -28q41 0 68.5 28t27.5 71zM615 105q0 -51 -34.5 -85t-83.5 -34t-83 34
t-34 85q0 49 34.5 84t82.5 35q49 0 83.5 -35t34.5 -84zM593 105q0 42 -27.5 70.5t-68.5 28.5q-40 0 -67.5 -28.5t-27.5 -70.5q0 -43 27.5 -71t67.5 -28q41 0 68.5 28t27.5 71zM517 537l-330 -564l-18 10l330 565z" />
    <glyph glyph-name="ampersand.sc" horiz-adv-x="595" 
d="M517 0h-29l-80 86q-63 -100 -165 -100q-64 0 -106 39t-42 105q0 100 123 158q-38 42 -52 71t-14 62q0 48 32.5 80.5t83.5 32.5q50 0 81 -29.5t31 -72.5q0 -46 -30.5 -80t-98.5 -70l153 -162l80 150h24l-89 -164zM358 429q0 39 -26 62.5t-66 23.5q-39 0 -65.5 -26
t-26.5 -67q0 -32 15 -60.5t49 -65.5q120 60 120 133zM393 102l-162 172q-114 -53 -114 -144q0 -58 36.5 -91.5t92.5 -33.5q91 0 147 97z" />
    <glyph glyph-name="parenleft.sc" horiz-adv-x="225" 
d="M54 259q0 87 25 173.5t70 153.5l20 -10q-42 -59 -67.5 -147.5t-25.5 -169.5t25 -169t68 -147l-20 -10q-45 66 -70 152.5t-25 173.5z" />
    <glyph glyph-name="parenright.sc" horiz-adv-x="225" 
d="M171 259q0 -87 -25 -173.5t-70 -152.5l-20 10q43 59 68 147t25 169t-25.5 169.5t-67.5 147.5l20 10q45 -67 70 -153.5t25 -173.5z" />
    <glyph glyph-name="bracketleft.sc" horiz-adv-x="225" 
d="M166 -66h-108v651h108v-19h-86v-613h86v-19z" />
    <glyph glyph-name="backslash.sc" horiz-adv-x="276" 
d="M16 529l19 7l225 -540l-19 -7z" />
    <glyph glyph-name="bracketright.sc" horiz-adv-x="225" 
d="M167 -66h-108v19h86v613h-86v19h108v-651z" />
    <glyph glyph-name="braceleft.sc" horiz-adv-x="225" 
d="M3 250v18q28 0 42 17.5t14 63.5v142q0 94 80 94h37v-19h-37q-58 0 -58 -75v-142q0 -81 -50 -89v-2q50 -8 50 -89v-142q0 -74 58 -74h37v-19h-37q-80 0 -80 93v142q0 46 -14 63.5t-42 17.5z" />
    <glyph glyph-name="slash.sc" horiz-adv-x="276" 
d="M260 529l-225 -540l-19 7l225 540z" />
    <glyph glyph-name="braceright.sc" horiz-adv-x="225" 
d="M222 269v-18q-28 0 -42 -17.5t-14 -63.5v-142q0 -94 -80 -94h-37v19h37q58 0 58 75v142q0 81 50 89v2q-50 8 -50 89v142q0 74 -58 74h-37v19h37q80 0 80 -93v-142q0 -46 14 -63.5t42 -17.5z" />
    <glyph glyph-name="zero.sc" horiz-adv-x="464" 
d="M232 -14q-48 0 -82.5 24.5t-52 66.5t-25 86t-7.5 94q0 40 4.5 76.5t16 74t29.5 64.5t48 44.5t69 17.5t69 -17.5t48 -44.5t29.5 -64.5t16 -74t4.5 -76.5q0 -50 -7.5 -94t-25 -86t-52 -66.5t-82.5 -24.5zM232 514q-44 0 -75 -27.5t-45 -71.5t-19.5 -82.5t-5.5 -75.5
t5.5 -74t19.5 -80t45 -70t75 -27t75 27t45 70t19.5 80t5.5 74q0 38 -5.5 75.5t-19.5 82t-45 72t-75 27.5z" />
    <glyph glyph-name="one.sc" horiz-adv-x="464" 
d="M265 0h-22v492l-110 -93l-13 17l124 104h21v-520z" />
    <glyph glyph-name="two.sc" horiz-adv-x="464" 
d="M395 0h-299v25l185 213q45 52 66 89t21 73q0 52 -32.5 83t-82.5 31q-42 0 -74 -24t-45 -68l-21 8q13 48 51 76t89 28q62 0 99.5 -36t37.5 -96q0 -43 -22 -81.5t-75 -100.5l-173 -200h275v-20z" />
    <glyph glyph-name="three.sc" horiz-adv-x="464" 
d="M184 281h19q54 0 94.5 31t40.5 89q0 49 -34 81t-84 32q-70 0 -111 -58l-19 12q48 66 130 66q61 0 100.5 -36t39.5 -97q0 -47 -28 -83t-81 -45v-2q63 -9 95 -46.5t32 -88.5q0 -64 -40.5 -107t-117.5 -43q-118 0 -162 96l22 10q38 -86 140 -86q65 0 100.5 37t35.5 92
q0 61 -46.5 93.5t-106.5 32.5h-19v20z" />
    <glyph glyph-name="four.sc" horiz-adv-x="464" 
d="M404 134h-85v-134h-22v134h-247v23l239 363h30v-366h85v-20zM297 154v339h-2l-222 -339h224z" />
    <glyph glyph-name="five.sc" horiz-adv-x="464" 
d="M381 158q0 -79 -49.5 -125.5t-122.5 -46.5q-101 0 -151 73l20 13q42 -66 131 -66q62 0 106 41t44 110q0 64 -41 104t-115 40q-54 0 -107 -30l6 249h256v-20h-235l-6 -199q41 20 91 20q77 0 125 -43.5t48 -119.5z" />
    <glyph glyph-name="six.sc" horiz-adv-x="464" 
d="M69 147q0 61 53 145l143 228h26l-161 -251l2 -2q47 40 109 40q67 0 112 -45t45 -115q0 -69 -46 -115t-118 -46q-73 0 -119 45t-46 116zM91 147q0 -61 40.5 -101t102.5 -40t102 40t40 101q0 60 -38 100t-100 40q-61 0 -104 -39.5t-43 -100.5z" />
    <glyph glyph-name="seven.sc" horiz-adv-x="464" 
d="M381 520v-25l-216 -495h-24l219 500h-264v20h285z" />
    <glyph glyph-name="eight.sc" horiz-adv-x="464" 
d="M392 135q0 -66 -45.5 -107.5t-114.5 -41.5q-68 0 -114 41.5t-46 107.5q0 49 28 88t82 54v2q-45 15 -67 49t-22 73q0 58 39 95.5t100 37.5t100.5 -37.5t39.5 -95.5q0 -39 -22 -72.5t-66 -49.5v-2q54 -16 81 -54.5t27 -87.5zM350 401q0 49 -32.5 81t-85.5 32
q-52 0 -84.5 -32t-32.5 -81q0 -47 32 -80.5t85 -33.5q51 0 84.5 32.5t33.5 81.5zM370 136q0 56 -40 93.5t-98 37.5q-57 0 -97.5 -37.5t-40.5 -93.5q0 -55 38.5 -92.5t99.5 -37.5t99.5 37.5t38.5 92.5z" />
    <glyph glyph-name="nine.sc" horiz-adv-x="464" 
d="M398 373q0 -61 -53 -145l-143 -228h-26l162 254l-2 2q-47 -40 -108 -40q-65 0 -110 45t-45 114q0 68 45.5 113.5t116.5 45.5t117 -45.5t46 -115.5zM376 375q0 60 -39.5 99.5t-101.5 39.5t-101 -39.5t-39 -99.5q0 -59 37.5 -99t98.5 -40q60 0 102.5 39.5t42.5 99.5z" />
    <glyph glyph-name="question.sc" horiz-adv-x="352" 
d="M178 45q9 0 16 -7t7 -19q0 -11 -6.5 -18t-16.5 -7t-16.5 7t-6.5 18q0 12 6.5 19t16.5 7zM189 182v-34h-22v40q0 56 51 101l25 22q26 23 38 45t12 54q0 50 -31.5 76.5t-81.5 26.5q-48 0 -79.5 -27.5t-39.5 -74.5l-21 4q10 57 47.5 88t93.5 31q58 0 96 -32t38 -91
q0 -68 -68 -123q-37 -30 -47.5 -50.5t-10.5 -55.5z" />
    <glyph glyph-name="a.sc" horiz-adv-x="513" 
d="M489 0h-24l-59 145h-296l-63 -145h-23l225 520h22zM397 165l-137 332l-142 -332h279z" />
    <glyph glyph-name="b.sc" horiz-adv-x="488" 
d="M428 138q0 -73 -50 -105.5t-121 -32.5h-155v520h143q65 0 112 -30.5t47 -95.5q0 -52 -29 -81.5t-72 -38.5v-2q48 -4 86.5 -38.5t38.5 -95.5zM382 393q0 56 -40 81.5t-103 25.5h-115v-219h125q55 0 94 28.5t39 83.5zM406 137q0 62 -43 93t-102 31h-137v-241h126
q71 0 113.5 29t42.5 88z" />
    <glyph glyph-name="c.sc" horiz-adv-x="554" 
d="M497 77l15 -16q-72 -75 -187 -75q-116 0 -190.5 77.5t-74.5 196.5t75 196.5t190 77.5q109 0 177 -66l-16 -15q-28 29 -72 44.5t-89 15.5q-107 0 -175 -73t-68 -180t67.5 -180.5t175.5 -73.5q106 0 172 71z" />
    <glyph glyph-name="d.sc" horiz-adv-x="594" 
d="M534 258q0 -127 -79.5 -192.5t-203.5 -65.5h-149v520h149q123 0 203 -66.5t80 -195.5zM246 500h-122v-480h122q119 0 192.5 61.5t73.5 176.5q0 116 -73.5 179t-192.5 63z" />
    <glyph glyph-name="e.sc" horiz-adv-x="477" 
d="M417 0h-315v520h304v-20h-282v-220h265v-20h-265v-240h293v-20z" />
    <glyph glyph-name="f.sc" horiz-adv-x="449" 
d="M399 500h-275v-224h256v-20h-256v-256h-22v520h297v-20z" />
    <glyph glyph-name="g.sc" horiz-adv-x="611" 
d="M519 32q-82 -46 -187 -46q-121 0 -196.5 78.5t-75.5 196.5t76 195.5t194 77.5q108 0 176 -62l-16 -16q-58 57 -161 57q-110 0 -178.5 -72.5t-68.5 -179.5t68.5 -181t182.5 -74q91 0 164 39v194h-132v20h154v-227z" />
    <glyph glyph-name="h.sc" horiz-adv-x="584" 
d="M482 0h-22v257h-336v-257h-22v520h22v-243h336v243h22v-520z" />
    <glyph glyph-name="i.sc" horiz-adv-x="226" 
d="M124 0h-22v520h22v-520z" />
    <glyph glyph-name="j.sc" horiz-adv-x="374" 
d="M280 520v-380q0 -70 -34 -112t-99 -42q-49 0 -80.5 25t-44.5 63l19 9q30 -76 105 -76q58 0 85 38t27 102v373h22z" />
    <glyph glyph-name="k.sc" horiz-adv-x="454" 
d="M124 282h2l261 238h31l-265 -239l277 -281h-31l-273 278h-2v-278h-22v520h22v-238z" />
    <glyph glyph-name="l.sc" horiz-adv-x="390" 
d="M378 0h-276v520h22v-500h254v-20z" />
    <glyph glyph-name="m.sc" horiz-adv-x="710" 
d="M608 0h-22v493h-3l-219 -493h-18l-220 493h-2v-493h-22v520h37l216 -488l216 488h37v-520z" />
    <glyph glyph-name="n.sc" horiz-adv-x="610" 
d="M508 0h-30l-352 490h-2v-490h-22v520h30l352 -490h2v490h22v-520z" />
    <glyph glyph-name="o.sc" horiz-adv-x="659" 
d="M599 261q0 -121 -75 -198t-195 -77q-118 0 -193.5 77t-75.5 198t75 197t194 76q120 0 195 -76t75 -197zM577 261q0 108 -68 180.5t-180 72.5t-179.5 -72.5t-67.5 -180.5t67.5 -181.5t179.5 -73.5t180 73.5t68 181.5z" />
    <glyph glyph-name="p.sc" horiz-adv-x="455" 
d="M411 379q0 -67 -45 -105.5t-112 -38.5h-130v-235h-22v520h149q69 0 114.5 -34.5t45.5 -106.5zM389 379q0 61 -39.5 91t-98.5 30h-127v-245h130q58 0 96.5 31.5t38.5 92.5z" />
    <glyph glyph-name="q.sc" horiz-adv-x="659" 
d="M590 267q0 -88 -49 -156.5t-121 -88.5v-2h199v-20h-295q-111 0 -187.5 75t-76.5 192q0 116 75 191.5t190 75.5q114 0 189.5 -76t75.5 -191zM568 267q0 102 -69 174t-174 72q-106 0 -174.5 -71t-68.5 -175q0 -103 69 -175t174 -72q107 0 175 74t68 173z" />
    <glyph glyph-name="r.sc" horiz-adv-x="478" 
d="M418 0h-25l-151 257h-118v-257h-22v520h140q72 0 120 -31.5t48 -101.5q0 -63 -42 -94t-103 -35zM388 387q0 60 -42 86.5t-108 26.5h-114v-223h120q70 0 107 28.5t37 81.5z" />
    <glyph glyph-name="s.sc" horiz-adv-x="416" 
d="M362 126q0 -65 -46 -102.5t-112 -37.5q-99 0 -154 65l17 15q51 -59 136 -59q57 0 97 31.5t40 86.5q0 28 -10.5 49t-33 35.5t-41 22t-51.5 18.5q-73 23 -109 53.5t-36 90.5q0 64 46.5 102t113.5 38q88 0 134 -59l-17 -15q-41 53 -118 53q-55 0 -96 -31.5t-41 -86.5
q0 -28 10 -49t30 -35t38.5 -22t46.5 -17q80 -26 118 -56t38 -90z" />
    <glyph glyph-name="t.sc" horiz-adv-x="403" 
d="M388 500h-175v-500h-22v500h-176v20h373v-20z" />
    <glyph glyph-name="u.sc" horiz-adv-x="580" 
d="M486 520v-324q0 -92 -47.5 -151t-148.5 -59t-148.5 59t-47.5 151v324h22v-322q0 -83 42 -137t132 -54t132 54t42 137v322h22z" />
    <glyph glyph-name="v.sc" horiz-adv-x="467" 
d="M447 520l-200 -520h-32l-195 520h24l187 -500h2l190 500h24z" />
    <glyph glyph-name="w.sc" horiz-adv-x="743" 
d="M709 520l-156 -520h-33l-149 499h-2l-147 -499h-33l-155 520h23l148 -500h2l146 500h34l149 -500h2l148 500h23z" />
    <glyph glyph-name="x.sc" horiz-adv-x="438" 
d="M414 0h-25l-170 254l-170 -254h-25l182 271l-166 249h25l154 -232l154 232h25l-166 -249z" />
    <glyph glyph-name="y.sc" horiz-adv-x="408" 
d="M394 520l-179 -294v-226h-22v226l-179 294h25l166 -274l164 274h25z" />
    <glyph glyph-name="z.sc" horiz-adv-x="450" 
d="M408 0h-366v23l338 477h-325v20h348v-24l-337 -476h342v-20z" />
    <glyph glyph-name="agrave.sc" horiz-adv-x="513" 
d="M489 0h-24l-59 145h-296l-63 -145h-23l225 520h22zM397 165l-137 332l-142 -332h279zM139 708h27l103 -144h-19z" />
    <glyph glyph-name="aacute.sc" horiz-adv-x="513" 
d="M489 0h-24l-59 145h-296l-63 -145h-23l225 520h22zM397 165l-137 332l-142 -332h279zM381 708l-111 -144h-19l103 144h27z" />
    <glyph glyph-name="acircumflex.sc" horiz-adv-x="513" 
d="M489 0h-24l-59 145h-296l-63 -145h-23l225 520h22zM397 165l-137 332l-142 -332h279zM246 708h28l103 -144h-23l-94 132l-94 -132h-23z" />
    <glyph glyph-name="atilde.sc" horiz-adv-x="513" 
d="M489 0h-24l-59 145h-296l-63 -145h-23l225 520h22zM397 165l-137 332l-142 -332h279zM263 638q39 -24 59 -24q33 0 40 48h16q-7 -67 -56 -67q-26 0 -64 24q-37 24 -59 24q-32 0 -40 -51h-16q4 34 19.5 52t36.5 18q25 0 64 -24z" />
    <glyph glyph-name="adieresis.sc" horiz-adv-x="513" 
d="M489 0h-24l-59 145h-296l-63 -145h-23l225 520h22zM397 165l-137 332l-142 -332h279zM183 633q-9 0 -16 7t-7 19q0 10 7 17.5t16 7.5t16 -7.5t7 -17.5q0 -11 -7 -18.5t-16 -7.5zM337 633q-9 0 -16 7t-7 19q0 10 7 17.5t16 7.5t16 -7.5t7 -17.5q0 -11 -7 -18.5t-16 -7.5z
" />
    <glyph glyph-name="amacron.sc" horiz-adv-x="513" 
d="M489 0h-24l-59 145h-296l-63 -145h-23l225 520h22zM397 165l-137 332l-142 -332h279zM376 621h-232v20h232v-20z" />
    <glyph glyph-name="abreve.sc" horiz-adv-x="513" 
d="M489 0h-24l-59 145h-296l-63 -145h-23l225 520h22zM397 165l-137 332l-142 -332h279zM386 698q-10 -60 -43.5 -93t-83.5 -33t-83.5 33t-40.5 93h19q10 -51 37.5 -78.5t67.5 -27.5q44 0 70.5 25.5t38.5 80.5h18z" />
    <glyph glyph-name="aring.sc" horiz-adv-x="513" 
d="M489 0h-24l-59 145h-296l-63 -145h-23l225 520h22zM397 165l-137 332l-142 -332h279zM355 650q0 -40 -28.5 -67.5t-67.5 -27.5t-67.5 27.5t-28.5 67.5t28.5 67.5t67.5 27.5t67.5 -27.5t28.5 -67.5zM336 650q0 32 -22.5 55t-54.5 23t-54.5 -23t-22.5 -55t22.5 -55
t54.5 -23t54.5 23t22.5 55z" />
    <glyph glyph-name="aogonek.sc" horiz-adv-x="513" 
d="M489 0q-52 -52 -72.5 -81t-20.5 -60q0 -30 17.5 -47t47.5 -17q42 0 69 29l10 -16q-34 -31 -82 -31q-36 0 -60 21.5t-24 58.5q0 35 23 67.5t68 75.5l-59 145h-296l-63 -145h-23l225 520h22zM397 165l-137 332l-142 -332h279z" />
    <glyph glyph-name="ae.sc" horiz-adv-x="740" 
d="M680 0h-315v155h-232l-101 -155h-26l338 520h325v-20h-282v-220h265v-20h-265v-240h293v-20zM355 500l-209 -325h219v325h-10z" />
    <glyph glyph-name="cacute.sc" horiz-adv-x="554" 
d="M497 77l15 -16q-72 -75 -187 -75q-116 0 -190.5 77.5t-74.5 196.5t75 196.5t190 77.5q109 0 177 -66l-16 -15q-28 29 -72 44.5t-89 15.5q-107 0 -175 -73t-68 -180t67.5 -180.5t175.5 -73.5q106 0 172 71zM404 708l-111 -144h-19l103 144h27z" />
    <glyph glyph-name="ccircumflex.sc" horiz-adv-x="554" 
d="M497 77l15 -16q-72 -75 -187 -75q-116 0 -190.5 77.5t-74.5 196.5t75 196.5t190 77.5q109 0 177 -66l-16 -15q-28 29 -72 44.5t-89 15.5q-107 0 -175 -73t-68 -180t67.5 -180.5t175.5 -73.5q106 0 172 71zM313 708h28l103 -144h-23l-94 132l-94 -132h-23z" />
    <glyph glyph-name="ccaron.sc" horiz-adv-x="554" 
d="M497 77l15 -16q-72 -75 -187 -75q-116 0 -190.5 77.5t-74.5 196.5t75 196.5t190 77.5q109 0 177 -66l-16 -15q-28 29 -72 44.5t-89 15.5q-107 0 -175 -73t-68 -180t67.5 -180.5t175.5 -73.5q106 0 172 71zM337 564h-28l-103 144h23l94 -132l94 132h23z" />
    <glyph glyph-name="cdotaccent.sc" horiz-adv-x="554" 
d="M497 77l15 -16q-72 -75 -187 -75q-116 0 -190.5 77.5t-74.5 196.5t75 196.5t190 77.5q109 0 177 -66l-16 -15q-28 29 -72 44.5t-89 15.5q-107 0 -175 -73t-68 -180t67.5 -180.5t175.5 -73.5q106 0 172 71zM324 633q-9 0 -16 7t-7 19q0 10 7 17.5t16 7.5t16 -7.5t7 -17.5
q0 -11 -7 -18.5t-16 -7.5z" />
    <glyph glyph-name="ccedilla.sc" horiz-adv-x="554" 
d="M421 -146q0 -43 -35 -61.5t-77 -18.5q-45 0 -90 20l5 17q35 -18 86 -18q90 0 90 61q0 51 -72 51q-42 0 -69 -15l-10 9l59 88q-110 6 -179 82t-69 191q0 119 75 196.5t190 77.5q109 0 177 -66l-16 -15q-28 29 -72 44.5t-89 15.5q-107 0 -175 -73t-68 -180t67.5 -180.5
t175.5 -73.5q106 0 172 71l15 -16q-70 -74 -183 -75l-49 -72q25 8 54 8q35 0 61 -16t26 -52z" />
    <glyph glyph-name="dcaron.sc" horiz-adv-x="594" 
d="M534 258q0 -127 -79.5 -192.5t-203.5 -65.5h-149v520h149q123 0 203 -66.5t80 -195.5zM246 500h-122v-480h122q119 0 192.5 61.5t73.5 176.5q0 116 -73.5 179t-192.5 63zM299 564h-28l-103 144h23l94 -132l94 132h23z" />
    <glyph glyph-name="dcroat.sc" horiz-adv-x="594" 
d="M534 258q0 -127 -79.5 -192.5t-203.5 -65.5h-149v263h-80v20h80v237h149q123 0 203 -66.5t80 -195.5zM246 500h-122v-217h175v-20h-175v-243h122q119 0 192.5 61.5t73.5 176.5q0 116 -73.5 179t-192.5 63z" />
    <glyph glyph-name="eth.sc" horiz-adv-x="594" 
d="M534 258q0 -127 -79.5 -192.5t-203.5 -65.5h-149v263h-80v20h80v237h149q123 0 203 -66.5t80 -195.5zM246 500h-122v-217h175v-20h-175v-243h122q119 0 192.5 61.5t73.5 176.5q0 116 -73.5 179t-192.5 63z" />
    <glyph glyph-name="egrave.sc" horiz-adv-x="477" 
d="M417 0h-315v520h304v-20h-282v-220h265v-20h-265v-240h293v-20zM142 708h27l103 -144h-19z" />
    <glyph glyph-name="eacute.sc" horiz-adv-x="477" 
d="M417 0h-315v520h304v-20h-282v-220h265v-20h-265v-240h293v-20zM361 708l-111 -144h-19l103 144h27z" />
    <glyph glyph-name="ecircumflex.sc" horiz-adv-x="477" 
d="M417 0h-315v520h304v-20h-282v-220h265v-20h-265v-240h293v-20zM241 708h28l103 -144h-23l-94 132l-94 -132h-23z" />
    <glyph glyph-name="ecaron.sc" horiz-adv-x="477" 
d="M417 0h-315v520h304v-20h-282v-220h265v-20h-265v-240h293v-20zM269 564h-28l-103 144h23l94 -132l94 132h23z" />
    <glyph glyph-name="edieresis.sc" horiz-adv-x="477" 
d="M417 0h-315v520h304v-20h-282v-220h265v-20h-265v-240h293v-20zM178 633q-9 0 -16 7t-7 19q0 10 7 17.5t16 7.5t16 -7.5t7 -17.5q0 -11 -7 -18.5t-16 -7.5zM332 633q-9 0 -16 7t-7 19q0 10 7 17.5t16 7.5t16 -7.5t7 -17.5q0 -11 -7 -18.5t-16 -7.5z" />
    <glyph glyph-name="emacron.sc" horiz-adv-x="477" 
d="M417 0h-315v520h304v-20h-282v-220h265v-20h-265v-240h293v-20zM369 621h-232v20h232v-20z" />
    <glyph glyph-name="ebreve.sc" horiz-adv-x="477" 
d="M417 0h-315v520h304v-20h-282v-220h265v-20h-265v-240h293v-20zM380 698q-10 -60 -43.5 -93t-83.5 -33t-83.5 33t-40.5 93h19q10 -51 37.5 -78.5t67.5 -27.5q44 0 70.5 25.5t38.5 80.5h18z" />
    <glyph glyph-name="edotaccent.sc" horiz-adv-x="477" 
d="M417 0h-315v520h304v-20h-282v-220h265v-20h-265v-240h293v-20zM255 633q-9 0 -16 7t-7 19q0 10 7 17.5t16 7.5t16 -7.5t7 -17.5q0 -11 -7 -18.5t-16 -7.5z" />
    <glyph glyph-name="eogonek.sc" horiz-adv-x="477" 
d="M440 -176l10 -16q-34 -31 -82 -31q-36 0 -60 21.5t-24 58.5q0 35 23.5 67.5t68.5 75.5h-274v520h304v-20h-282v-220h265v-20h-265v-240h293v-20h-18q-52 -52 -72.5 -81t-20.5 -60q0 -30 17.5 -47t47.5 -17q42 0 69 29z" />
    <glyph glyph-name="gcircumflex.sc" horiz-adv-x="611" 
d="M519 32q-82 -46 -187 -46q-121 0 -196.5 78.5t-75.5 196.5t76 195.5t194 77.5q108 0 176 -62l-16 -16q-58 57 -161 57q-110 0 -178.5 -72.5t-68.5 -179.5t68.5 -181t182.5 -74q91 0 164 39v194h-132v20h154v-227zM318 708h28l103 -144h-23l-94 132l-94 -132h-23z" />
    <glyph glyph-name="gbreve.sc" horiz-adv-x="611" 
d="M519 32q-82 -46 -187 -46q-121 0 -196.5 78.5t-75.5 196.5t76 195.5t194 77.5q108 0 176 -62l-16 -16q-58 57 -161 57q-110 0 -178.5 -72.5t-68.5 -179.5t68.5 -181t182.5 -74q91 0 164 39v194h-132v20h154v-227zM456 698q-10 -60 -43.5 -93t-83.5 -33t-83.5 33t-40.5 93
h19q10 -51 37.5 -78.5t67.5 -27.5q44 0 70.5 25.5t38.5 80.5h18z" />
    <glyph glyph-name="gdotaccent.sc" horiz-adv-x="611" 
d="M519 32q-82 -46 -187 -46q-121 0 -196.5 78.5t-75.5 196.5t76 195.5t194 77.5q108 0 176 -62l-16 -16q-58 57 -161 57q-110 0 -178.5 -72.5t-68.5 -179.5t68.5 -181t182.5 -74q91 0 164 39v194h-132v20h154v-227zM329 633q-9 0 -16 7t-7 19q0 10 7 17.5t16 7.5t16 -7.5
t7 -17.5q0 -11 -7 -18.5t-16 -7.5z" />
    <glyph glyph-name="gcommaaccent.sc" horiz-adv-x="611" 
d="M519 32q-82 -46 -187 -46q-121 0 -196.5 78.5t-75.5 196.5t76 195.5t194 77.5q108 0 176 -62l-16 -16q-58 57 -161 57q-110 0 -178.5 -72.5t-68.5 -179.5t68.5 -181t182.5 -74q91 0 164 39v194h-132v20h154v-227zM347 -45l-58 -185h-17l51 185h24z" />
    <glyph glyph-name="kgreenlandic.sc" horiz-adv-x="454" 
d="M124 282h2l261 238h31l-265 -239l277 -281h-31l-273 278h-2v-278h-22v520h22v-238z" />
    <glyph glyph-name="hcircumflex.sc" horiz-adv-x="584" 
d="M482 0h-22v257h-336v-257h-22v520h22v-243h336v243h22v-520zM277 708h28l103 -144h-23l-94 132l-94 -132h-23z" />
    <glyph glyph-name="hbar.sc" horiz-adv-x="584" 
d="M482 0h-22v257h-336v-257h-22v520h22v-134h336v134h22v-520zM124 277h336v91h-336v-91z" />
    <glyph glyph-name="igrave.sc" horiz-adv-x="226" 
d="M124 0h-22v520h22v-520zM-6 708h27l103 -144h-19z" />
    <glyph glyph-name="iacute.sc" horiz-adv-x="226" 
d="M124 0h-22v520h22v-520zM233 708l-111 -144h-19l103 144h27z" />
    <glyph glyph-name="ibreve.sc" horiz-adv-x="226" 
d="M124 0h-22v520h22v-520zM239 698q-10 -60 -43.5 -93t-83.5 -33t-83.5 33t-40.5 93h19q10 -51 37.5 -78.5t67.5 -27.5q44 0 70.5 25.5t38.5 80.5h18z" />
    <glyph glyph-name="icircumflex.sc" horiz-adv-x="226" 
d="M124 0h-22v520h22v-520zM98 708h28l103 -144h-23l-94 132l-94 -132h-23z" />
    <glyph glyph-name="itilde.sc" horiz-adv-x="226" 
d="M124 0h-22v520h22v-520zM116 638q39 -24 59 -24q33 0 40 48h16q-7 -67 -56 -67q-26 0 -64 24q-37 24 -59 24q-32 0 -40 -51h-16q4 34 19.5 52t36.5 18q25 0 64 -24z" />
    <glyph glyph-name="idieresis.sc" horiz-adv-x="226" 
d="M124 0h-22v520h22v-520zM35 633q-9 0 -16 7t-7 19q0 10 7 17.5t16 7.5t16 -7.5t7 -17.5q0 -11 -7 -18.5t-16 -7.5zM189 633q-9 0 -16 7t-7 19q0 10 7 17.5t16 7.5t16 -7.5t7 -17.5q0 -11 -7 -18.5t-16 -7.5z" />
    <glyph glyph-name="imacron.sc" horiz-adv-x="226" 
d="M124 0h-22v520h22v-520zM229 621h-232v20h232v-20z" />
    <glyph glyph-name="idotaccent.sc" horiz-adv-x="226" 
d="M124 0h-22v520h22v-520zM113 633q-9 0 -16 7t-7 19q0 10 7 17.5t16 7.5t16 -7.5t7 -17.5q0 -11 -7 -18.5t-16 -7.5z" />
    <glyph glyph-name="iogonek.sc" horiz-adv-x="226" 
d="M166 -176l10 -16q-34 -31 -82 -31q-36 0 -60 21.5t-24 58.5q0 35 23.5 67.5t68.5 75.5v520h22v-520q-51 -51 -71.5 -80.5t-20.5 -60.5q0 -30 17.5 -47t47.5 -17q42 0 69 29z" />
    <glyph glyph-name="jcircumflex.sc" horiz-adv-x="374" 
d="M280 520v-380q0 -70 -34 -112t-99 -42q-49 0 -80.5 25t-44.5 63l19 9q30 -76 105 -76q58 0 85 38t27 102v373h22zM254 708h28l103 -144h-23l-94 132l-94 -132h-23z" />
    <glyph glyph-name="kcommaaccent.sc" horiz-adv-x="454" 
d="M124 282h2l261 238h31l-265 -239l277 -281h-31l-273 278h-2v-278h-22v520h22v-238zM269 -45l-58 -185h-17l51 185h24z" />
    <glyph glyph-name="lacute.sc" horiz-adv-x="390" 
d="M378 0h-276v520h22v-500h254v-20zM235 708l-111 -144h-19l103 144h27z" />
    <glyph glyph-name="lcaron.sc" horiz-adv-x="390" 
d="M378 0h-276v520h22v-500h254v-20zM285 520l-58 -185h-17l51 185h24z" />
    <glyph glyph-name="lcommaaccent.sc" horiz-adv-x="390" 
d="M378 0h-276v520h22v-500h254v-20zM267 -45l-58 -185h-17l51 185h24z" />
    <glyph glyph-name="lslash.sc" horiz-adv-x="390" 
d="M378 0h-276v255l-65 -57v27l65 56v239h22v-220l121 105v-24l-121 -107v-254h254v-20z" />
    <glyph glyph-name="ldot.sc" horiz-adv-x="390" 
d="M378 0h-276v520h22v-500h254v-20zM248 273q-9 0 -16 7t-7 19q0 10 7 17.5t16 7.5t16 -7.5t7 -17.5q0 -11 -7 -18.5t-16 -7.5z" />
    <glyph glyph-name="nacute.sc" horiz-adv-x="610" 
d="M508 0h-30l-352 490h-2v-490h-22v520h30l352 -490h2v490h22v-520zM394 708l-111 -144h-19l103 144h27z" />
    <glyph glyph-name="ncaron.sc" horiz-adv-x="610" 
d="M508 0h-30l-352 490h-2v-490h-22v520h30l352 -490h2v490h22v-520zM321 564h-28l-103 144h23l94 -132l94 132h23z" />
    <glyph glyph-name="ntilde.sc" horiz-adv-x="610" 
d="M508 0h-30l-352 490h-2v-490h-22v520h30l352 -490h2v490h22v-520zM309 638q39 -24 59 -24q33 0 40 48h16q-7 -67 -56 -67q-26 0 -64 24q-37 24 -59 24q-32 0 -40 -51h-16q4 34 19.5 52t36.5 18q25 0 64 -24z" />
    <glyph glyph-name="ncommaaccent.sc" horiz-adv-x="610" 
d="M508 0h-30l-352 490h-2v-490h-22v520h30l352 -490h2v490h22v-520zM328 -45l-58 -185h-17l51 185h24z" />
    <glyph glyph-name="ograve.sc" horiz-adv-x="659" 
d="M599 261q0 -121 -75 -198t-195 -77q-118 0 -193.5 77t-75.5 198t75 197t194 76q120 0 195 -76t75 -197zM577 261q0 108 -68 180.5t-180 72.5t-179.5 -72.5t-67.5 -180.5t67.5 -181.5t179.5 -73.5t180 73.5t68 181.5zM230 708h27l103 -144h-19z" />
    <glyph glyph-name="oacute.sc" horiz-adv-x="659" 
d="M599 261q0 -121 -75 -198t-195 -77q-118 0 -193.5 77t-75.5 198t75 197t194 76q120 0 195 -76t75 -197zM577 261q0 108 -68 180.5t-180 72.5t-179.5 -72.5t-67.5 -180.5t67.5 -181.5t179.5 -73.5t180 73.5t68 181.5zM432 708l-111 -144h-19l103 144h27z" />
    <glyph glyph-name="ocircumflex.sc" horiz-adv-x="659" 
d="M599 261q0 -121 -75 -198t-195 -77q-118 0 -193.5 77t-75.5 198t75 197t194 76q120 0 195 -76t75 -197zM577 261q0 108 -68 180.5t-180 72.5t-179.5 -72.5t-67.5 -180.5t67.5 -181.5t179.5 -73.5t180 73.5t68 181.5zM315 708h28l103 -144h-23l-94 132l-94 -132h-23z" />
    <glyph glyph-name="otilde.sc" horiz-adv-x="659" 
d="M599 261q0 -121 -75 -198t-195 -77q-118 0 -193.5 77t-75.5 198t75 197t194 76q120 0 195 -76t75 -197zM577 261q0 108 -68 180.5t-180 72.5t-179.5 -72.5t-67.5 -180.5t67.5 -181.5t179.5 -73.5t180 73.5t68 181.5zM332 638q39 -24 59 -24q33 0 40 48h16q-7 -67 -56 -67
q-26 0 -64 24q-37 24 -59 24q-32 0 -40 -51h-16q4 34 19.5 52t36.5 18q25 0 64 -24z" />
    <glyph glyph-name="odieresis.sc" horiz-adv-x="659" 
d="M599 261q0 -121 -75 -198t-195 -77q-118 0 -193.5 77t-75.5 198t75 197t194 76q120 0 195 -76t75 -197zM577 261q0 108 -68 180.5t-180 72.5t-179.5 -72.5t-67.5 -180.5t67.5 -181.5t179.5 -73.5t180 73.5t68 181.5zM252 633q-9 0 -16 7t-7 19q0 10 7 17.5t16 7.5
t16 -7.5t7 -17.5q0 -11 -7 -18.5t-16 -7.5zM406 633q-9 0 -16 7t-7 19q0 10 7 17.5t16 7.5t16 -7.5t7 -17.5q0 -11 -7 -18.5t-16 -7.5z" />
    <glyph glyph-name="omacron.sc" horiz-adv-x="659" 
d="M599 261q0 -121 -75 -198t-195 -77q-118 0 -193.5 77t-75.5 198t75 197t194 76q120 0 195 -76t75 -197zM577 261q0 108 -68 180.5t-180 72.5t-179.5 -72.5t-67.5 -180.5t67.5 -181.5t179.5 -73.5t180 73.5t68 181.5zM445 621h-232v20h232v-20z" />
    <glyph glyph-name="obreve.sc" horiz-adv-x="659" 
d="M599 261q0 -121 -75 -198t-195 -77q-118 0 -193.5 77t-75.5 198t75 197t194 76q120 0 195 -76t75 -197zM577 261q0 108 -68 180.5t-180 72.5t-179.5 -72.5t-67.5 -180.5t67.5 -181.5t179.5 -73.5t180 73.5t68 181.5zM455 698q-10 -60 -43.5 -93t-83.5 -33t-83.5 33
t-40.5 93h19q10 -51 37.5 -78.5t67.5 -27.5q44 0 70.5 25.5t38.5 80.5h18z" />
    <glyph glyph-name="ohungarumlaut.sc" horiz-adv-x="659" 
d="M599 261q0 -121 -75 -198t-195 -77q-118 0 -193.5 77t-75.5 198t75 197t194 76q120 0 195 -76t75 -197zM577 261q0 108 -68 180.5t-180 72.5t-179.5 -72.5t-67.5 -180.5t67.5 -181.5t179.5 -73.5t180 73.5t68 181.5zM401 708l-111 -145h-19l103 145h27zM518 708
l-111 -145h-19l103 145h27z" />
    <glyph glyph-name="oslash.sc" horiz-adv-x="659" 
d="M76 -8l-14 13l65 67q-67 77 -67 189q0 121 75 197t194 76q111 0 184 -67l63 65l14 -14l-63 -64q72 -75 72 -193q0 -121 -75 -198t-195 -77q-115 0 -189 72zM577 261q0 106 -65 177l-357 -365q67 -67 174 -67q112 0 180 73.5t68 181.5zM82 261q0 -103 60 -174l356 365
q-69 62 -169 62q-112 0 -179.5 -72.5t-67.5 -180.5z" />
    <glyph glyph-name="oe.sc" horiz-adv-x="779" 
d="M719 0h-381q-119 0 -197.5 71t-78.5 188t79.5 189t196.5 72h370v-20h-282v-220h265v-20h-265v-240h293v-20zM340 21h64v478h-64q-110 0 -183 -68t-73 -172t72.5 -171t183.5 -67z" />
    <glyph glyph-name="racute.sc" horiz-adv-x="478" 
d="M418 0h-25l-151 257h-118v-257h-22v520h140q72 0 120 -31.5t48 -101.5q0 -63 -42 -94t-103 -35zM388 387q0 60 -42 86.5t-108 26.5h-114v-223h120q70 0 107 28.5t37 81.5zM328 708l-111 -144h-19l103 144h27z" />
    <glyph glyph-name="rcaron.sc" horiz-adv-x="478" 
d="M418 0h-25l-151 257h-118v-257h-22v520h140q72 0 120 -31.5t48 -101.5q0 -63 -42 -94t-103 -35zM388 387q0 60 -42 86.5t-108 26.5h-114v-223h120q70 0 107 28.5t37 81.5zM250 564h-28l-103 144h23l94 -132l94 132h23z" />
    <glyph glyph-name="rcommaaccent.sc" horiz-adv-x="478" 
d="M418 0h-25l-151 257h-118v-257h-22v520h140q72 0 120 -31.5t48 -101.5q0 -63 -42 -94t-103 -35zM388 387q0 60 -42 86.5t-108 26.5h-114v-223h120q70 0 107 28.5t37 81.5zM267 -45l-58 -185h-17l51 185h24z" />
    <glyph glyph-name="sacute.sc" horiz-adv-x="416" 
d="M362 126q0 -65 -46 -102.5t-112 -37.5q-99 0 -154 65l17 15q51 -59 136 -59q57 0 97 31.5t40 86.5q0 28 -10.5 49t-33 35.5t-41 22t-51.5 18.5q-73 23 -109 53.5t-36 90.5q0 64 46.5 102t113.5 38q88 0 134 -59l-17 -15q-41 53 -118 53q-55 0 -96 -31.5t-41 -86.5
q0 -28 10 -49t30 -35t38.5 -22t46.5 -17q80 -26 118 -56t38 -90zM300 708l-111 -144h-19l103 144h27z" />
    <glyph glyph-name="scircumflex.sc" horiz-adv-x="416" 
d="M362 126q0 -65 -46 -102.5t-112 -37.5q-99 0 -154 65l17 15q51 -59 136 -59q57 0 97 31.5t40 86.5q0 28 -10.5 49t-33 35.5t-41 22t-51.5 18.5q-73 23 -109 53.5t-36 90.5q0 64 46.5 102t113.5 38q88 0 134 -59l-17 -15q-41 53 -118 53q-55 0 -96 -31.5t-41 -86.5
q0 -28 10 -49t30 -35t38.5 -22t46.5 -17q80 -26 118 -56t38 -90zM204 708h28l103 -144h-23l-94 132l-94 -132h-23z" />
    <glyph glyph-name="scaron.sc" horiz-adv-x="416" 
d="M362 126q0 -65 -46 -102.5t-112 -37.5q-99 0 -154 65l17 15q51 -59 136 -59q57 0 97 31.5t40 86.5q0 28 -10.5 49t-33 35.5t-41 22t-51.5 18.5q-73 23 -109 53.5t-36 90.5q0 64 46.5 102t113.5 38q88 0 134 -59l-17 -15q-41 53 -118 53q-55 0 -96 -31.5t-41 -86.5
q0 -28 10 -49t30 -35t38.5 -22t46.5 -17q80 -26 118 -56t38 -90zM232 564h-28l-103 144h23l94 -132l94 132h23z" />
    <glyph glyph-name="scedilla.sc" horiz-adv-x="416" 
d="M302 -146q0 -43 -35 -61.5t-77 -18.5q-45 0 -90 20l5 17q35 -18 86 -18q90 0 90 61q0 51 -72 51q-42 0 -69 -15l-10 9l59 88q-89 5 -139 64l17 15q51 -59 136 -59q57 0 97 31.5t40 86.5q0 28 -10.5 49t-33 35.5t-41 22t-51.5 18.5q-73 23 -109 53.5t-36 90.5
q0 64 46.5 102t113.5 38q88 0 134 -59l-17 -15q-41 53 -118 53q-55 0 -96 -31.5t-41 -86.5q0 -28 10 -49t30 -35t38.5 -22t46.5 -17q80 -26 118 -56t38 -90q0 -64 -43.5 -101t-108.5 -39l-49 -72q25 8 54 8q35 0 61 -16t26 -52z" />
    <glyph glyph-name="scommaaccent.sc" horiz-adv-x="416" 
d="M362 126q0 -65 -46 -102.5t-112 -37.5q-99 0 -154 65l17 15q51 -59 136 -59q57 0 97 31.5t40 86.5q0 28 -10.5 49t-33 35.5t-41 22t-51.5 18.5q-73 23 -109 53.5t-36 90.5q0 64 46.5 102t113.5 38q88 0 134 -59l-17 -15q-41 53 -118 53q-55 0 -96 -31.5t-41 -86.5
q0 -28 10 -49t30 -35t38.5 -22t46.5 -17q80 -26 118 -56t38 -90zM224 -45l-58 -185h-17l51 185h24z" />
    <glyph glyph-name="tcaron.sc" horiz-adv-x="403" 
d="M388 500h-175v-500h-22v500h-176v20h373v-20zM216 564h-28l-103 144h23l94 -132l94 132h23z" />
    <glyph glyph-name="tcommaaccent.sc" horiz-adv-x="403" 
d="M388 500h-175v-500h-22v500h-176v20h373v-20zM219 -45l-58 -185h-17l51 185h24z" />
    <glyph glyph-name="tbar.sc" horiz-adv-x="403" 
d="M338 342h-125v-342h-22v342h-126v18h126v140h-176v20h373v-20h-175v-140h125v-18z" />
    <glyph glyph-name="thorn.sc" horiz-adv-x="454" 
d="M124 0h-22v520h22v-100h122q71 0 117.5 -30.5t46.5 -101.5t-46.5 -101t-117.5 -30h-122v-157zM124 177h114q150 0 150 111q0 112 -150 112h-114v-223z" />
    <glyph glyph-name="ugrave.sc" horiz-adv-x="580" 
d="M486 520v-324q0 -92 -47.5 -151t-148.5 -59t-148.5 59t-47.5 151v324h22v-322q0 -83 42 -137t132 -54t132 54t42 137v322h22zM174 708h27l103 -144h-19z" />
    <glyph glyph-name="uacute.sc" horiz-adv-x="580" 
d="M486 520v-324q0 -92 -47.5 -151t-148.5 -59t-148.5 59t-47.5 151v324h22v-322q0 -83 42 -137t132 -54t132 54t42 137v322h22zM403 708l-111 -144h-19l103 144h27z" />
    <glyph glyph-name="ucircumflex.sc" horiz-adv-x="580" 
d="M486 520v-324q0 -92 -47.5 -151t-148.5 -59t-148.5 59t-47.5 151v324h22v-322q0 -83 42 -137t132 -54t132 54t42 137v322h22zM275 708h28l103 -144h-23l-94 132l-94 -132h-23z" />
    <glyph glyph-name="utilde.sc" horiz-adv-x="580" 
d="M486 520v-324q0 -92 -47.5 -151t-148.5 -59t-148.5 59t-47.5 151v324h22v-322q0 -83 42 -137t132 -54t132 54t42 137v322h22zM294 638q39 -24 59 -24q33 0 40 48h16q-7 -67 -56 -67q-26 0 -64 24q-37 24 -59 24q-32 0 -40 -51h-16q4 34 19.5 52t36.5 18q25 0 64 -24z" />
    <glyph glyph-name="udieresis.sc" horiz-adv-x="580" 
d="M486 520v-324q0 -92 -47.5 -151t-148.5 -59t-148.5 59t-47.5 151v324h22v-322q0 -83 42 -137t132 -54t132 54t42 137v322h22zM214 633q-9 0 -16 7t-7 19q0 10 7 17.5t16 7.5t16 -7.5t7 -17.5q0 -11 -7 -18.5t-16 -7.5zM368 633q-9 0 -16 7t-7 19q0 10 7 17.5t16 7.5
t16 -7.5t7 -17.5q0 -11 -7 -18.5t-16 -7.5z" />
    <glyph glyph-name="umacron.sc" horiz-adv-x="580" 
d="M486 520v-324q0 -92 -47.5 -151t-148.5 -59t-148.5 59t-47.5 151v324h22v-322q0 -83 42 -137t132 -54t132 54t42 137v322h22zM407 621h-232v20h232v-20z" />
    <glyph glyph-name="ubreve.sc" horiz-adv-x="580" 
d="M486 520v-324q0 -92 -47.5 -151t-148.5 -59t-148.5 59t-47.5 151v324h22v-322q0 -83 42 -137t132 -54t132 54t42 137v322h22zM417 698q-10 -60 -43.5 -93t-83.5 -33t-83.5 33t-40.5 93h19q10 -51 37.5 -78.5t67.5 -27.5q44 0 70.5 25.5t38.5 80.5h18z" />
    <glyph glyph-name="uring.sc" horiz-adv-x="580" 
d="M486 520v-324q0 -92 -47.5 -151t-148.5 -59t-148.5 59t-47.5 151v324h22v-322q0 -83 42 -137t132 -54t132 54t42 137v322h22zM386 650q0 -40 -28.5 -67.5t-67.5 -27.5t-67.5 27.5t-28.5 67.5t28.5 67.5t67.5 27.5t67.5 -27.5t28.5 -67.5zM367 650q0 32 -22.5 55t-54.5 23
t-54.5 -23t-22.5 -55t22.5 -55t54.5 -23t54.5 23t22.5 55z" />
    <glyph glyph-name="uhungarumlaut.sc" horiz-adv-x="580" 
d="M486 520v-324q0 -92 -47.5 -151t-148.5 -59t-148.5 59t-47.5 151v324h22v-322q0 -83 42 -137t132 -54t132 54t42 137v322h22zM344 708l-111 -145h-19l103 145h27zM461 708l-111 -145h-19l103 145h27z" />
    <glyph glyph-name="uogonek.sc" horiz-adv-x="580" 
d="M486 520v-324q0 -87 -41.5 -144t-129.5 -65q-44 -44 -62 -71t-18 -57t17.5 -47t47.5 -17q42 0 69 29l10 -16q-34 -31 -82 -31q-36 0 -60 21.5t-24 58.5q0 54 77 129q-101 0 -148.5 59t-47.5 151v324h22v-322q0 -83 42 -137t132 -54t132 54t42 137v322h22z" />
    <glyph glyph-name="wacute.sc" horiz-adv-x="743" 
d="M709 520l-156 -520h-33l-149 499h-2l-147 -499h-33l-155 520h23l148 -500h2l146 500h34l149 -500h2l148 500h23zM491 708l-111 -144h-19l103 144h27z" />
    <glyph glyph-name="wcircumflex.sc" horiz-adv-x="743" 
d="M709 520l-156 -520h-33l-149 499h-2l-147 -499h-33l-155 520h23l148 -500h2l146 500h34l149 -500h2l148 500h23zM357 708h28l103 -144h-23l-94 132l-94 -132h-23z" />
    <glyph glyph-name="wdieresis.sc" horiz-adv-x="743" 
d="M709 520l-156 -520h-33l-149 499h-2l-147 -499h-33l-155 520h23l148 -500h2l146 500h34l149 -500h2l148 500h23zM293 633q-9 0 -16 7t-7 19q0 10 7 17.5t16 7.5t16 -7.5t7 -17.5q0 -11 -7 -18.5t-16 -7.5zM447 633q-9 0 -16 7t-7 19q0 10 7 17.5t16 7.5t16 -7.5t7 -17.5
q0 -11 -7 -18.5t-16 -7.5z" />
    <glyph glyph-name="wgrave.sc" horiz-adv-x="743" 
d="M709 520l-156 -520h-33l-149 499h-2l-147 -499h-33l-155 520h23l148 -500h2l146 500h34l149 -500h2l148 500h23zM249 708h27l103 -144h-19z" />
    <glyph glyph-name="yacute.sc" horiz-adv-x="408" 
d="M394 520l-179 -294v-226h-22v226l-179 294h25l166 -274l164 274h25zM304 708l-111 -144h-19l103 144h27z" />
    <glyph glyph-name="ycircumflex.sc" horiz-adv-x="408" 
d="M394 520l-179 -294v-226h-22v226l-179 294h25l166 -274l164 274h25zM191 708h28l103 -144h-23l-94 132l-94 -132h-23z" />
    <glyph glyph-name="ydieresis.sc" horiz-adv-x="408" 
d="M394 520l-179 -294v-226h-22v226l-179 294h25l166 -274l164 274h25zM128 633q-9 0 -16 7t-7 19q0 10 7 17.5t16 7.5t16 -7.5t7 -17.5q0 -11 -7 -18.5t-16 -7.5zM282 633q-9 0 -16 7t-7 19q0 10 7 17.5t16 7.5t16 -7.5t7 -17.5q0 -11 -7 -18.5t-16 -7.5z" />
    <glyph glyph-name="ygrave.sc" horiz-adv-x="408" 
d="M394 520l-179 -294v-226h-22v226l-179 294h25l166 -274l164 274h25zM106 708h27l103 -144h-19z" />
    <glyph glyph-name="zacute.sc" horiz-adv-x="450" 
d="M408 0h-366v23l338 477h-325v20h348v-24l-337 -476h342v-20zM305 708l-111 -144h-19l103 144h27z" />
    <glyph glyph-name="zcaron.sc" horiz-adv-x="450" 
d="M408 0h-366v23l338 477h-325v20h348v-24l-337 -476h342v-20zM246 564h-28l-103 144h23l94 -132l94 132h23z" />
    <glyph glyph-name="zdotaccent.sc" horiz-adv-x="450" 
d="M408 0h-366v23l338 477h-325v20h348v-24l-337 -476h342v-20zM227 633q-9 0 -16 7t-7 19q0 10 7 17.5t16 7.5t16 -7.5t7 -17.5q0 -11 -7 -18.5t-16 -7.5z" />
    <glyph glyph-name="ij.sc" horiz-adv-x="601" 
d="M124 0h-22v520h22v-520zM507 520v-380q0 -70 -34 -112t-99 -42q-49 0 -80.5 25t-44.5 63l19 9q30 -76 105 -76q58 0 85 38t27 102v373h22z" />
    <glyph glyph-name="germandbls.sc" horiz-adv-x="873" 
d="M377 126q0 -65 -46 -102.5t-112 -37.5q-99 0 -154 65l17 15q51 -59 136 -59q57 0 97 31.5t40 86.5q0 28 -10.5 49t-33 35.5t-41 22t-51.5 18.5q-73 23 -109 53.5t-36 90.5q0 64 46.5 102t113.5 38q88 0 134 -59l-17 -15q-41 53 -118 53q-55 0 -96 -31.5t-41 -86.5
q0 -28 10 -49t30 -35t38.5 -22t46.5 -17q80 -26 118 -56t38 -90zM819 126q0 -65 -46 -102.5t-112 -37.5q-99 0 -154 65l17 15q51 -59 136 -59q57 0 97 31.5t40 86.5q0 28 -10.5 49t-33 35.5t-41 22t-51.5 18.5q-73 23 -109 53.5t-36 90.5q0 64 46.5 102t113.5 38
q88 0 134 -59l-17 -15q-41 53 -118 53q-55 0 -96 -31.5t-41 -86.5q0 -28 10 -49t30 -35t38.5 -22t46.5 -17q80 -26 118 -56t38 -90z" />
    <glyph glyph-name="eng.sc" horiz-adv-x="610" 
d="M508 -97q0 -75 -23.5 -109.5t-88.5 -34.5q-17 0 -29 3l4 19q13 -3 25 -3q30 0 49.5 10t27.5 30t10.5 38t2.5 45v91l-360 498h-2v-490h-22v520h30l352 -487h2v487h22v-617z" />
    <glyph glyph-name="grave.sc" horiz-adv-x="240" 
d="M20 708h27l103 -144h-19z" />
    <glyph glyph-name="acute.sc" horiz-adv-x="240" 
d="M220 708l-111 -144h-19l103 144h27z" />
    <glyph glyph-name="circumflex.sc" horiz-adv-x="240" 
d="M106 708h28l103 -144h-23l-94 132l-94 -132h-23z" />
    <glyph glyph-name="caron.sc" horiz-adv-x="240" 
d="M134 564h-28l-103 144h23l94 -132l94 132h23z" />
    <glyph glyph-name="tilde.sc" horiz-adv-x="240" 
d="M123 638q39 -24 59 -24q33 0 40 48h16q-7 -67 -56 -67q-26 0 -64 24q-37 24 -59 24q-32 0 -40 -51h-16q4 34 19.5 52t36.5 18q25 0 64 -24z" />
    <glyph glyph-name="dieresis.sc" horiz-adv-x="240" 
d="M43 633q-9 0 -16 7t-7 19q0 10 7 17.5t16 7.5t16 -7.5t7 -17.5q0 -11 -7 -18.5t-16 -7.5zM197 633q-9 0 -16 7t-7 19q0 10 7 17.5t16 7.5t16 -7.5t7 -17.5q0 -11 -7 -18.5t-16 -7.5z" />
    <glyph glyph-name="macron.sc" horiz-adv-x="240" 
d="M236 621h-232v20h232v-20z" />
    <glyph glyph-name="breve.sc" horiz-adv-x="240" 
d="M245 698q-10 -60 -43.5 -93t-83.5 -33t-83.5 33t-40.5 93h19q10 -51 37.5 -78.5t67.5 -27.5q44 0 70.5 25.5t38.5 80.5h18z" />
    <glyph glyph-name="ring.sc" horiz-adv-x="240" 
d="M216 650q0 -40 -28.5 -67.5t-67.5 -27.5t-67.5 27.5t-28.5 67.5t28.5 67.5t67.5 27.5t67.5 -27.5t28.5 -67.5zM197 650q0 32 -22.5 55t-54.5 23t-54.5 -23t-22.5 -55t22.5 -55t54.5 -23t54.5 23t22.5 55z" />
    <glyph glyph-name="hungarumlaut.sc" horiz-adv-x="240" 
d="M171 708l-111 -145h-19l103 145h27zM288 708l-111 -145h-19l103 145h27z" />
    <glyph glyph-name="dotaccent.sc" horiz-adv-x="240" 
d="M120 633q-9 0 -16 7t-7 19q0 10 7 17.5t16 7.5t16 -7.5t7 -17.5q0 -11 -7 -18.5t-16 -7.5z" />
    <glyph glyph-name="exclamdown.sc" horiz-adv-x="250" 
d="M114 0v384h22v-384h-22zM125 475q-10 0 -16.5 7t-6.5 19q0 11 6.5 18t16.5 7t16.5 -7t6.5 -18q0 -12 -7 -19t-16 -7z" />
    <glyph glyph-name="questiondown.sc" horiz-adv-x="290" 
d="M86 242q29 32 39 56t10 61v37h22v-44q0 -60 -43 -110q-3 -4 -11.5 -13.5t-11 -12.5t-9 -11.5t-8.5 -12.5t-6.5 -11.5t-6 -13.5t-4 -14t-3 -17t-0.5 -19q0 -52 22 -80.5t60 -28.5q77 0 92 104l22 -4q-8 -58 -38 -90t-78 -32q-49 0 -76 34.5t-27 95.5q0 31 9 56t18 37
t28 33zM142 554q8 0 14.5 -6.5t6.5 -15.5q0 -10 -6 -16.5t-15 -6.5q-8 0 -14.5 6.5t-6.5 16.5q0 9 6.5 15.5t14.5 6.5z" />
    <glyph glyph-name="Euro.sc" horiz-adv-x="464" 
d="M391 490q-44 24 -99 24q-70 0 -123.5 -48t-70.5 -135h249l-7 -19h-245q-4 -24 -4 -55q0 -29 3 -48h219l-6 -19h-210q13 -85 64.5 -134.5t127.5 -49.5q63 0 110 31l11 -18q-51 -33 -123 -33q-85 0 -142 56t-71 148h-49l6 19h40q-2 18 -2 46q0 25 4 57h-49l6 19h46
q20 100 78 151.5t139 51.5q60 0 107 -25z" />
    <glyph glyph-name="cent.sc" horiz-adv-x="464" 
d="M293 454v-448q80 2 133 52l15 -14q-55 -55 -148 -57v-59h-22v59q-95 5 -156 72.5t-61 169.5q0 101 61 169.5t156 74.5v67h22v-67q88 -2 146 -61l-17 -15q-54 55 -129 57zM271 454q-88 -6 -141.5 -70.5t-53.5 -154.5q0 -89 53.5 -153t141.5 -70v448z" />
    <glyph glyph-name="sterling.sc" horiz-adv-x="464" 
d="M175 280h124v-19h-124v-241h181v-20h-283v20h80v241h-72v19h72v102q0 70 34 111t98 41q51 0 87 -31l-14 -16q-31 27 -73 27q-55 0 -82.5 -36t-27.5 -100v-98z" />
    <glyph glyph-name="florin.sc" horiz-adv-x="464" 
d="M419 512l-12 -18q-23 18 -57 18q-78 0 -95 -103l-24 -135h97v-19h-100l-43 -235q-19 -106 -99 -106q-37 0 -64 15l10 19q28 -14 54 -14q38 0 55.5 27t27.5 84l37 210h-88v19h91l23 129q11 61 37.5 94.5t79.5 33.5q42 0 70 -19z" />
    <glyph glyph-name="yen.sc" horiz-adv-x="464" 
d="M221 255h-136v19h128l-173 246h26l167 -242l167 242h24l-171 -246h127v-19h-137v-91h137v-19h-137v-145h-22v145h-136v19h136v91z" />
    <glyph glyph-name="perthousand.sc" horiz-adv-x="965" 
d="M311 415q0 -51 -34.5 -85t-83.5 -34t-83 34t-34 85q0 49 34.5 84t82.5 35q49 0 83.5 -35t34.5 -84zM289 415q0 42 -27.5 70.5t-68.5 28.5q-40 0 -67.5 -28.5t-27.5 -70.5q0 -43 27.5 -71t67.5 -28q41 0 68.5 28t27.5 71zM615 105q0 -51 -34.5 -85t-83.5 -34t-83 34
t-34 85q0 49 34.5 84t82.5 35q49 0 83.5 -35t34.5 -84zM593 105q0 42 -27.5 70.5t-68.5 28.5q-40 0 -67.5 -28.5t-27.5 -70.5q0 -43 27.5 -71t67.5 -28q41 0 68.5 28t27.5 71zM903 105q0 -51 -34.5 -85t-83.5 -34t-83 34t-34 85q0 49 34.5 84t82.5 35q49 0 83.5 -35
t34.5 -84zM881 105q0 42 -27.5 70.5t-68.5 28.5q-40 0 -67.5 -28.5t-27.5 -70.5q0 -43 27.5 -71t67.5 -28q41 0 68.5 28t27.5 71zM517 537l-330 -564l-18 10l330 565z" />
    <glyph glyph-name="zero.onum" horiz-adv-x="673" 
d="M606 261q0 -121 -75 -198t-195 -77q-118 0 -193.5 77t-75.5 198t75 197t194 76q120 0 195 -76t75 -197zM584 261q0 108 -68 180.5t-180 72.5t-179.5 -72.5t-67.5 -180.5t67.5 -181.5t179.5 -73.5t180 73.5t68 181.5z" />
    <glyph glyph-name="one.onum" 
d="M200 0h-22v492l-110 -93l-13 17l124 104h21v-520z" />
    <glyph glyph-name="two.onum" horiz-adv-x="520" 
d="M442 0h-376v25l136 99q111 79 157 132.5t46 120.5q0 64 -43 100.5t-106 36.5q-53 0 -94 -27t-61 -79l-20 6q46 120 175 120q75 0 123 -41.5t48 -115.5q0 -70 -47.5 -127t-167.5 -143l-116 -84v-3h346v-20z" />
    <glyph glyph-name="three.onum" horiz-adv-x="520" 
d="M423 489q-112 -100 -271 -231l1 -3q29 8 63 8q88 0 153.5 -52.5t65.5 -150.5q0 -115 -74.5 -172.5t-183.5 -57.5q-56 0 -99 10l4 22q45 -12 95 -12q64 0 115 19.5t86 68t35 121.5q0 89 -60 136.5t-139 47.5q-54 0 -104 -17l-7 17q167 131 300 254v3h-327v20h347v-31z" />
    <glyph glyph-name="four.onum" horiz-adv-x="550" 
d="M374 534l-298 -502h295v293h22v-293h122v-20h-122v-182h-22v182h-320v21l299 501h24z" />
    <glyph glyph-name="five.onum" horiz-adv-x="520" 
d="M219 231q-64 0 -120 -27l33 316h298v-20h-280l-27 -267q43 18 96 18q93 0 155 -50t62 -146q0 -111 -70 -168t-175 -57q-59 0 -108 11l4 22q49 -13 104 -13q100 0 161.5 53.5t61.5 151.5q0 88 -56.5 132t-138.5 44z" />
    <glyph glyph-name="six.onum" horiz-adv-x="560" 
d="M92 201q0 -84 53 -139t135 -55t135 55t53 139q0 85 -50.5 141t-132.5 56q-80 0 -136.5 -56t-56.5 -141zM396 697q-90 -79 -168.5 -179t-112.5 -186l2 -1q65 87 170 87q90 0 146.5 -61.5t56.5 -155.5q0 -92 -59.5 -152.5t-151.5 -60.5t-150.5 59.5t-58.5 153.5
q0 214 309 509z" />
    <glyph glyph-name="seven.onum" horiz-adv-x="510" 
d="M450 500q-196 -407 -308 -684l-21 7q122 293 308 677h-369v20h390v-20z" />
    <glyph glyph-name="eight.onum" horiz-adv-x="560" 
d="M489 188q0 -90 -59 -145t-150 -55t-150 55t-59 145q0 65 38 118t111 73v2q-60 23 -91 68.5t-31 97.5q0 77 51.5 125t130.5 48t130.5 -48t51.5 -125q0 -52 -31.5 -98.5t-90.5 -67.5v-2q75 -23 112 -74.5t37 -116.5zM441 547q0 68 -46 111t-115 43t-115 -43t-46 -111
q0 -65 46 -112t115 -47t115 47t46 112zM467 188q0 79 -54.5 131t-132.5 52t-132.5 -52t-54.5 -131q0 -78 52 -129.5t135 -51.5t135 51.5t52 129.5z" />
    <glyph glyph-name="nine.onum" horiz-adv-x="560" 
d="M468 321q0 84 -53 139t-135 55t-135 -55t-53 -139q0 -85 50.5 -141t132.5 -56q80 0 136.5 56t56.5 141zM164 -171q89 75 168 175t113 186l-2 1q-65 -87 -170 -87q-90 0 -146.5 61.5t-56.5 155.5q0 92 59.5 152.5t151.5 60.5t150.5 -59.5t58.5 -153.5q0 -220 -309 -505z
" />
    <glyph glyph-name="napostrophe.sc" horiz-adv-x="620" 
d="M518 0h-30l-352 490h-2v-490h-22v520h30l352 -490h2v490h22v-520zM53 520l-58 -185h-17l51 185h24z" />
    <glyph glyph-name="ordfeminine.sc" 
d="M323 431h-21l-34 76h-184l-36 -76h-20l136 291h27zM262 523l-84 186l-88 -186h172z" />
    <glyph glyph-name="fi.sc" horiz-adv-x="675" 
d="M399 500h-275v-224h256v-20h-256v-256h-22v520h297v-20zM573 0h-22v520h22v-520z" />
    <glyph glyph-name="fl.sc" horiz-adv-x="839" 
d="M399 500h-275v-224h256v-20h-256v-256h-22v520h297v-20zM827 0h-276v520h22v-500h254v-20z" />
    </font>
</defs>
</svg>
